<svg xmlns="http://www.w3.org/2000/svg" width="159.846" height="45.226" viewBox="0 0 159.846 45.226">
  <g id="Grupo_137789" data-name="Grupo 137789" transform="translate(-180 -9930.001)">
    <path id="Trazado_215023" data-name="Trazado 215023" d="M0,480H132.589v34.461H0Zm0,0" transform="translate(179.996 9455.001)" fill="#f2b05b"/>
    <g id="coffee-beans" transform="translate(294.373 9930.001)">
      <g id="Grupo_130660" data-name="Grupo 130660" transform="translate(0 0)">
        <g id="Grupo_130659" data-name="Grupo 130659">
          <g id="Grupo_130658" data-name="Grupo 130658">
            <g id="Grupo_130657" data-name="Grupo 130657">
              <g id="Grupo_130656" data-name="Grupo 130656">
                <g id="Grupo_130655" data-name="Grupo 130655">
                  <g id="XMLID_993_">
                    <g id="XMLID_994_">
                      <g id="XMLID_995_">
                        <g id="XMLID_996_">
                          <g id="XMLID_997_">
                            <g id="XMLID_998_">
                              <g id="XMLID_999_">
                                <g id="XMLID_1000_">
                                  <g id="XMLID_1001_">
                                    <g id="XMLID_1002_">
                                      <g id="XMLID_1003_">
                                        <g id="XMLID_1004_">
                                          <g id="XMLID_1005_">
                                            <g id="XMLID_1006_">
                                              <g id="XMLID_1007_">
                                                <circle id="Elipse_5547" data-name="Elipse 5547" cx="22.5" cy="22.5" r="22.5" transform="translate(0.473)" fill="#ddc385"/>
                                              </g>
                                            </g>
                                          </g>
                                        </g>
                                      </g>
                                    </g>
                                  </g>
                                </g>
                              </g>
                            </g>
                          </g>
                        </g>
                      </g>
                    </g>
                  </g>
                </g>
              </g>
            </g>
          </g>
        </g>
      </g>
      <path id="Trazado_203797" data-name="Trazado 203797" d="M141.958,124.214c0-.019,0-.039,0-.058l-5.5-5.5-6.1,5.428L117.73,111.451l-11.608,20.631,14.689,14.689A22.6,22.6,0,0,0,141.958,124.214Z" transform="translate(-96.752 -101.545)" fill="#b49b62"/>
      <g id="Grupo_130671" data-name="Grupo 130671" transform="translate(5.042 6.891)">
        <g id="Grupo_130665" data-name="Grupo 130665" transform="translate(14.271 6.89)">
          <path id="Trazado_203798" data-name="Trazado 203798" d="M237.473,173c-3.59,4.815-9.081,7.017-13.29,5.673-.785-.251-.634-1.821-1.309-2.324-.276-.205-1.425.768-1.665.532-3.508-3.459-3.279-10.133.708-15.479,4.024-5.4,10.435-7.51,14.755-5.028.253.146-.155,1.184.082,1.361.683.509,1.912.242,2.379.933,2.471,3.652,1.923,9.529-1.659,14.333Z" transform="translate(-218.741 -155.342)" fill="#915f3d"/>
          <path id="Trazado_203799" data-name="Trazado 203799" d="M280.148,197.723c-3.59,4.815-9.081,7.017-13.29,5.673-.785-.251-.634-1.821-1.31-2.324l13.879-18.615c.683.509,1.912.243,2.379.934C284.279,187.043,283.73,192.919,280.148,197.723Z" transform="translate(-261.416 -180.063)" fill="#6d4225"/>
          <g id="Grupo_130662" data-name="Grupo 130662" transform="translate(2.467 1.033)">
            <g id="Grupo_130661" data-name="Grupo 130661">
              <path id="Trazado_203800" data-name="Trazado 203800" d="M252.5,183.359a2.684,2.684,0,0,0-1.828,1.926l-1.013,4.057a7.45,7.45,0,0,1-2.975-1.793l.721-2.891a6.419,6.419,0,0,1,4.37-4.6l2.72-.8a2.684,2.684,0,0,0,1.9-2.669l-.084-1.786a6.449,6.449,0,0,1,2.651-5.436l3.181-2.318a7.443,7.443,0,0,1,2.462,2.295l-3.814,2.78a2.7,2.7,0,0,0-1.109,2.275l.083,1.787a6.415,6.415,0,0,1-4.549,6.377Z" transform="translate(-246.687 -167.042)" fill="#51351f"/>
            </g>
          </g>
          <g id="Grupo_130664" data-name="Grupo 130664" transform="translate(3.241 1.517)">
            <g id="Grupo_130663" data-name="Grupo 130663">
              <path id="Trazado_203801" data-name="Trazado 203801" d="M260.494,188.357a2.684,2.684,0,0,0-1.828,1.926l-1.013,4.057a7.488,7.488,0,0,1-2.2-1.129l6.582-8.828.455-.135a2.684,2.684,0,0,0,1.9-2.669l-.016-.338,6.5-8.718a7.463,7.463,0,0,1,1.725,1.811l-3.814,2.78a2.7,2.7,0,0,0-1.109,2.275l.083,1.787a6.415,6.415,0,0,1-4.549,6.377Z" transform="translate(-255.452 -172.524)" fill="#331d0e"/>
            </g>
          </g>
        </g>
        <g id="Grupo_130670" data-name="Grupo 130670">
          <path id="Trazado_203802" data-name="Trazado 203802" d="M76.512,90.737c0,6.006-3.086,11.053-7.263,12.492-.779.268-1.6-1.081-2.439-1.081-.344,0-.683,1.468-1.017,1.422-4.88-.676-8.685-6.164-8.685-12.833,0-6.731,3.877-12.259,8.823-12.85.29-.034.583,1.042.879,1.042.852,0,1.678-.949,2.466-.674C73.44,79.705,76.512,84.744,76.512,90.737Z" transform="translate(-57.107 -77.835)" fill="#915f3d"/>
          <path id="Trazado_203803" data-name="Trazado 203803" d="M176.7,94.031c0,6.006-3.086,11.053-7.263,12.492-.779.268-1.6-1.081-2.439-1.081V82.222c.852,0,1.678-.948,2.465-.674C173.629,83,176.7,88.038,176.7,94.031Z" transform="translate(-157.296 -81.128)" fill="#6d4225"/>
          <g id="Grupo_130667" data-name="Grupo 130667" transform="translate(7.034)">
            <g id="Grupo_130666" data-name="Grupo 130666">
              <path id="Trazado_203804" data-name="Trazado 203804" d="M140.587,96.2a2.684,2.684,0,0,0-.314,2.637l1.613,3.858a7.452,7.452,0,0,1-3.457.341l-1.15-2.749a6.419,6.419,0,0,1,.752-6.3l1.7-2.271a2.684,2.684,0,0,0-.069-3.277l-1.135-1.382a6.449,6.449,0,0,1-1.124-5.942l1.164-3.76a7.444,7.444,0,0,1,3.345.368l-1.4,4.508a2.7,2.7,0,0,0,.471,2.486l1.135,1.383a6.415,6.415,0,0,1,.165,7.832Z" transform="translate(-136.778 -77.304)" fill="#51351f"/>
            </g>
          </g>
          <g id="Grupo_130669" data-name="Grupo 130669" transform="translate(9.703)">
            <g id="Grupo_130668" data-name="Grupo 130668">
              <path id="Trazado_203805" data-name="Trazado 203805" d="M168.138,96.2a2.684,2.684,0,0,0-.314,2.637l1.613,3.858a7.487,7.487,0,0,1-2.439.411V92.1l.284-.38a2.684,2.684,0,0,0-.069-3.277L167,88.178V77.3a7.462,7.462,0,0,1,2.465.42l-1.4,4.508a2.7,2.7,0,0,0,.471,2.486l1.135,1.383a6.415,6.415,0,0,1,.165,7.832Z" transform="translate(-166.998 -77.304)" fill="#331d0e"/>
            </g>
          </g>
        </g>
      </g>
    </g>
    <path id="Trazado_215145" data-name="Trazado 215145" d="M8.408,17.221a1.408,1.408,0,0,0-.532-1.172,6.615,6.615,0,0,0-1.87-.869,17.942,17.942,0,0,1-2.187-.869q-2.764-1.357-2.764-3.73A3.345,3.345,0,0,1,1.743,8.5,4.453,4.453,0,0,1,3.691,7.089a7.582,7.582,0,0,1,2.832-.5,6.632,6.632,0,0,1,2.749.547,4.352,4.352,0,0,1,1.89,1.558A4.068,4.068,0,0,1,11.836,11H8.418a1.719,1.719,0,0,0-.532-1.348,2.075,2.075,0,0,0-1.44-.479A2.339,2.339,0,0,0,5,9.579,1.193,1.193,0,0,0,5.049,11.6a7.389,7.389,0,0,0,2.061.918,12.623,12.623,0,0,1,2.422,1.021,4.07,4.07,0,0,1,2.3,3.662,3.472,3.472,0,0,1-1.406,2.93A6.255,6.255,0,0,1,6.572,21.2a7.653,7.653,0,0,1-3.13-.62,4.719,4.719,0,0,1-2.109-1.7,4.428,4.428,0,0,1-.708-2.485H4.063a2.181,2.181,0,0,0,.591,1.685,2.793,2.793,0,0,0,1.919.542,2.206,2.206,0,0,0,1.343-.366A1.209,1.209,0,0,0,8.408,17.221ZM17.031,21H13.721V10.434h3.311ZM15.8,6.2h3.477L16.563,9.262l-2.686,0Zm6.367,4.238.107,1.24a3.583,3.583,0,0,1,3.018-1.436,3.015,3.015,0,0,1,2.466.986,4.7,4.7,0,0,1,.845,2.969V21H25.3V14.33a1.783,1.783,0,0,0-.322-1.177,1.491,1.491,0,0,0-1.172-.376,1.569,1.569,0,0,0-1.436.762V21H19.082V10.434Zm12.09-2.627v2.627H36v2.285H34.258v4.834a1.234,1.234,0,0,0,.215.83,1.152,1.152,0,0,0,.85.234,4.828,4.828,0,0,0,.82-.059v2.354a6.074,6.074,0,0,1-1.855.283,3.448,3.448,0,0,1-2.51-.8,3.282,3.282,0,0,1-.811-2.432V12.719H29.619V10.434h1.348V7.807ZM42.4,21.2a5.432,5.432,0,0,1-3.936-1.45,5.008,5.008,0,0,1-1.5-3.774V15.7a6.489,6.489,0,0,1,.6-2.861,4.395,4.395,0,0,1,1.753-1.919,5.292,5.292,0,0,1,2.734-.679,4.574,4.574,0,0,1,3.516,1.382,5.43,5.43,0,0,1,1.289,3.853v1.279H40.313a2.372,2.372,0,0,0,.771,1.4,2.3,2.3,0,0,0,1.543.508,2.958,2.958,0,0,0,2.441-1.094l1.5,1.777a4.2,4.2,0,0,1-1.743,1.353A5.891,5.891,0,0,1,42.4,21.2Zm-.371-8.418q-1.445,0-1.719,1.914h3.32v-.254a1.63,1.63,0,0,0-.4-1.226A1.593,1.593,0,0,0,42.031,12.777Zm11.68,5.254a.76.76,0,0,0-.439-.674,6.684,6.684,0,0,0-1.67-.527,7.615,7.615,0,0,1-2.031-.718,3.4,3.4,0,0,1-1.221-1.079,2.577,2.577,0,0,1-.42-1.455,2.92,2.92,0,0,1,1.2-2.4,4.948,4.948,0,0,1,3.145-.942,5.482,5.482,0,0,1,3.359.947,2.962,2.962,0,0,1,1.27,2.49H53.6q0-1.27-1.338-1.27a1.326,1.326,0,0,0-.869.288.892.892,0,0,0-.352.718.819.819,0,0,0,.43.713,4.06,4.06,0,0,0,1.372.449,11.857,11.857,0,0,1,1.655.42,3.007,3.007,0,0,1,2.383,2.939A2.767,2.767,0,0,1,55.6,20.287a5.632,5.632,0,0,1-3.325.908,5.747,5.747,0,0,1-2.422-.488,4.05,4.05,0,0,1-1.66-1.328,3.007,3.007,0,0,1-.6-1.768h3.076a1.272,1.272,0,0,0,.488,1.069,2.009,2.009,0,0,0,1.2.337,1.58,1.58,0,0,0,1.011-.273A.875.875,0,0,0,53.711,18.031ZM61.895,21h-3.3V10.434h3.3ZM58.4,7.709a1.469,1.469,0,0,1,.508-1.152,2.159,2.159,0,0,1,2.637,0,1.469,1.469,0,0,1,.508,1.152,1.469,1.469,0,0,1-.508,1.152,2.159,2.159,0,0,1-2.637,0A1.469,1.469,0,0,1,58.4,7.709ZM69.453,18.031a.76.76,0,0,0-.439-.674,6.684,6.684,0,0,0-1.67-.527,7.615,7.615,0,0,1-2.031-.718,3.4,3.4,0,0,1-1.221-1.079,2.577,2.577,0,0,1-.42-1.455,2.92,2.92,0,0,1,1.2-2.4,4.948,4.948,0,0,1,3.145-.942,5.482,5.482,0,0,1,3.359.947,2.962,2.962,0,0,1,1.27,2.49h-3.3q0-1.27-1.338-1.27a1.326,1.326,0,0,0-.869.288.892.892,0,0,0-.352.718.819.819,0,0,0,.43.713,4.06,4.06,0,0,0,1.372.449,11.857,11.857,0,0,1,1.655.42,3.007,3.007,0,0,1,2.383,2.939,2.767,2.767,0,0,1-1.284,2.354,5.631,5.631,0,0,1-3.325.908,5.747,5.747,0,0,1-2.422-.488,4.05,4.05,0,0,1-1.66-1.328,3.007,3.007,0,0,1-.6-1.768h3.076a1.272,1.272,0,0,0,.488,1.069,2.009,2.009,0,0,0,1.2.337,1.58,1.58,0,0,0,1.011-.273A.875.875,0,0,0,69.453,18.031Z" transform="translate(198.846 9941.001)"/>
  </g>
</svg>
