<svg xmlns="http://www.w3.org/2000/svg" width="88.231" height="88" viewBox="0 0 88.231 88">
  <g id="en-todo-el-mundo" transform="translate(-0.001 -0.671)">
    <circle id="Elipse_5615" data-name="Elipse 5615" cx="37.884" cy="37.884" r="37.884" transform="translate(1.29 1.96)" fill="#8cc8d4"/>
    <path id="Trazado_215016" data-name="Trazado 215016" d="M98.4,101.567a37.89,37.89,0,0,1-72.613,15.157,37.892,37.892,0,0,0,61.972-41.48A37.749,37.749,0,0,1,98.4,101.567Z" transform="translate(-21.342 -61.722)" fill="#7fbac1"/>
    <path id="Trazado_215017" data-name="Trazado 215017" d="M411.724,391.223l-.026.017a4.152,4.152,0,0,1-5.762-1.124L394.609,373.3l6.913-4.655,11.327,16.82A4.151,4.151,0,0,1,411.724,391.223Z" transform="translate(-326.607 -304.559)" fill="#dfe4e8"/>
    <circle id="Elipse_5616" data-name="Elipse 5616" cx="16.938" cy="16.938" r="16.938" transform="translate(45.059 35.422)" fill="#dd7d76"/>
    <path id="Trazado_215018" data-name="Trazado 215018" d="M295.371,259.059a16.943,16.943,0,0,1-24.837-6.943,16.94,16.94,0,0,0,27.741-18.685,16.948,16.948,0,0,1-2.9,25.628Z" transform="translate(-223.913 -192.649)" fill="#ce5f5d"/>
    <circle id="Elipse_5617" data-name="Elipse 5617" cx="10.58" cy="10.58" r="10.58" transform="translate(51.418 41.78)" fill="#f4e598"/>
    <path id="Trazado_215019" data-name="Trazado 215019" d="M318.624,270.388a10.586,10.586,0,0,1-15.7-4.775A10.581,10.581,0,0,0,319.5,253.492a10.586,10.586,0,0,1-.873,16.9Z" transform="translate(-250.718 -209.253)" fill="#eace88"/>
    <rect id="Rectángulo_45006" data-name="Rectángulo 45006" width="8.334" height="3.952" transform="matrix(-0.829, 0.559, -0.559, -0.829, 84.672, 78.563)" fill="#dd7d76"/>
    <g id="Grupo_137693" data-name="Grupo 137693" transform="translate(0.001 0.671)">
      <path id="Trazado_215020" data-name="Trazado 215020" d="M302.76,255.464a11.864,11.864,0,1,1,6.612-2.021A11.867,11.867,0,0,1,302.76,255.464Zm-.037-21.157a9.317,9.317,0,1,0,1.8.175A9.386,9.386,0,0,0,302.723,234.307Z" transform="translate(-240.746 -191.91)" fill="#000100"/>
      <path id="Trazado_215021" data-name="Trazado 215021" d="M322.859,277.574a1.288,1.288,0,0,1-1.071-.569,7.083,7.083,0,0,1,1.919-9.831,1.29,1.29,0,0,1,1.441,2.139,4.5,4.5,0,0,0-1.22,6.252,1.289,1.289,0,0,1-1.068,2.01Z" transform="translate(-265.335 -221.066)" fill="#000100"/>
      <path id="Trazado_215022" data-name="Trazado 215022" d="M87.3,80.168,76.243,63.744a18.258,18.258,0,0,0,1.889-19.867,1.288,1.288,0,0,0,.029-.169,39.647,39.647,0,0,0,.159-5.338A38.954,38.954,0,0,0,66.127,11.417a1.29,1.29,0,1,0-1.774,1.872,36.632,36.632,0,0,1,7.122,9.326H59.027A73.48,73.48,0,0,0,49.056,4.6a36.365,36.365,0,0,1,8.122,3.377,1.289,1.289,0,1,0,1.271-2.244A39.175,39.175,0,1,0,39.138,79.018q.753,0,1.51-.028a38.861,38.861,0,0,0,22.9-8.473,18.169,18.169,0,0,0,3.641-.684L78.251,86.264a5.457,5.457,0,0,0,9.052-6.1ZM29.287,4.609a73.484,73.484,0,0,0-9.965,18.006H6.9A36.729,36.729,0,0,1,29.287,4.609ZM2.606,41.22A36.377,36.377,0,0,1,5.645,25.194H18.411q-.187.568-.366,1.145a50.226,50.226,0,0,0-1.664,24.367q.364,1.911.893,3.788H5.64A36.408,36.408,0,0,1,2.606,41.22ZM6.9,57.073H18.082a53.074,53.074,0,0,0,10.75,17.875A36.791,36.791,0,0,1,6.9,57.073Zm30.99,19.342a36.509,36.509,0,0,1-4.563-.445,1.32,1.32,0,0,0-.095-.108A52.728,52.728,0,0,1,20.821,57.073H37.885V76.415Zm0-21.921H19.959a42.565,42.565,0,0,1-1.035-4.221A47.633,47.633,0,0,1,20.485,27.18q.309-1.008.649-1.986H37.885v29.3Zm0-31.879H22.091A70.147,70.147,0,0,1,33.273,3.777c.016-.018.031-.038.046-.057A36.784,36.784,0,0,1,37.8,3.276l.087,0Zm39.456,57.68,4.774-3.215.767,1.139-4.774,3.215Zm-4.617-55.1a36.56,36.56,0,0,1,3.02,13.273q.036.971.022,1.946A18.246,18.246,0,0,0,62.131,34.14a56.885,56.885,0,0,0-1.827-7.8q-.178-.578-.366-1.145H72.723ZM40.464,3.273a36.687,36.687,0,0,1,4.565.446c.015.019.03.039.047.058A70.147,70.147,0,0,1,56.258,22.615H40.464V3.273Zm4.561,72.7a37.165,37.165,0,0,1-4.474.44l-.087,0V57.073h3.925a18.231,18.231,0,0,0,7.619,10.533,59.9,59.9,0,0,1-6.886,8.256A1.223,1.223,0,0,0,45.025,75.972ZM49.5,74.964a60.148,60.148,0,0,0,4.774-6.1,18.365,18.365,0,0,0,5.07,1.52A36.159,36.159,0,0,1,49.5,74.964ZM49.018,61.1a15.643,15.643,0,0,1-1.52-14.63,1.289,1.289,0,0,0-2.39-.968,18.246,18.246,0,0,0-1.212,8.991H40.464v-29.3H57.216q.338.978.649,1.986A54.368,54.368,0,0,1,59.543,34.3a18.118,18.118,0,0,0-7.728,2.941c-.275.186-.549.381-.813.58a1.29,1.29,0,0,0,1.554,2.058c.227-.172.463-.34.7-.5A15.649,15.649,0,1,1,49.018,61.1Zm25.548,4.77,6.108,9.07L75.9,78.156l-6.108-9.07ZM84.384,85.6a2.881,2.881,0,0,1-3.994-.779l-.842-1.25,4.774-3.215.842,1.25A2.881,2.881,0,0,1,84.384,85.6Z" transform="translate(-0.001 -0.671)" fill="#000100"/>
    </g>
  </g>
</svg>
