<svg xmlns="http://www.w3.org/2000/svg" width="210" height="45.225" viewBox="0 0 210 45.225">
  <g id="Grupo_137786" data-name="Grupo 137786" transform="translate(-180 -6284.001)">
    <path id="Trazado_215008" data-name="Trazado 215008" d="M0,480H190v34.461H0Zm0,0" transform="translate(179.996 5809.001)" fill="#f2b05b"/>
    <g id="coffee-beans" transform="translate(344.527 6284.001)">
      <g id="Grupo_130660" data-name="Grupo 130660" transform="translate(0 0)">
        <g id="Grupo_130659" data-name="Grupo 130659">
          <g id="Grupo_130658" data-name="Grupo 130658">
            <g id="Grupo_130657" data-name="Grupo 130657">
              <g id="Grupo_130656" data-name="Grupo 130656">
                <g id="Grupo_130655" data-name="Grupo 130655">
                  <g id="XMLID_993_">
                    <g id="XMLID_994_">
                      <g id="XMLID_995_">
                        <g id="XMLID_996_">
                          <g id="XMLID_997_">
                            <g id="XMLID_998_">
                              <g id="XMLID_999_">
                                <g id="XMLID_1000_">
                                  <g id="XMLID_1001_">
                                    <g id="XMLID_1002_">
                                      <g id="XMLID_1003_">
                                        <g id="XMLID_1004_">
                                          <g id="XMLID_1005_">
                                            <g id="XMLID_1006_">
                                              <g id="XMLID_1007_">
                                                <circle id="Elipse_5547" data-name="Elipse 5547" cx="22.5" cy="22.5" r="22.5" transform="translate(0.473)" fill="#ddc385"/>
                                              </g>
                                            </g>
                                          </g>
                                        </g>
                                      </g>
                                    </g>
                                  </g>
                                </g>
                              </g>
                            </g>
                          </g>
                        </g>
                      </g>
                    </g>
                  </g>
                </g>
              </g>
            </g>
          </g>
        </g>
      </g>
      <path id="Trazado_203797" data-name="Trazado 203797" d="M141.958,124.214c0-.019,0-.039,0-.058l-5.5-5.5-6.1,5.428L117.73,111.451l-11.608,20.631,14.689,14.689A22.6,22.6,0,0,0,141.958,124.214Z" transform="translate(-96.752 -101.545)" fill="#b49b62"/>
      <g id="Grupo_130671" data-name="Grupo 130671" transform="translate(5.042 6.891)">
        <g id="Grupo_130665" data-name="Grupo 130665" transform="translate(14.271 6.89)">
          <path id="Trazado_203798" data-name="Trazado 203798" d="M237.473,173c-3.59,4.815-9.081,7.017-13.29,5.673-.785-.251-.634-1.821-1.309-2.324-.276-.205-1.425.768-1.665.532-3.508-3.459-3.279-10.133.708-15.479,4.024-5.4,10.435-7.51,14.755-5.028.253.146-.155,1.184.082,1.361.683.509,1.912.242,2.379.933,2.471,3.652,1.923,9.529-1.659,14.333Z" transform="translate(-218.741 -155.342)" fill="#915f3d"/>
          <path id="Trazado_203799" data-name="Trazado 203799" d="M280.148,197.723c-3.59,4.815-9.081,7.017-13.29,5.673-.785-.251-.634-1.821-1.31-2.324l13.879-18.615c.683.509,1.912.243,2.379.934C284.279,187.043,283.73,192.919,280.148,197.723Z" transform="translate(-261.416 -180.063)" fill="#6d4225"/>
          <g id="Grupo_130662" data-name="Grupo 130662" transform="translate(2.467 1.033)">
            <g id="Grupo_130661" data-name="Grupo 130661">
              <path id="Trazado_203800" data-name="Trazado 203800" d="M252.5,183.359a2.684,2.684,0,0,0-1.828,1.926l-1.013,4.057a7.45,7.45,0,0,1-2.975-1.793l.721-2.891a6.419,6.419,0,0,1,4.37-4.6l2.72-.8a2.684,2.684,0,0,0,1.9-2.669l-.084-1.786a6.449,6.449,0,0,1,2.651-5.436l3.181-2.318a7.443,7.443,0,0,1,2.462,2.295l-3.814,2.78a2.7,2.7,0,0,0-1.109,2.275l.083,1.787a6.415,6.415,0,0,1-4.549,6.377Z" transform="translate(-246.687 -167.042)" fill="#51351f"/>
            </g>
          </g>
          <g id="Grupo_130664" data-name="Grupo 130664" transform="translate(3.241 1.517)">
            <g id="Grupo_130663" data-name="Grupo 130663">
              <path id="Trazado_203801" data-name="Trazado 203801" d="M260.494,188.357a2.684,2.684,0,0,0-1.828,1.926l-1.013,4.057a7.488,7.488,0,0,1-2.2-1.129l6.582-8.828.455-.135a2.684,2.684,0,0,0,1.9-2.669l-.016-.338,6.5-8.718a7.463,7.463,0,0,1,1.725,1.811l-3.814,2.78a2.7,2.7,0,0,0-1.109,2.275l.083,1.787a6.415,6.415,0,0,1-4.549,6.377Z" transform="translate(-255.452 -172.524)" fill="#331d0e"/>
            </g>
          </g>
        </g>
        <g id="Grupo_130670" data-name="Grupo 130670">
          <path id="Trazado_203802" data-name="Trazado 203802" d="M76.512,90.737c0,6.006-3.086,11.053-7.263,12.492-.779.268-1.6-1.081-2.439-1.081-.344,0-.683,1.468-1.017,1.422-4.88-.676-8.685-6.164-8.685-12.833,0-6.731,3.877-12.259,8.823-12.85.29-.034.583,1.042.879,1.042.852,0,1.678-.949,2.466-.674C73.44,79.705,76.512,84.744,76.512,90.737Z" transform="translate(-57.107 -77.835)" fill="#915f3d"/>
          <path id="Trazado_203803" data-name="Trazado 203803" d="M176.7,94.031c0,6.006-3.086,11.053-7.263,12.492-.779.268-1.6-1.081-2.439-1.081V82.222c.852,0,1.678-.948,2.465-.674C173.629,83,176.7,88.038,176.7,94.031Z" transform="translate(-157.296 -81.128)" fill="#6d4225"/>
          <g id="Grupo_130667" data-name="Grupo 130667" transform="translate(7.034)">
            <g id="Grupo_130666" data-name="Grupo 130666">
              <path id="Trazado_203804" data-name="Trazado 203804" d="M140.587,96.2a2.684,2.684,0,0,0-.314,2.637l1.613,3.858a7.452,7.452,0,0,1-3.457.341l-1.15-2.749a6.419,6.419,0,0,1,.752-6.3l1.7-2.271a2.684,2.684,0,0,0-.069-3.277l-1.135-1.382a6.449,6.449,0,0,1-1.124-5.942l1.164-3.76a7.444,7.444,0,0,1,3.345.368l-1.4,4.508a2.7,2.7,0,0,0,.471,2.486l1.135,1.383a6.415,6.415,0,0,1,.165,7.832Z" transform="translate(-136.778 -77.304)" fill="#51351f"/>
            </g>
          </g>
          <g id="Grupo_130669" data-name="Grupo 130669" transform="translate(9.703)">
            <g id="Grupo_130668" data-name="Grupo 130668">
              <path id="Trazado_203805" data-name="Trazado 203805" d="M168.138,96.2a2.684,2.684,0,0,0-.314,2.637l1.613,3.858a7.487,7.487,0,0,1-2.439.411V92.1l.284-.38a2.684,2.684,0,0,0-.069-3.277L167,88.178V77.3a7.462,7.462,0,0,1,2.465.42l-1.4,4.508a2.7,2.7,0,0,0,.471,2.486l1.135,1.383a6.415,6.415,0,0,1,.165,7.832Z" transform="translate(-166.998 -77.304)" fill="#331d0e"/>
            </g>
          </g>
        </g>
      </g>
    </g>
    <path id="Trazado_215114" data-name="Trazado 215114" d="M12.578,16.186a5.193,5.193,0,0,1-.8,2.622A4.833,4.833,0,0,1,9.722,20.57,7,7,0,0,1,6.7,21.2a5.584,5.584,0,0,1-4.414-1.826A7.54,7.54,0,0,1,.674,14.213v-.7A8.607,8.607,0,0,1,1.4,9.853,5.513,5.513,0,0,1,3.5,7.431,5.844,5.844,0,0,1,6.66,6.576a6.129,6.129,0,0,1,4.16,1.362,5.383,5.383,0,0,1,1.787,3.755H9.189a2.547,2.547,0,0,0-.654-1.865A2.691,2.691,0,0,0,6.66,9.262a2.048,2.048,0,0,0-1.875.957,6.151,6.151,0,0,0-.625,3.057v1.006a6.806,6.806,0,0,0,.571,3.252A2.091,2.091,0,0,0,6.7,18.51a2.632,2.632,0,0,0,1.807-.557,2.363,2.363,0,0,0,.664-1.768Zm1.055-.566a6.236,6.236,0,0,1,.615-2.817,4.4,4.4,0,0,1,1.768-1.9,5.323,5.323,0,0,1,2.705-.664,4.858,4.858,0,0,1,3.74,1.47,5.64,5.64,0,0,1,1.367,4v.117a5.472,5.472,0,0,1-1.372,3.921A4.871,4.871,0,0,1,18.74,21.2a4.927,4.927,0,0,1-3.623-1.353,5.29,5.29,0,0,1-1.475-3.667Zm3.291.205a3.932,3.932,0,0,0,.459,2.148,1.529,1.529,0,0,0,1.357.684q1.758,0,1.8-2.705v-.332q0-2.842-1.816-2.842-1.65,0-1.787,2.451ZM28.3,10.434l.107,1.24a3.583,3.583,0,0,1,3.018-1.436,3.015,3.015,0,0,1,2.466.986,4.7,4.7,0,0,1,.845,2.969V21h-3.3V14.33a1.783,1.783,0,0,0-.322-1.177,1.491,1.491,0,0,0-1.172-.376,1.569,1.569,0,0,0-1.436.762V21H25.215V10.434Zm12.471,6.65,1.67-6.65h3.467L42.461,21H39.1L35.654,10.434h3.477ZM52,21.2a5.432,5.432,0,0,1-3.936-1.45,5.008,5.008,0,0,1-1.5-3.774V15.7a6.489,6.489,0,0,1,.6-2.861,4.395,4.395,0,0,1,1.753-1.919,5.292,5.292,0,0,1,2.734-.679,4.574,4.574,0,0,1,3.516,1.382,5.43,5.43,0,0,1,1.289,3.853v1.279H49.912a2.372,2.372,0,0,0,.771,1.4,2.3,2.3,0,0,0,1.543.508,2.958,2.958,0,0,0,2.441-1.094l1.5,1.777a4.2,4.2,0,0,1-1.743,1.353A5.891,5.891,0,0,1,52,21.2Zm-.371-8.418q-1.445,0-1.719,1.914h3.32v-.254a1.63,1.63,0,0,0-.4-1.226A1.593,1.593,0,0,0,51.631,12.777Zm9.17-2.344.107,1.24a3.583,3.583,0,0,1,3.018-1.436,3.015,3.015,0,0,1,2.466.986,4.7,4.7,0,0,1,.845,2.969V21h-3.3V14.33a1.783,1.783,0,0,0-.322-1.177,1.491,1.491,0,0,0-1.172-.376,1.569,1.569,0,0,0-1.436.762V21H57.715V10.434Zm12.725,8.223A1.464,1.464,0,0,0,74.6,18.28a1.379,1.379,0,0,0,.371-1.05h3.086a3.653,3.653,0,0,1-1.245,2.852A4.631,4.631,0,0,1,73.6,21.2a4.689,4.689,0,0,1-3.633-1.445,5.7,5.7,0,0,1-1.328-4v-.137a6.436,6.436,0,0,1,.591-2.827,4.3,4.3,0,0,1,1.7-1.885,5.081,5.081,0,0,1,2.637-.659,4.573,4.573,0,0,1,3.271,1.143,4.053,4.053,0,0,1,1.211,3.1H74.971a1.806,1.806,0,0,0-.4-1.26,1.382,1.382,0,0,0-1.074-.439q-1.279,0-1.494,1.631a11.508,11.508,0,0,0-.068,1.426,4.52,4.52,0,0,0,.381,2.207A1.319,1.319,0,0,0,73.525,18.656ZM82.92,21h-3.3V10.434h3.3Zm-3.5-13.291a1.469,1.469,0,0,1,.508-1.152,2.159,2.159,0,0,1,2.637,0,1.469,1.469,0,0,1,.508,1.152,1.469,1.469,0,0,1-.508,1.152,2.159,2.159,0,0,1-2.637,0A1.469,1.469,0,0,1,79.424,7.709Zm5.107,7.91a6.236,6.236,0,0,1,.615-2.817,4.4,4.4,0,0,1,1.768-1.9,5.323,5.323,0,0,1,2.705-.664,4.858,4.858,0,0,1,3.74,1.47,5.64,5.64,0,0,1,1.367,4v.117a5.472,5.472,0,0,1-1.372,3.921,4.871,4.871,0,0,1-3.716,1.45,4.927,4.927,0,0,1-3.623-1.353,5.29,5.29,0,0,1-1.475-3.667Zm3.291.205a3.932,3.932,0,0,0,.459,2.148,1.529,1.529,0,0,0,1.357.684q1.758,0,1.8-2.705v-.332q0-2.842-1.816-2.842-1.65,0-1.787,2.451ZM99.2,10.434l.107,1.24a3.583,3.583,0,0,1,3.018-1.436,3.015,3.015,0,0,1,2.466.986,4.7,4.7,0,0,1,.845,2.969V21h-3.3V14.33a1.783,1.783,0,0,0-.322-1.177,1.491,1.491,0,0,0-1.172-.376,1.569,1.569,0,0,0-1.436.762V21H96.113V10.434ZM112.568,21.2a5.432,5.432,0,0,1-3.936-1.45,5.008,5.008,0,0,1-1.5-3.774V15.7a6.489,6.489,0,0,1,.6-2.861,4.395,4.395,0,0,1,1.753-1.919,5.292,5.292,0,0,1,2.734-.679,4.574,4.574,0,0,1,3.516,1.382,5.43,5.43,0,0,1,1.289,3.853v1.279h-6.543a2.372,2.372,0,0,0,.771,1.4,2.3,2.3,0,0,0,1.543.508,2.958,2.958,0,0,0,2.441-1.094l1.5,1.777A4.2,4.2,0,0,1,115,20.692,5.891,5.891,0,0,1,112.568,21.2Zm-.371-8.418q-1.445,0-1.719,1.914h3.32v-.254a1.63,1.63,0,0,0-.4-1.226A1.593,1.593,0,0,0,112.2,12.777Zm11.68,5.254a.76.76,0,0,0-.439-.674,6.684,6.684,0,0,0-1.67-.527,7.615,7.615,0,0,1-2.031-.718,3.4,3.4,0,0,1-1.221-1.079,2.577,2.577,0,0,1-.42-1.455,2.92,2.92,0,0,1,1.2-2.4,4.948,4.948,0,0,1,3.145-.942,5.482,5.482,0,0,1,3.359.947,2.962,2.962,0,0,1,1.27,2.49h-3.3q0-1.27-1.338-1.27a1.326,1.326,0,0,0-.869.288.892.892,0,0,0-.352.718.819.819,0,0,0,.43.713,4.06,4.06,0,0,0,1.372.449,11.857,11.857,0,0,1,1.655.42,3.007,3.007,0,0,1,2.383,2.939,2.767,2.767,0,0,1-1.284,2.354,5.631,5.631,0,0,1-3.325.908,5.747,5.747,0,0,1-2.422-.488,4.05,4.05,0,0,1-1.66-1.328,3.007,3.007,0,0,1-.6-1.768h3.076a1.272,1.272,0,0,0,.488,1.069,2.009,2.009,0,0,0,1.2.337,1.58,1.58,0,0,0,1.011-.273A.875.875,0,0,0,123.877,18.031Z" transform="translate(198.846 6295.001)"/>
  </g>
</svg>
