<svg xmlns="http://www.w3.org/2000/svg" width="88.592" height="88.665" viewBox="0 0 88.592 88.665">
  <g id="ubicacion-del-mapa" transform="translate(-14.993 -14.901)">
    <path id="Trazado_212646" data-name="Trazado 212646" d="M39.485,26.98s1.336,4.962,5.183,5.192c0,0-5.135,1.774-5.222,5.567,0,0-1.011-5.32-5.066-5.511,0,0,4.724-.716,5.105-5.248Z" transform="translate(-11.788 -7.344)" fill="#ffc200"/>
    <path id="Trazado_212647" data-name="Trazado 212647" d="M38.534,37.415a.588.588,0,0,1-.577-.477c-.009-.049-.978-4.867-4.516-5.034a.588.588,0,0,1-.061-1.169c.173-.027,4.27-.712,4.607-4.717a.588.588,0,0,1,1.153-.1c.013.045,1.277,4.557,4.65,4.759a.588.588,0,0,1,.158,1.143c-.047.016-4.75,1.689-4.826,5.025a.588.588,0,0,1-.539.572ZM35.5,31.25a6.852,6.852,0,0,1,2.974,3.479,8.356,8.356,0,0,1,3.508-3.3,7.176,7.176,0,0,1-3.266-3.419A6.313,6.313,0,0,1,35.5,31.25Z" transform="translate(-10.876 -6.433)" fill="#3a312a"/>
    <path id="Trazado_212648" data-name="Trazado 212648" d="M20.1,43.96s.945,3.51,3.666,3.672c0,0-3.632,1.255-3.693,3.938,0,0-.715-3.763-3.583-3.9,0,0,3.341-.506,3.611-3.712Z" transform="translate(-0.912 -17.669)" fill="#ffc200"/>
    <path id="Trazado_212649" data-name="Trazado 212649" d="M19.164,51.245a.588.588,0,0,1-.577-.478c-.006-.032-.668-3.309-3.034-3.42a.588.588,0,0,1-.06-1.169A3.683,3.683,0,0,0,18.606,43a.588.588,0,0,1,1.153-.1c.009.031.873,3.1,3.133,3.24a.588.588,0,0,1,.157,1.143c-.032.011-3.246,1.157-3.3,3.4a.588.588,0,0,1-.539.573l-.049,0Zm-1.771-4.519a5.026,5.026,0,0,1,1.743,2.07,6.14,6.14,0,0,1,2.1-1.949A5.249,5.249,0,0,1,19.3,44.8,4.69,4.69,0,0,1,17.393,46.727Z" transform="translate(0 -16.756)" fill="#3a312a"/>
    <path id="Trazado_212650" data-name="Trazado 212650" d="M20.1,17.3s.945,3.51,3.666,3.672c0,0-3.632,1.255-3.693,3.937,0,0-.715-3.763-3.583-3.9,0,0,3.341-.506,3.611-3.712Z" transform="translate(-0.912 -1.46)" fill="#ffc200"/>
    <path id="Trazado_212651" data-name="Trazado 212651" d="M19.165,24.588a.588.588,0,0,1-.577-.478c-.006-.032-.668-3.309-3.033-3.42a.588.588,0,0,1-.06-1.169,3.683,3.683,0,0,0,3.113-3.18.588.588,0,0,1,1.153-.1c.009.031.873,3.1,3.133,3.239a.588.588,0,0,1,.157,1.143c-.032.011-3.246,1.157-3.3,3.4a.588.588,0,0,1-.539.573Zm-1.771-4.518a5.025,5.025,0,0,1,1.743,2.069,6.14,6.14,0,0,1,2.1-1.949A5.249,5.249,0,0,1,19.3,18.143,4.693,4.693,0,0,1,17.394,20.069Z" transform="translate(-0.001 -0.547)" fill="#3a312a"/>
    <path id="Trazado_212652" data-name="Trazado 212652" d="M16.507,115.391v23.662l21.856-10.476V74.233L16.507,84.709v30.683Z" transform="translate(-0.921 -36.075)" fill="#fff" fill-rule="evenodd"/>
    <path id="Trazado_212653" data-name="Trazado 212653" d="M15.595,138.729a.588.588,0,0,1-.588-.588V114.48a.588.588,0,1,1,1.176,0v22.728L36.864,127.3V74.255L16.183,84.167v24.318a.588.588,0,1,1-1.176,0V83.8a.588.588,0,0,1,.334-.53L37.2,72.791a.588.588,0,0,1,.842.53v54.344a.587.587,0,0,1-.334.53L15.849,138.672a.592.592,0,0,1-.254.058Z" transform="translate(-0.009 -35.164)" fill="#3a312a"/>
    <path id="Trazado_212654" data-name="Trazado 212654" d="M72.266,128.577l21.857,10.476V84.709L72.266,74.233Z" transform="translate(-34.823 -36.075)" fill="#fff" fill-rule="evenodd"/>
    <path id="Trazado_212655" data-name="Trazado 212655" d="M93.211,138.729a.589.589,0,0,1-.254-.058L71.1,128.2a.587.587,0,0,1-.334-.53V73.321a.588.588,0,0,1,.842-.53L93.466,83.266a.588.588,0,0,1,.334.53v54.344a.588.588,0,0,1-.588.588ZM71.943,127.295l20.68,9.912V84.166l-20.68-9.911Z" transform="translate(-33.912 -35.163)" fill="#3a312a"/>
    <path id="Trazado_212656" data-name="Trazado 212656" d="M149.844,128.577l-21.856,10.476V84.709l21.856-10.476Z" transform="translate(-68.704 -36.075)" fill="#fff" fill-rule="evenodd"/>
    <path id="Trazado_212657" data-name="Trazado 212657" d="M127.076,138.729a.587.587,0,0,1-.588-.588V83.8a.588.588,0,0,1,.334-.53L148.678,72.79a.588.588,0,0,1,.842.53v54.344a.587.587,0,0,1-.334.53L127.33,138.671a.587.587,0,0,1-.254.058Zm.588-54.562v53.04l20.68-9.912V74.255Zm21.268,43.5h0Z" transform="translate(-67.792 -35.163)" fill="#3a312a"/>
    <path id="Trazado_212658" data-name="Trazado 212658" d="M183.747,128.577,205.6,139.053V84.709L183.747,74.233Z" transform="translate(-102.607 -36.075)" fill="#fff" fill-rule="evenodd"/>
    <path id="Trazado_212659" data-name="Trazado 212659" d="M204.692,138.729a.589.589,0,0,1-.254-.058L182.581,128.2a.587.587,0,0,1-.334-.53V73.321a.588.588,0,0,1,.842-.53l21.857,10.476a.588.588,0,0,1,.334.53v54.344a.588.588,0,0,1-.588.588Zm-21.269-11.434,20.681,9.912V84.166l-20.681-9.912Z" transform="translate(-101.695 -35.163)" fill="#3a312a"/>
    <path id="Trazado_212660" data-name="Trazado 212660" d="M167.666,49.923c2.749,4.227,5.461,7.885,6.78,9.621a1.038,1.038,0,0,0,1.654,0c3.231-4.254,14.831-20.043,14.831-27.486a15.658,15.658,0,1,0-31.316,0c0,3.284,2.259,8.193,5.061,13.019Z" transform="translate(-87.934 -0.911)" fill="#f16c7a"/>
    <path id="Trazado_212661" data-name="Trazado 212661" d="M174.361,59.631a1.613,1.613,0,0,1-1.3-.643c-1.364-1.8-4.062-5.438-6.8-9.656a.588.588,0,1,1,.985-.641c2.723,4.187,5.4,7.8,6.755,9.586a.465.465,0,0,0,.718,0C185.566,44,189.431,34.9,189.431,31.146a15.07,15.07,0,0,0-30.139,0c0,2.749,1.676,7.03,4.981,12.724a.588.588,0,0,1-1.017.59c-3.411-5.876-5.14-10.356-5.14-13.315a16.246,16.246,0,0,1,32.491,0c0,7.571-11.443,23.225-14.951,27.842a1.613,1.613,0,0,1-1.3.642Z" transform="translate(-87.022)" fill="#3a312a"/>
    <circle id="Elipse_5614" data-name="Elipse 5614" cx="6.927" cy="6.927" r="6.927" transform="translate(78.301 27.377) rotate(-22.514)" fill="#fce8cb"/>
    <g id="Grupo_132591" data-name="Grupo 132591" transform="translate(48.907 23.631)">
      <path id="Trazado_212662" data-name="Trazado 212662" d="M187.9,52.2a7.515,7.515,0,1,1,7.515-7.515A7.524,7.524,0,0,1,187.9,52.2Zm0-13.855a6.339,6.339,0,1,0,6.339,6.339A6.347,6.347,0,0,0,187.9,38.349Z" transform="translate(-149.472 -37.173)" fill="#3a312a"/>
      <path id="Trazado_212663" data-name="Trazado 212663" d="M102.1,146.875a.567.567,0,0,1-.057,0,.588.588,0,0,1-.529-.642,9.951,9.951,0,0,1,.552-2.433.588.588,0,1,1,1.1.4,8.759,8.759,0,0,0-.487,2.145A.588.588,0,0,1,102.1,146.875Z" transform="translate(-101.515 -101.767)" fill="#3a312a"/>
      <path id="Trazado_212664" data-name="Trazado 212664" d="M192.285,170.016a.588.588,0,0,1-.086-1.169,11.206,11.206,0,0,0,4.42-1.6.588.588,0,1,1,.633.991,12.368,12.368,0,0,1-4.88,1.776.551.551,0,0,1-.087.007Z" transform="translate(-156.349 -116.202)" fill="#3a312a"/>
      <path id="Trazado_212665" data-name="Trazado 212665" d="M172.526,169.372a.609.609,0,0,1-.118-.012,14.084,14.084,0,0,1-1.758-.479,13.531,13.531,0,0,1-3.03-1.481.588.588,0,1,1,.643-.984,12.366,12.366,0,0,0,2.77,1.354,12.9,12.9,0,0,0,1.61.438.588.588,0,0,1-.117,1.164Z" transform="translate(-141.547 -115.698)" fill="#3a312a"/>
      <path id="Trazado_212666" data-name="Trazado 212666" d="M212.7,152.6a.588.588,0,0,1-.518-.865,10.121,10.121,0,0,0,.79-1.956,8.883,8.883,0,0,0,.34-2.464v-.08l1.176-.009v.089a10.044,10.044,0,0,1-.386,2.79,11.223,11.223,0,0,1-.883,2.185.587.587,0,0,1-.519.31Z" transform="translate(-168.762 -104.087)" fill="#3a312a"/>
      <path id="Trazado_212667" data-name="Trazado 212667" d="M154.083,152.675a.586.586,0,0,1-.452-.212,46.179,46.179,0,0,1-2.957-4.089.588.588,0,1,1,.98-.65,45.394,45.394,0,0,0,2.881,3.986.588.588,0,0,1-.452.964Z" transform="translate(-131.345 -104.231)" fill="#3a312a"/>
      <path id="Trazado_212668" data-name="Trazado 212668" d="M137.883,133.369a.586.586,0,0,1-.449-.208,11.7,11.7,0,0,0-3.612-3.028.588.588,0,0,1,.526-1.052,12.825,12.825,0,0,1,3.984,3.32.588.588,0,0,1-.449.968Z" transform="translate(-120.96 -93.017)" fill="#3a312a"/>
      <path id="Trazado_212669" data-name="Trazado 212669" d="M110.527,130.714a.588.588,0,0,1-.392-1.027,9.847,9.847,0,0,1,4.67-2.375.588.588,0,0,1,.22,1.155,8.786,8.786,0,0,0-4.108,2.1A.585.585,0,0,1,110.527,130.714Z" transform="translate(-106.637 -91.974)" fill="#3a312a"/>
      <path id="Trazado_212670" data-name="Trazado 212670" d="M209.986,132.027a.587.587,0,0,1-.5-.277,5.933,5.933,0,0,0-1.418-1.589.588.588,0,0,1,.715-.934,7.1,7.1,0,0,1,1.7,1.9.589.589,0,0,1-.5.9Z" transform="translate(-166.162 -93.071)" fill="#3a312a"/>
    </g>
    <path id="Trazado_212671" data-name="Trazado 212671" d="M223.7,95.551c-.227.372-.459.745-.686,1.113v51.6l5.88,2.818V98.04Z" transform="translate(-126.479 -49.037)" fill="#e7e7e7"/>
    <path id="Trazado_212672" data-name="Trazado 212672" d="M195,17.9a15.136,15.136,0,0,0-2.94.286,15.1,15.1,0,0,1,12.132,14.781c0,3.442-3.246,11.363-12.128,23.652.811,1.121,1.67,2.285,2.579,3.481a.462.462,0,0,0,.717,0c10.846-14.28,14.711-23.377,14.711-27.133A15.088,15.088,0,0,0,195,17.9Z" transform="translate(-107.661 -1.824)" fill="#d34e5c"/>
    <path id="Trazado_212673" data-name="Trazado 212673" d="M73.358,165.867h-20.8a.683.683,0,0,1-.592-1.024l5.6-9.707h0l4.8-8.308a.684.684,0,0,1,1.184,0l4.814,8.337,5.587,9.678a.683.683,0,0,1-.592,1.025Z" transform="translate(-22.423 -80.007)" fill="#d7e057"/>
    <path id="Trazado_212674" data-name="Trazado 212674" d="M72.445,165.543h-20.8a1.271,1.271,0,0,1-1.1-1.907l5.6-9.706.018-.029,4.779-8.279a1.272,1.272,0,0,1,2.2,0l10.4,18.016a1.271,1.271,0,0,1-1.1,1.906Zm-15.3-11-5.586,9.678a.087.087,0,0,0,0,.094.09.09,0,0,0,.083.048h20.8a.09.09,0,0,0,.083-.048.087.087,0,0,0,0-.094l-10.4-18.016a.1.1,0,0,0-.166,0l-4.8,8.307c-.005.011-.012.02-.018.029Z" transform="translate(-21.511 -79.095)" fill="#3a312a"/>
    <path id="Trazado_212675" data-name="Trazado 212675" d="M77.2,155.165a2.107,2.107,0,0,0-.825.513,2.133,2.133,0,0,1-3.017,0,2.133,2.133,0,0,0-3.017,0,2.132,2.132,0,0,1-3.015,0,2.12,2.12,0,0,0-.92-.543h0l4.8-8.308a.684.684,0,0,1,1.184,0Z" transform="translate(-31.259 -80.008)" fill="#8ac6dd"/>
    <path id="Trazado_212676" data-name="Trazado 212676" d="M73.955,155.978a2.7,2.7,0,0,1-1.925-.8,1.582,1.582,0,0,0-2.184,0,2.72,2.72,0,0,1-3.847,0,1.518,1.518,0,0,0-.66-.392.588.588,0,0,1-.354-.861l4.8-8.308a1.271,1.271,0,0,1,2.2,0l4.814,8.338a.588.588,0,0,1-.322.851,1.511,1.511,0,0,0-.6.37A2.7,2.7,0,0,1,73.955,155.978Zm-3.017-2.426a2.7,2.7,0,0,1,1.925.8,1.545,1.545,0,0,0,2.184,0,2.686,2.686,0,0,1,.42-.345l-4.5-7.8a.1.1,0,0,0-.166,0l-4.471,7.743a2.72,2.72,0,0,1,.5.4,1.582,1.582,0,0,0,2.183,0A2.7,2.7,0,0,1,70.938,153.552Z" transform="translate(-30.348 -79.094)" fill="#3a312a"/>
    <path id="Trazado_212677" data-name="Trazado 212677" d="M45.637,174.268,44.176,176.8a.42.42,0,0,0,.364.63h12.8a.42.42,0,0,0,.364-.63l-3.438-5.956-2.963-5.131a.421.421,0,0,0-.729,0l-2.952,5.113h0l-.991,1.716Z" transform="translate(-17.709 -91.569)" fill="#d7e057"/>
    <path id="Trazado_212678" data-name="Trazado 212678" d="M56.429,177.1h-12.8a1.008,1.008,0,0,1-.873-1.513l1.46-2.53,1.987-3.444.016-.027,2.936-5.086a1,1,0,0,1,.873-.5h0a1,1,0,0,1,.873.5l6.4,11.088a1.009,1.009,0,0,1-.873,1.513Zm-12.656-.925Zm.145-.251H56.138l-6.111-10.584-2.807,4.862-.016.027Z" transform="translate(-16.796 -90.656)" fill="#3a312a"/>
    <path id="Trazado_212679" data-name="Trazado 212679" d="M59.706,170.842a1.3,1.3,0,0,0-.508.316,1.313,1.313,0,0,1-1.856,0,1.313,1.313,0,0,0-1.856,0,1.312,1.312,0,0,1-1.856,0,1.308,1.308,0,0,0-.566-.334h0l2.952-5.113a.421.421,0,0,1,.729,0Z" transform="translate(-23.148 -91.569)" fill="#8ac6dd"/>
    <path id="Trazado_212680" data-name="Trazado 212680" d="M57.359,171.219a1.885,1.885,0,0,1-1.344-.557.743.743,0,0,0-1.024,0,1.9,1.9,0,0,1-2.687,0A.711.711,0,0,0,52,170.48a.588.588,0,0,1-.353-.861l2.952-5.113a1,1,0,0,1,.873-.5h0a1,1,0,0,1,.873.5l2.963,5.131a.588.588,0,0,1-.321.851.711.711,0,0,0-.279.174A1.885,1.885,0,0,1,57.359,171.219ZM55.5,169.274a1.885,1.885,0,0,1,1.344.557.742.742,0,0,0,1.023,0c.039-.04.08-.077.123-.113l-2.525-4.374-2.5,4.335a1.99,1.99,0,0,1,.17.151.742.742,0,0,0,1.024,0A1.887,1.887,0,0,1,55.5,169.274Z" transform="translate(-22.236 -90.657)" fill="#3a312a"/>
    <path id="Trazado_212681" data-name="Trazado 212681" d="M90.438,174.021H75.279a.5.5,0,0,1-.432-.746l4.084-7.074h0l3.5-6.054a.5.5,0,0,1,.863,0l3.508,6.076,4.071,7.053A.5.5,0,0,1,90.438,174.021Z" transform="translate(-36.352 -88.161)" fill="#d7e057"/>
    <path id="Trazado_212682" data-name="Trazado 212682" d="M89.525,173.7H74.366a1.085,1.085,0,0,1-.94-1.629l4.083-7.074.016-.027L81,158.939a1.086,1.086,0,0,1,1.88,0l7.58,13.13a1.085,1.085,0,0,1-.94,1.628Zm-.078-1.04h0Zm-14.926-.136H89.369l-7.424-12.859-3.417,5.92-.016.027Z" transform="translate(-35.439 -87.249)" fill="#3a312a"/>
    <path id="Trazado_212683" data-name="Trazado 212683" d="M93.237,166.222a1.541,1.541,0,0,0-.6.374,1.554,1.554,0,0,1-2.2,0,1.554,1.554,0,0,0-2.2,0,1.553,1.553,0,0,1-2.2,0,1.543,1.543,0,0,0-.671-.4h0l3.5-6.054a.5.5,0,0,1,.863,0Z" transform="translate(-42.791 -88.161)" fill="#8ac6dd"/>
    <path id="Trazado_212684" data-name="Trazado 212684" d="M90.625,166.726a2.124,2.124,0,0,1-1.516-.629.99.99,0,0,0-1.366,0,2.141,2.141,0,0,1-3.029,0,.951.951,0,0,0-.412-.244.588.588,0,0,1-.353-.861l3.5-6.055a1.086,1.086,0,0,1,1.88,0l3.509,6.077a.588.588,0,0,1-.322.851.95.95,0,0,0-.372.231A2.121,2.121,0,0,1,90.625,166.726Zm-2.2-2.087a2.125,2.125,0,0,1,1.515.628.989.989,0,0,0,1.366,0,2.068,2.068,0,0,1,.209-.184l-3.131-5.422-3.106,5.379a2.113,2.113,0,0,1,.266.226.988.988,0,0,0,1.365,0,2.13,2.13,0,0,1,1.516-.628Z" transform="translate(-41.879 -87.248)" fill="#3a312a"/>
  </g>
</svg>
