<svg xmlns="http://www.w3.org/2000/svg" width="241.732" height="46.798" viewBox="0 0 241.732 46.798">
  <g id="Grupo_137691" data-name="Grupo 137691" transform="translate(-796.57 -7109.998)">
    <g id="Sustracci贸n_2" data-name="Sustracci贸n 2" transform="translate(796.57 7109.998)" fill="none">
      <path d="M210.985,17.241H30.745L0,0H241.732Z" stroke="none"/>
      <path d="M 210.2011260986328 14.2412052154541 L 230.2481079101562 3.000005483627319 L 11.48298835754395 3.000005483627319 L 31.52837753295898 14.2412052154541 L 210.2011260986328 14.2412052154541 M 210.98486328125 17.2412052154541 L 210.9833984375 17.2412052154541 L 210.9843597412109 17.2412052154541 L 30.74463272094727 17.2412052154541 L 1.30208320570091e-07 5.468749805004336e-06 L 241.73193359375 5.468749805004336e-06 L 210.98486328125 17.2412052154541 Z" stroke="none" fill="#623e2a"/>
    </g>
    <g id="Sustracci贸n_4" data-name="Sustracci贸n 4" transform="translate(796.57 7139.555)" fill="none">
      <path d="M210.985,0H30.745L0,17.241H241.732Z" stroke="none"/>
      <path d="M 31.52836608886719 2.999987602233887 L 11.48294067382812 14.24125385284424 L 230.2483978271484 14.24125385284424 L 210.2013854980469 2.999987602233887 L 31.52836608886719 2.999987602233887 M 30.74462890625 -1.33514404296875e-05 L 210.9843139648438 -1.33514404296875e-05 L 210.9835205078125 -1.33514404296875e-05 L 210.9851226806641 -1.33514404296875e-05 L 241.7321929931641 17.24125480651855 L -1.52587890625e-05 17.24125480651855 L 30.74462890625 -1.33514404296875e-05 Z" stroke="none" fill="#623e2a"/>
    </g>
  </g>
</svg>
