<svg xmlns="http://www.w3.org/2000/svg" width="45" height="45.225" viewBox="0 0 45 45.225">
  <g id="coffee-beans" transform="translate(-0.473)">
    <g id="Grupo_130660" data-name="Grupo 130660" transform="translate(0 0)">
      <g id="Grupo_130659" data-name="Grupo 130659">
        <g id="Grupo_130658" data-name="Grupo 130658">
          <g id="Grupo_130657" data-name="Grupo 130657">
            <g id="Grupo_130656" data-name="Grupo 130656">
              <g id="Grupo_130655" data-name="Grupo 130655">
                <g id="XMLID_993_">
                  <g id="XMLID_994_">
                    <g id="XMLID_995_">
                      <g id="XMLID_996_">
                        <g id="XMLID_997_">
                          <g id="XMLID_998_">
                            <g id="XMLID_999_">
                              <g id="XMLID_1000_">
                                <g id="XMLID_1001_">
                                  <g id="XMLID_1002_">
                                    <g id="XMLID_1003_">
                                      <g id="XMLID_1004_">
                                        <g id="XMLID_1005_">
                                          <g id="XMLID_1006_">
                                            <g id="XMLID_1007_">
                                              <circle id="Elipse_5547" data-name="Elipse 5547" cx="22.5" cy="22.5" r="22.5" transform="translate(0.473)" fill="#ddc385"/>
                                            </g>
                                          </g>
                                        </g>
                                      </g>
                                    </g>
                                  </g>
                                </g>
                              </g>
                            </g>
                          </g>
                        </g>
                      </g>
                    </g>
                  </g>
                </g>
              </g>
            </g>
          </g>
        </g>
      </g>
    </g>
    <path id="Trazado_203797" data-name="Trazado 203797" d="M141.958,124.214c0-.019,0-.039,0-.058l-5.5-5.5-6.1,5.428L117.73,111.451l-11.608,20.631,14.689,14.689A22.6,22.6,0,0,0,141.958,124.214Z" transform="translate(-96.752 -101.545)" fill="#b49b62"/>
    <g id="Grupo_130671" data-name="Grupo 130671" transform="translate(5.042 6.891)">
      <g id="Grupo_130665" data-name="Grupo 130665" transform="translate(14.271 6.89)">
        <path id="Trazado_203798" data-name="Trazado 203798" d="M237.473,173c-3.59,4.815-9.081,7.017-13.29,5.673-.785-.251-.634-1.821-1.309-2.324-.276-.205-1.425.768-1.665.532-3.508-3.459-3.279-10.133.708-15.479,4.024-5.4,10.435-7.51,14.755-5.028.253.146-.155,1.184.082,1.361.683.509,1.912.242,2.379.933,2.471,3.652,1.923,9.529-1.659,14.333Z" transform="translate(-218.741 -155.342)" fill="#915f3d"/>
        <path id="Trazado_203799" data-name="Trazado 203799" d="M280.148,197.723c-3.59,4.815-9.081,7.017-13.29,5.673-.785-.251-.634-1.821-1.31-2.324l13.879-18.615c.683.509,1.912.243,2.379.934C284.279,187.043,283.73,192.919,280.148,197.723Z" transform="translate(-261.416 -180.063)" fill="#6d4225"/>
        <g id="Grupo_130662" data-name="Grupo 130662" transform="translate(2.467 1.033)">
          <g id="Grupo_130661" data-name="Grupo 130661">
            <path id="Trazado_203800" data-name="Trazado 203800" d="M252.5,183.359a2.684,2.684,0,0,0-1.828,1.926l-1.013,4.057a7.45,7.45,0,0,1-2.975-1.793l.721-2.891a6.419,6.419,0,0,1,4.37-4.6l2.72-.8a2.684,2.684,0,0,0,1.9-2.669l-.084-1.786a6.449,6.449,0,0,1,2.651-5.436l3.181-2.318a7.443,7.443,0,0,1,2.462,2.295l-3.814,2.78a2.7,2.7,0,0,0-1.109,2.275l.083,1.787a6.415,6.415,0,0,1-4.549,6.377Z" transform="translate(-246.687 -167.042)" fill="#51351f"/>
          </g>
        </g>
        <g id="Grupo_130664" data-name="Grupo 130664" transform="translate(3.241 1.517)">
          <g id="Grupo_130663" data-name="Grupo 130663">
            <path id="Trazado_203801" data-name="Trazado 203801" d="M260.494,188.357a2.684,2.684,0,0,0-1.828,1.926l-1.013,4.057a7.488,7.488,0,0,1-2.2-1.129l6.582-8.828.455-.135a2.684,2.684,0,0,0,1.9-2.669l-.016-.338,6.5-8.718a7.463,7.463,0,0,1,1.725,1.811l-3.814,2.78a2.7,2.7,0,0,0-1.109,2.275l.083,1.787a6.415,6.415,0,0,1-4.549,6.377Z" transform="translate(-255.452 -172.524)" fill="#331d0e"/>
          </g>
        </g>
      </g>
      <g id="Grupo_130670" data-name="Grupo 130670">
        <path id="Trazado_203802" data-name="Trazado 203802" d="M76.512,90.737c0,6.006-3.086,11.053-7.263,12.492-.779.268-1.6-1.081-2.439-1.081-.344,0-.683,1.468-1.017,1.422-4.88-.676-8.685-6.164-8.685-12.833,0-6.731,3.877-12.259,8.823-12.85.29-.034.583,1.042.879,1.042.852,0,1.678-.949,2.466-.674C73.44,79.705,76.512,84.744,76.512,90.737Z" transform="translate(-57.107 -77.835)" fill="#915f3d"/>
        <path id="Trazado_203803" data-name="Trazado 203803" d="M176.7,94.031c0,6.006-3.086,11.053-7.263,12.492-.779.268-1.6-1.081-2.439-1.081V82.222c.852,0,1.678-.948,2.465-.674C173.629,83,176.7,88.038,176.7,94.031Z" transform="translate(-157.296 -81.128)" fill="#6d4225"/>
        <g id="Grupo_130667" data-name="Grupo 130667" transform="translate(7.034)">
          <g id="Grupo_130666" data-name="Grupo 130666">
            <path id="Trazado_203804" data-name="Trazado 203804" d="M140.587,96.2a2.684,2.684,0,0,0-.314,2.637l1.613,3.858a7.452,7.452,0,0,1-3.457.341l-1.15-2.749a6.419,6.419,0,0,1,.752-6.3l1.7-2.271a2.684,2.684,0,0,0-.069-3.277l-1.135-1.382a6.449,6.449,0,0,1-1.124-5.942l1.164-3.76a7.444,7.444,0,0,1,3.345.368l-1.4,4.508a2.7,2.7,0,0,0,.471,2.486l1.135,1.383a6.415,6.415,0,0,1,.165,7.832Z" transform="translate(-136.778 -77.304)" fill="#51351f"/>
          </g>
        </g>
        <g id="Grupo_130669" data-name="Grupo 130669" transform="translate(9.703)">
          <g id="Grupo_130668" data-name="Grupo 130668">
            <path id="Trazado_203805" data-name="Trazado 203805" d="M168.138,96.2a2.684,2.684,0,0,0-.314,2.637l1.613,3.858a7.487,7.487,0,0,1-2.439.411V92.1l.284-.38a2.684,2.684,0,0,0-.069-3.277L167,88.178V77.3a7.462,7.462,0,0,1,2.465.42l-1.4,4.508a2.7,2.7,0,0,0,.471,2.486l1.135,1.383a6.415,6.415,0,0,1,.165,7.832Z" transform="translate(-166.998 -77.304)" fill="#331d0e"/>
          </g>
        </g>
      </g>
    </g>
  </g>
</svg>
