<svg id="Grupo_131384" data-name="Grupo 131384" xmlns="http://www.w3.org/2000/svg" xmlns:xlink="http://www.w3.org/1999/xlink" width="36" height="41.333" viewBox="0 0 36 41.333">
  <defs>
    <clipPath id="clip-path">
      <rect id="Rectángulo_42687" data-name="Rectángulo 42687" width="36" height="41.333" fill="none"/>
    </clipPath>
  </defs>
  <g id="Grupo_131377" data-name="Grupo 131377" transform="translate(0 0)" clip-path="url(#clip-path)">
    <path id="Trazado_205847" data-name="Trazado 205847" d="M16.7,45.388c2.487,0,4.519-2.5,4.653-5.653h.007a10.583,10.583,0,0,1,4.52-1.013h.306a10.61,10.61,0,0,1,9.846,6.666Z" transform="translate(-2.037 -4.722)" fill="#b27946"/>
    <path id="Trazado_205848" data-name="Trazado 205848" d="M32.667,32.648H38a5.327,5.327,0,0,1-5.333,5.333H27.334a5.327,5.327,0,0,1,5.333-5.333" transform="translate(-3.333 -3.981)" fill="#a0d468"/>
    <path id="Trazado_205849" data-name="Trazado 205849" d="M20.7,4.76a4,4,0,0,1-3.173,3.913c-.267-.213-.54-.427-.826-.647V4.76a4,4,0,0,1,4-4Z" transform="translate(-2.037 -0.093)" fill="#a0d468"/>
    <path id="Trazado_205850" data-name="Trazado 205850" d="M25.693,29.629H20.519A5.327,5.327,0,0,1,15.186,24.3h5.333a5.349,5.349,0,0,1,5.06,3.626v.007c.047.547.08,1.113.113,1.7" transform="translate(-1.852 -2.963)" fill="#b4dd7f"/>
    <path id="Trazado_205851" data-name="Trazado 205851" d="M31.184,18.222h5.333a5.327,5.327,0,0,1-5.333,5.333H26.451q-.14-.86-.34-1.66a5.341,5.341,0,0,1,5.073-3.673" transform="translate(-3.184 -2.222)" fill="#b4dd7f"/>
    <path id="Trazado_205852" data-name="Trazado 205852" d="M13.112,6.833v4a4,4,0,0,1-4,4v-4a4,4,0,0,1,4-4" transform="translate(-1.111 -0.833)" fill="#b4dd7f"/>
    <path id="Trazado_205853" data-name="Trazado 205853" d="M12.556,6.092H9.889A5.332,5.332,0,0,1,4.556.759H7.223a5.332,5.332,0,0,1,5.333,5.333" transform="translate(-0.556 -0.092)" fill="#b4dd7f"/>
    <path id="Trazado_205854" data-name="Trazado 205854" d="M24.019,10.629a2,2,0,1,1,0,4,2.079,2.079,0,0,1-.407-.04,2,2,0,0,1-1.594-1.96.662.662,0,0,1,.013-.161,1.984,1.984,0,0,1,1.987-1.84" transform="translate(-2.685 -1.296)" fill="#ff826e"/>
    <path id="Trazado_205855" data-name="Trazado 205855" d="M24.613,18.652a1.954,1.954,0,0,1-1.353.533,2,2,0,0,1-2-2,2.079,2.079,0,0,1,.192-.86,2,2,0,0,1,1.808-1.14,1.643,1.643,0,0,1,.253.019,1.993,1.993,0,0,1,1.747,1.981,1.967,1.967,0,0,1-.647,1.466" transform="translate(-2.593 -1.852)" fill="#ff826e"/>
    <path id="Trazado_205856" data-name="Trazado 205856" d="M20.222,12.148a2,2,0,0,1,1.333.507h.014a.616.616,0,0,0-.014.16,2,2,0,0,0,1.594,1.96l-.007.061a1.527,1.527,0,0,0-.253-.02,2,2,0,0,0-1.807,1.14,1.962,1.962,0,0,1-.86.193,2,2,0,1,1,0-4" transform="translate(-2.222 -1.481)" fill="#ff826e"/>
    <path id="Trazado_205857" data-name="Trazado 205857" d="M10.3,35.292a3.068,3.068,0,0,1,.42.514c-1.366,1.293-2.293.42-3.68,1.806-1.42,1.414-.473,2.36-1.887,3.774-1.393,1.386-2.326.506-3.693,1.806C.16,41.319.7,38.345,2.82,36.226c2.327-2.327,5.673-2.747,7.48-.933" transform="translate(-0.093 -4.166)" fill="#cf9e76"/>
    <path id="Trazado_205858" data-name="Trazado 205858" d="M10.817,36.034l.007.007a7.5,7.5,0,0,0-.213,5.493A7.378,7.378,0,0,1,9.464,43a6.657,6.657,0,0,1-4.587,2.06,4,4,0,0,1-2.893-1.127,3.93,3.93,0,0,1-.427-.514c1.367-1.3,2.3-.42,3.693-1.806,1.414-1.414.467-2.36,1.887-3.773,1.386-1.387,2.314-.514,3.68-1.807" transform="translate(-0.19 -4.394)" fill="#cf9e76"/>
    <path id="Trazado_205859" data-name="Trazado 205859" d="M21.278,38.656a2.992,2.992,0,0,1-.013.347c-.133,3.153-2.167,5.653-4.654,5.653a3.667,3.667,0,0,1-.666-.06c.026-1.94,1.334-1.96,1.334-3.94,0-2-1.334-2-1.334-4,0-1.98,1.307-2,1.334-3.94,2.259.414,4,2.913,4,5.94" transform="translate(-1.945 -3.99)" fill="#d3a06c"/>
    <path id="Trazado_205860" data-name="Trazado 205860" d="M12.036,35.6a4.591,4.591,0,0,1,4.02-2.954,3.661,3.661,0,0,1,.666.061c-.026,1.94-1.333,1.96-1.333,3.94,0,2,1.333,2,1.333,4,0,1.98-1.307,2-1.333,3.941a4.985,4.985,0,0,1-3.58-3.467,7.5,7.5,0,0,1,.213-5.493.047.047,0,0,1,.013-.026" transform="translate(-1.389 -3.981)" fill="#d3a06c"/>
    <path id="Trazado_205861" data-name="Trazado 205861" d="M29.466,34.659a6,6,0,0,0,5.868-5.994V28h-6a5.983,5.983,0,0,0-4.7,2.28A64.508,64.508,0,0,0,24.059,22H28a6.007,6.007,0,0,0,6-6v-.666H28a5.986,5.986,0,0,0-4.891,2.523c-.1-.313-.21-.619-.324-.921a2.612,2.612,0,0,0-.095-3.319,2.659,2.659,0,1,0-3.747-3.443,2.673,2.673,0,0,0-.829-.162q-.615-.6-1.323-1.208a4.678,4.678,0,0,0,2.542-4.136V0h-.666A4.672,4.672,0,0,0,14,4.667V6.6q-.632-.462-1.333-.947v-.32h-.04A6.008,6.008,0,0,0,6.667,0H3.334V.666A6.007,6.007,0,0,0,8.773,6.638,4.652,4.652,0,0,0,7.334,10v4.666H8A4.672,4.672,0,0,0,12.668,10V7.282A41.584,41.584,0,0,1,16.6,10.41,2.66,2.66,0,0,0,18,15.333,2.67,2.67,0,0,0,20.668,18a2.634,2.634,0,0,0,1.017-.2,23.857,23.857,0,0,1,1.067,4.478,5.987,5.987,0,0,0-4.084-1.607h-6v.666a6.007,6.007,0,0,0,6,6H23.21c.084,1.8.117,3.8.121,6.028a11.117,11.117,0,0,0-3.357.668C19.717,30.651,17.435,28,14.667,28a5.018,5.018,0,0,0-4.157,2.5,4.85,4.85,0,0,0-3.931-1.12,7.52,7.52,0,0,0-4.324,2.207A7.534,7.534,0,0,0,.047,35.911,4.81,4.81,0,0,0,1.307,40H0v1.333H36V40H34.433a11.209,11.209,0,0,0-4.967-5.34m-.132-5.326h4.619a4.674,4.674,0,0,1-4.619,4H24.714a4.674,4.674,0,0,1,4.619-4M28,16.666H32.62a4.674,4.674,0,0,1-4.619,4H23.829q-.095-.479-.2-.94A4.648,4.648,0,0,1,28,16.666M21.334,10A1.333,1.333,0,1,1,20,11.333,1.334,1.334,0,0,1,21.334,10m-6-5.333A3.338,3.338,0,0,1,18,1.4V4.667a3.339,3.339,0,0,1-2.365,3.177c-.1-.078-.2-.157-.3-.235ZM4.714,1.333H6.667a4.673,4.673,0,0,1,4.619,4H9.334a4.674,4.674,0,0,1-4.619-4M11.334,10a3.338,3.338,0,0,1-2.667,3.265V10a3.339,3.339,0,0,1,2.667-3.266ZM18,14a1.333,1.333,0,1,1,.686-2.476,2.647,2.647,0,0,0,.623,1.527,2.668,2.668,0,0,0-.9.877A1.324,1.324,0,0,1,18,14m1.333,1.334a1.333,1.333,0,1,1,1.334,1.333,1.335,1.335,0,0,1-1.334-1.333M18.667,26a4.674,4.674,0,0,1-4.619-4h4.619a4.661,4.661,0,0,1,4.406,3.136c.023.282.042.572.061.864Zm0,8.667c0,2.905-1.753,5.273-3.923,5.328a2.941,2.941,0,0,1,.478-.959,4,4,0,0,0,0-4.741,2.672,2.672,0,0,1,0-3.26,4.135,4.135,0,0,0,.675-1.441,5.415,5.415,0,0,1,2.77,5.072M14.59,29.338a2.957,2.957,0,0,1-.477.957,3.995,3.995,0,0,0,0,4.74,2.676,2.676,0,0,1,0,3.261,4.122,4.122,0,0,0-.676,1.443,5.416,5.416,0,0,1-2.769-5.072c0-2.906,1.753-5.273,3.922-5.328m-4.9,7.691A6.8,6.8,0,0,1,8.8,38.135a6.2,6.2,0,0,1-3.546,1.827,3.533,3.533,0,0,1-2.927-.833,3.043,3.043,0,0,1,.974-.315A3.826,3.826,0,0,0,5.53,37.689a3.833,3.833,0,0,0,1.126-2.227,2.673,2.673,0,0,1,2.3-2.306c.169-.033.351-.072.543-.124a8.259,8.259,0,0,0-.169,1.633,8.108,8.108,0,0,0,.353,2.363m-8.316-.953A6.191,6.191,0,0,1,3.2,32.53,6.2,6.2,0,0,1,6.745,30.7a3.522,3.522,0,0,1,2.927.834,3.027,3.027,0,0,1-.973.313A4,4,0,0,0,5.348,35.2a2.522,2.522,0,0,1-.76,1.545,2.524,2.524,0,0,1-1.545.761,4.164,4.164,0,0,0-1.457.515,3.936,3.936,0,0,1-.215-1.947M8.644,40a8.311,8.311,0,0,0,1.1-.922c.194-.194.37-.4.544-.616A6.272,6.272,0,0,0,11.48,40H8.644Zm11.313-4.526a9.839,9.839,0,0,1,3.891-.807h.306A9.881,9.881,0,0,1,32.956,40h-15.1a7.136,7.136,0,0,0,2.1-4.526" transform="translate(0 0)"/>
    <rect id="Rectángulo_42685" data-name="Rectángulo 42685" width="1.333" height="1.333" transform="translate(26.667 37.333)"/>
    <rect id="Rectángulo_42686" data-name="Rectángulo 42686" width="1.333" height="1.333" transform="translate(20.667 37.333)"/>
  </g>
</svg>
