<svg xmlns="http://www.w3.org/2000/svg" xmlns:xlink="http://www.w3.org/1999/xlink" width="1328" height="450" viewBox="0 0 1328 450">
  <defs>
    <clipPath id="clip-path">
      <rect id="Rectángulo_42314" data-name="Rectángulo 42314" width="1328" height="450" transform="translate(136.285 1833)" fill="#fcdda2"/>
    </clipPath>
    <clipPath id="clip-path-2">
      <rect id="Rectángulo_42313" data-name="Rectángulo 42313" width="1384.527" height="522.002" fill="none"/>
    </clipPath>
  </defs>
  <g id="Grupo_137731" data-name="Grupo 137731" transform="translate(-136.285 -3707)">
    <rect id="Rectángulo_42312" data-name="Rectángulo 42312" width="1328" height="450" transform="translate(136.285 3707)" fill="#e8cba5"/>
    <g id="Enmascarar_grupo_143" data-name="Enmascarar grupo 143" transform="translate(0 1874)" opacity="0.3" clip-path="url(#clip-path)">
      <g id="Grupo_130632" data-name="Grupo 130632" transform="translate(82.021 1878)">
        <g id="Grupo_130631" data-name="Grupo 130631" clip-path="url(#clip-path-2)">
          <path id="Trazado_203725" data-name="Trazado 203725" d="M837.844,522c-1.625-48.441,12.248-99.713,26.127-123.362,28.462-48.5,87.648-125.156,164.288-93.75,36.992,15.166,52.8,47.637,68.085,79.041,12.249,25.164,24.915,51.186,48.472,67.211,21.7,14.766,67.858,27.389,104.569,22.041l.318,2.182c-37.239,5.426-84.083-7.4-106.128-22.4-24.042-16.356-36.839-42.647-49.216-68.072-15.1-31.032-30.723-63.118-66.937-77.963-31.951-13.1-63.95-8.28-95.106,14.309-29.3,21.242-52.3,54.421-66.443,78.516-13.721,23.381-27.435,74.145-25.823,122.17Z" fill="#a37855"/>
          <path id="Trazado_203726" data-name="Trazado 203726" d="M964.442,350.439a20.11,20.11,0,0,0-4.775,1.726c-4.25,2.19-8.286,7.4-8.792,12.233-.865,8.256,5.607,18.076,14.51,17.76,9.766-.345,24.3-10.574,18.709-21.362-1.946-3.751-4.8-7.344-8.614-9.317a16.417,16.417,0,0,0-11.038-1.04" fill="#a37855"/>
          <path id="Trazado_203727" data-name="Trazado 203727" d="M940.95,304.27a28.771,28.771,0,0,0-7.238.077c-6.747.95-14.624,6.06-17.577,12.33-5.041,10.7-.949,26.958,11.179,30.719,13.3,4.124,37.675-2.8,35.213-19.951-.855-5.962-3.006-12.139-7.211-16.588-3.627-3.836-8.97-5.969-14.366-6.587" fill="#b7b09a"/>
          <path id="Trazado_203728" data-name="Trazado 203728" d="M982.753,315.186a14.412,14.412,0,0,0-3.4,1.23c-3.029,1.561-5.9,5.273-6.265,8.718-.616,5.884,3.995,12.882,10.341,12.657,6.959-.248,17.321-7.535,13.332-15.223a15.182,15.182,0,0,0-6.138-6.642,11.717,11.717,0,0,0-7.867-.74" fill="#c9b36d"/>
          <path id="Trazado_203729" data-name="Trazado 203729" d="M1380.637,244.765c-10.324,10.544-13.483,25.872-16.436,39.8-4.437,20.929-10.089,48.719-35.439,52.462-11.364,1.677-22.845-.6-34.19-1.332-11.079-.713-23.694-.274-30.2,10.206-5.595,9.011-5.357,19.96-3.506,30.052,2.2,12.012,6.5,23.635,11.479,34.765h112.186V241.261a42.258,42.258,0,0,0-3.891,3.5" fill="#b7b09a"/>
          <path id="Trazado_203730" data-name="Trazado 203730" d="M1382.912,398.133a94.711,94.711,0,0,1-22.886-8.611,97.569,97.569,0,0,1-10.433-6.408,95.223,95.223,0,0,1-9.49-7.735,74.977,74.977,0,0,1-8.305-9.006c-1.313-1.577-2.4-3.32-3.549-5.011-1.04-1.762-2.114-3.506-3.011-5.344a91.022,91.022,0,0,1-4.821-11.233c-1.387-3.827-2.6-7.709-3.726-11.605-2.286-7.783-4.3-15.632-7.026-23.232a199.689,199.689,0,0,0-9.4-22.332c-3.712-7.145-8.079-14.05-13.853-19.685a56.542,56.542,0,0,0-4.505-4.007c-.8-.6-1.64-1.161-2.459-1.744l-1.235-.865-1.311-.744c-.878-.491-1.745-1-2.63-1.476l-2.759-1.219c-.463-.2-.915-.419-1.385-.6l-1.434-.467-2.871-.932.152-.572a47.289,47.289,0,0,1,20.952,12.1c5.888,5.677,10.339,12.628,14.122,19.8a200.832,200.832,0,0,1,9.578,22.388c2.8,7.643,4.858,15.5,7.185,23.248,1.149,3.878,2.374,7.728,3.77,11.511a89.778,89.778,0,0,0,4.822,11.054c.893,1.8,1.956,3.5,2.985,5.224,1.138,1.647,2.207,3.347,3.5,4.878a73.419,73.419,0,0,0,8.207,8.79,93.322,93.322,0,0,0,9.378,7.552,95.864,95.864,0,0,0,10.3,6.241,93.031,93.031,0,0,0,22.525,8.323Z" fill="#a37855"/>
          <path id="Trazado_203731" data-name="Trazado 203731" d="M1343.917,376.5c-4.078-4.692-3.61-14.812-3.624-20.465-.022-9.431,4.737-16.14,9.718-23.7,3.834-5.818,7.3-11.832,10.648-17.951a39.582,39.582,0,0,0,5.012-16.135c1.229,3.631,1.193,9.123,1.453,12.947.339,4.971,1.028,9.843.974,14.833a89.468,89.468,0,0,1-4.674,25.7c-3.566,10.645-8.556,21.383-19.507,24.767" fill="#a37855"/>
          <path id="Trazado_203732" data-name="Trazado 203732" d="M1281.027,259.762c-9.716.317-17.882-1.2-27.23,2.9-6.908,3.032-12.833,7.159-20.724,6.825,13.974,5.119,26.051,6.176,40.6,2.623,5.253-1.283,15.717-9.838,7.352-12.346" fill="#a37855"/>
          <path id="Trazado_203733" data-name="Trazado 203733" d="M1271.527,254.142c-5.7-6.731-5.564-17.022-5.221-25.147.278-6.546-.594-13.4-.294-19.8.1,5.183,5.047,12.063,7.689,16.44a66.3,66.3,0,0,1,7.32,16.168c3.164,10.828-3.328,19.052-9.494,12.344" fill="#a37855"/>
          <path id="Trazado_203734" data-name="Trazado 203734" d="M1299.5,285.47c-2.633-5.608-3.072-10.15-2.162-16.322,1.244-8.425,6.889-15.176,11.612-22.081,1.721-2.515,4.064-4.492,5.808-7a80.353,80.353,0,0,0,5.379-8.9c1.81-3.513,3.738-7.277,4.368-11.214-1.283,7.581-1.214,15.532-3.051,23-1.452,5.91-6.7,9.511-7.767,15.732-.522,3.061-.305,6.258-.512,9.359-.221,3.324-.15,8.357-1.844,11.309-2.531,4.41-7.6,3.837-11.831,6.123" fill="#a37855"/>
          <path id="Trazado_203735" data-name="Trazado 203735" d="M1305.879,298.753a36.547,36.547,0,0,0-7.3-2.879,25.344,25.344,0,0,0-8.252-.262c-4.441.6-8.656,2.058-13.176,2.555-5.533.61-11.047.559-16.2-1.685-2.4-1.043-4.953-1.7-7.271-2.919-1.516-.794-2.693-2-4.118-2.824.9,6.013,8.3,12.459,14.075,13.872,7.112,1.738,14.675,1.17,21.779,3.272,4.932,1.46,10.837,4.866,15.935,1.465a10.935,10.935,0,0,0,4.527-10.6" fill="#a37855"/>
          <path id="Trazado_203736" data-name="Trazado 203736" d="M1318.181,333.875c-3.452-3.631.035-10.82,2.846-13.682,4.119-4.2,9.27-6.4,11.972-11.88a65.962,65.962,0,0,0,4.57-13.843c.652-2.828,1.251-5.659,1.73-8.529.469-2.822,1.874-5.5,2.116-8.347,1.311,4.821,1.2,10.663,2.12,15.759a50.931,50.931,0,0,1-1.334,24.613c-1.944,6.23-4.773,12.617-11.786,14.417-2.724.7-9.728-.156-12.234,1.492" fill="#a37855"/>
          <path id="Trazado_203737" data-name="Trazado 203737" d="M1322.071,349.622c-4.229-7.439-14.56-15.838-22.54-19.005-6.348-2.517-12.791-2.66-19.451-2.922-5.8-.229-11.683.75-17.5,1.023-7.505.353-13.677-2.838-20.864-4.763,16.6,15.33,41.066,18.915,59.536,31.305,5.8,3.888,16.766,10.546,23.021,4.766,4.454-4.118-1.6-8.7-2.2-10.4" fill="#a37855"/>
          <path id="Trazado_203738" data-name="Trazado 203738" d="M1267.663,253.538c-5.64,7.178-15.063.056-18.5-5.483-1.248-2.012-2.052-4.13-3.723-5.846a63.543,63.543,0,0,0-5.784-5.705c2.907,2.247,6.56,3.769,9.595,5.948,1.791,1.284,3.322,2.349,5.532,2.487a33.576,33.576,0,0,1,5.407.26c3.012.678,7.628,4.493,7.469,8.339" fill="#a37855"/>
          <path id="Trazado_203739" data-name="Trazado 203739" d="M1356.788,386.916c-.6,5.205-6.676,8.513-10.437,11.281-9.064,6.664-22.1,6.642-32.634,4.569-10.249-2.015-22.324-4.237-31.276-9.719a66.383,66.383,0,0,0-9.443-4.995c-1.9-.808-4.548-3.433-6.023-4.584a63.665,63.665,0,0,1,6.058,2.382,63.764,63.764,0,0,0,11.879,3.507c5.721,1.029,11.149,2.6,17,2.49,5.435-.1,10.3-.531,15.241-2.872,4-1.9,8.228-3.67,12.676-4.174a84.86,84.86,0,0,1,18.927.441c3.2.408,6.147,1.788,8.031,1.674" fill="#a37855"/>
          <path id="Trazado_203740" data-name="Trazado 203740" d="M1264.188,394.081c-.158,0-.253-.015-.467,0l-.662.052.267-.131a15.813,15.813,0,0,1-2.025.223,4.258,4.258,0,0,0-1.4.2c-1-.022-4.41.456-3.7.184l-.961.093-.721.089-1.36.194c-.91.134-1.879.27-3.233.393a34.95,34.95,0,0,0-5.334.712,59.739,59.739,0,0,0-8.8,2.573c-2.1.466-4.867,2.1-6.9,3.066l-.5.382c-1.4.58-3.275,1.9-5.145,2.82-.458.311-.658.448-.743.5.084-.043.217-.1.288-.068-.536.262-1.546.907-1.535.755l.124-.085c.014-.151-1.531.937-2.162,1.149l.38-.055-.992.509.251-.161a27.473,27.473,0,0,1-5.277,2.547c-1.6.587-3.2,1.075-5.358,1.771.547-.29-.849.295-.947.144a14.873,14.873,0,0,0-2.977.74c0,.009-.008.02-.058.042l-1.626.279c.937-.367-1.143.367-.28.043-4.262.6-9.863,1.345-14.864,2.149l.227.013c-1.268.2-2.824.577-3.794.718a13.522,13.522,0,0,0-2.412.728,5.339,5.339,0,0,1-1.65.388c-1.053.356-2.008.837-3.477,1.312a10.6,10.6,0,0,0-2.2.918,10.66,10.66,0,0,1-1.825.861l-.007.023c-.224.1-.435.217-.65.328,1.281-1.542,2.52-3.108,3.739-4.691q1.968-1.182,4.026-2.2c1.02-.42,2.271-.87,2.68-1.037.708-.231,1.516-.682,2.385-1.005,1.373-.54.726-.174,1.438-.389.876-.3-.208-.015.136-.156l1.068-.309c-.6.244-.254.158-.134.143a15.842,15.842,0,0,0,2.586-.972c1.242-.369,1.265-.312,1.788-.492a3.234,3.234,0,0,1-.552.109c.51-.111.227-.1.023-.041.718-.337,3.963-1.1,4.067-1.308l.01.029c.133-.177-.185-.195.315-.439l.368-.067.507-.231c.367-.084.2.008.209.021.838-.35,2.055-.693,3.1-1.043l-1.208.065a15.634,15.634,0,0,0,2.667-.8l.562-.082c1.822-.427,1.19-.524,1.906-.725l.918-.213-.871.327c.893-.271,1.256-.361,1.98-.551l.005-.007a.2.2,0,0,1-.09.015l.12-.049a4.349,4.349,0,0,1,1.129-.558c.874-.328,1.512-.687,2.931-1.163l.289-.265,1.051-.389.042.092c-1,.453-2.877,1.316-4.188,1.83l-.007.052c.779-.3,1.638-.718,2.151-.923.256-.085.928-.27.5-.005l.434-.3,5.217-2.384-.247.072a4.706,4.706,0,0,1,1.177-.593c1.555-.815,3.161-1.67,4.2-2.165l.152-.23c.321-.187.885-.338.949-.573l.64-.472a11.281,11.281,0,0,1,1.169-.764l0,0,.1-.049-.011,0c.973-.615-.07-.081,1.049-.777.4-.17.292-.394.826-.749l.621-.241a24.057,24.057,0,0,0,2.356-1.932c.664-.464,1.053-.613.726-.166a5.417,5.417,0,0,1,.89-.985c.155-.051.086.028-.039.215.7-.522.364-.4.86-.833a1.578,1.578,0,0,1,.247-.655l-.211.143a16.522,16.522,0,0,1,1.615-1.569l.02.065.59-.623.094.018.835-.894-.132.106c.2-.209.822-.917,1.214-1.29l.018.043a25.487,25.487,0,0,0,2.892-3.529l-.076.239c.443-.427,0-.214.475-.76l.108.037c.266-.6.513-.648.817-.972l-.235.083.507-.655c.557-.725.466-.36.451-.207l.261-.577.173-.03c.136-.458.27-.369.641-1.083.075-.029-.011.155.153-.062l.542-1.216-.344.721-.106-.179a14.555,14.555,0,0,1,.847-1.483l-.154.38a7.735,7.735,0,0,1,.831-1.32c-.113.13-.283.33-.113-.021.131-.255.132-.1.276-.334a2.72,2.72,0,0,1,.549-1.339c.011.017.017.046,0,.109a4.72,4.72,0,0,1,.34-.781l.025.267.239-.819a9.812,9.812,0,0,1,.617-1.26l-.1.289,1.235-2.748-1.477.63.075-.152a9.075,9.075,0,0,1-1.415.671c-.525.218-.987.415-.932.492a8.4,8.4,0,0,0-.834.325l-.795.358c-.359.164-.634.277-.541.119-1.608.707-2.389,1.28-4.358,2.124a23.053,23.053,0,0,0-3.826,1.843,52.962,52.962,0,0,0-5.964,4.106c-1.505.807-3.163,2.73-4.518,3.877l-.279.412c-.957.719-2.069,2.147-3.316,3.22-.249.318-.385.478-.448.548.055-.049.148-.118.218-.1-.357.306-.979,1.016-1.021.88l.073-.093c-.04-.136-.949,1.048-1.4,1.327l.3-.1-.643.6.149-.183a21.232,21.232,0,0,1-3.393,3.124c-1.035.79-2.146,1.387-3.679,2.372.353-.361-.592.411-.713.3a6.09,6.09,0,0,0-2.1,1.41c0,.007,0,.019-.027.056,0,0-.285.192-.559.407l-.524.408c.478-.647-.624.721-.176.138a67.734,67.734,0,0,1-9.657,6.53l.174-.034a23.128,23.128,0,0,1-2.656,1.326,11.637,11.637,0,0,0-1.7.934,2.89,2.89,0,0,1-1.227.44,15.667,15.667,0,0,1-2.616,1.136c-.436-.006-3.128,1.2-3.229,1.02l-.008.02a17.719,17.719,0,0,0-2.347.722c.837-1.169,1.672-2.345,2.507-3.539,2.484-3.352,4.82-7.514,7.281-11.607,1.488-.767,2.969-1.551,4.433-2.364.949-.455,2.28-1.013,2.667-1.25.632-.26,1.305-.775,2.05-1.177,1.165-.679.634-.254,1.246-.551.749-.4-.192.013.095-.167l.922-.437c-.5.315-.2.186-.094.155a12.3,12.3,0,0,0,2.139-1.352c1.039-.572,1.066-.536,1.5-.8a3.052,3.052,0,0,1-.471.211c.432-.206.18-.138.01-.044.571-.444,3.281-1.848,3.305-2.085l.017.025c.068-.2-.222-.144.154-.487l.309-.145.387-.331c.3-.159.185-.038.193-.025.642-.525,1.616-1.141,2.441-1.71l-1.059.343a11.9,11.9,0,0,0,2.119-1.391l.474-.211c1.49-.836.89-.784,1.465-1.142l.747-.421-.67.515c.707-.467,1-.643,1.584-.993l0-.007a.186.186,0,0,1-.078.036l.092-.075a4.052,4.052,0,0,1,.832-.787c.668-.521,1.136-.994,2.261-1.756l.177-.314.827-.593.065.078c-.761.64-2.186,1.856-3.186,2.655l.011.051c.572-.478,1.247-1.037,1.633-1.357.2-.138.749-.461.443-.117l.3-.378c1.942-1.628,1.943-1.649,4.017-3.3l-.207.112a4.092,4.092,0,0,1,.906-.777c1.2-1.043,2.447-2.117,3.285-2.734l.083-.241c.25-.225.741-.439.744-.673l.481-.536a10.166,10.166,0,0,1,.911-.881l0,0,.081-.06-.012,0c.775-.7-.081-.065.807-.868.328-.22.19-.408.609-.815l.525-.312a17.85,17.85,0,0,0,1.782-2.144c.518-.531.849-.734.645-.263a4.981,4.981,0,0,1,.6-1.066c.136-.073.089.011.013.205.542-.6.251-.431.608-.922a1.369,1.369,0,0,1,.066-.654l-.164.169a17.328,17.328,0,0,1,1.091-1.76l.038.056.378-.692.09-.006.52-1-.093.127c.127-.232.478-1.025.736-1.45l.031.035a19.544,19.544,0,0,0,1.515-3.9l.016.232c.258-.5-.081-.188.169-.8l.114,0a2.358,2.358,0,0,1,.419-1.086l-.189.141.24-.72c.255-.8.3-.451.343-.312l.036-.582.149-.078c-.04-.439.118-.4.2-1.134.06-.047.046.139.12-.1l.061-1.218-.06.729-.163-.122a13.731,13.731,0,0,1,.246-1.54l-.005.374a7.484,7.484,0,0,1,.289-1.4c-.055.149-.134.375-.113.019.025-.26.083-.132.136-.373-.058-.037-.082-.215-.074-.451a7.3,7.3,0,0,1,.11-1.02c.016.008.031.027.036.088a4.433,4.433,0,0,1,.047-.778l.122.193-.073-.752a7.569,7.569,0,0,1,.124-1.29l.007.277s.022-.264.053-.66c.008-.1.017-.207.025-.322a1.621,1.621,0,0,0-.3.132c-.22.106-.455.219-.688.333l-1.895.918-.079-.082a2.869,2.869,0,0,1-.467.3l-.394.206c-.264.132-.489.247-.409.311-.463.12-1.553.955-1.421.638-1.405.8-2.045,1.422-3.724,2.433a18.518,18.518,0,0,0-3.22,2.16c-1.891,1.582-3.07,2.655-4.849,4.43-1.263.875-2.614,2.718-3.769,3.861l-.221.4c-.831.714-1.723,2.116-2.761,3.232-.187.325-.289.492-.337.564.044-.053.12-.127.19-.117-.289.325-.758,1.067-.824.944l.055-.1c-.074-.129-.707,1.109-1.066,1.45l.261-.145-.473.67.1-.2c-1.691,3.131-2.831,4.3-4.252,7.3.091-.452-.256.6-.416.561a6.371,6.371,0,0,0-1.02,1.974c.007,0,.011.016,0,.055l-.613,1.02c.183-.715-.284.824-.1.173-.9,1.427-1.78,2.84-2.74,4.372-1.017,1.545-2.056,3.119-3.061,4.645l.129-.1a17.055,17.055,0,0,1-1.536,2.2,14.192,14.192,0,0,0-.978,1.408,2.01,2.01,0,0,1-.857.761,8.651,8.651,0,0,1-1.9,1.659c-.376.1-2.451,1.755-2.595,1.579l0,.02c-1.1.471-2.081,1.1-3.244,1.56.522-.932,1.122-2.024,1.716-3.131,1.372-2.608,2.7-5.228,2.889-5.674l-.709,1.045c1.776-3.6,2.752-5.236,4.028-8.467l-.044.19c.114-.227.119-.44.413-1.219s.877-2.121,1.931-4.739l.015,0a3.256,3.256,0,0,1,.175-.557l-.182.454-.195.447c.151-.563.212-1.076.422-1.823.062-.153.108-.2.136-.208l.021-.088c.806-1.2,1.83-2.652,2.131-3.162.582-.782,1.075-1.885,1.724-2.9a9.429,9.429,0,0,1,1.117-1.585c.636-1.031-.2.168.037-.257l.8-1.21c-.405.738-.142.362-.041.244-.146.253-.268.479-.345.647.413-.7.42-.736.345-.647a21.736,21.736,0,0,0,1.752-3.162c.868-1.452.925-1.428,1.276-2.063a5.464,5.464,0,0,1-.421.6c.383-.565.14-.293,0-.057.432-.937,2.724-4.633,2.646-4.917l.028.014c-.006-.271-.284.022-.029-.657l.259-.409.269-.674c.249-.421.174-.191.189-.185.482-1.078,1.187-2.569,1.8-3.863l-.932,1.243a19.949,19.949,0,0,0,1.564-3.269l.382-.626a9.129,9.129,0,0,0,.958-2.48l.539-1.1-.423,1.135c.48-1.113.686-1.554,1.1-2.435v-.012a.414.414,0,0,1-.058.106l.055-.16a9.135,9.135,0,0,1,.424-1.584c.361-1.123.567-1.76,1.258-3.906l.006-.5.462-1.384.1.025c-.379,1.379-1.051,3.983-1.656,5.717l.033.046c.327-1.039.7-2.22.886-2.915.114-.333.454-1.171.345-.523l.085-.678c.5-1.75.7-2.645.9-3.56s.5-1.828.843-3.7l-.1.317a7.834,7.834,0,0,1,.3-1.692c.386-2.256.637-4.628.832-6.11l-.1-.33c.046-.484.237-1.2.07-1.444l-.039-1.034c.009-.66-.027-1.066.011-1.816v0c0-.045.007-.092.01-.143l-.01.008c.013-1.493-.106.018-.083-1.692.07-.551-.159-.6-.186-1.429l.122-.843a36.312,36.312,0,0,0-.371-3.922c-.026-1.048.048-1.562.255-.887a8.509,8.509,0,0,1-.356-1.668c.044-.2.071-.068.158.2a9.03,9.03,0,0,0-.218-1.522,2.19,2.19,0,0,1-.416-.758l0,.329a22.862,22.862,0,0,1-.385-2.877l.065.03-.171-1.089.068-.078-.224-1.558.006.216c-.057-.364-.24-1.561-.289-2.253l.046.019c-.114-1.954-.5-3.526-.771-5.792l.123.288c0-.781-.159-.2-.222-1.121l.1-.058a3.973,3.973,0,0,1-.08-1.612l-.116.275-.074-1.055c-.066-1.161.109-.725.2-.564l-.18-.776.113-.165c-.189-.562-.02-.576-.174-1.578.041-.086.087.167.082-.177,0,0-.075-.412-.149-.824l-.126-.826.126,1-.19-.11a18.441,18.441,0,0,1-.132-2.161l.078.512a8.968,8.968,0,0,1,.005-1.973c-.031.214-.078.542-.108.049-.014-.361.062-.2.079-.54a2.438,2.438,0,0,1-.163-1.1c.051-.16.11-.324.161-.483l-.153-.023h0l.153.024h0c-.052-.009-.1-.017-.153-.024,0-.046,0-.093.005-.139.018.011.035.027.047.08-.01-.072-.018-.145-.026-.21l-.63-5.018-1.009,4.763a1.966,1.966,0,0,1-.076.261l-.114-.019-.015-.052-.006.051h0l0,.033,0-.035h-.005l0,.086-.067.55c-.173.419-.282,1.08-.35,1l.052-.255-.559,1.624-.576,1.617-.119.009c.031.37-.679,1.742-.47,1.7-.317.575-.823,2.419-.888,1.987-.818,2.1-1.083,3.315-2.21,5.828-.537.84-1.508,3.345-2.216,4.968-1.272,3.224-2.108,5.34-3.4,8.6-1.044,1.88-1.939,4.955-2.878,7.07l-.127.629a56.212,56.212,0,0,0-1.95,5.755c-.1.571-.146.822-.166.927.028-.094.081-.236.152-.268-.2.593-.391,1.842-.492,1.731l.017-.158a25.873,25.873,0,0,0-.467,2.556l.184-.362-.169,1.168.009-.316c-.222,5.109-.542,7.355-.362,12.088-.142-.628.07.932-.09.992a12.543,12.543,0,0,0,.084,3.181c.008,0,.017.012.029.068l-.022,1.7c-.2-1.018.166,1.226-.005.291-.157,4.443-.009,10.232-.308,15.345l.061-.223c-.063,1.3-.107,2.912-.243,3.89a16.811,16.811,0,0,0-.065,2.536,4.643,4.643,0,0,1-.237,1.689,25.447,25.447,0,0,1-.327,3.714c-.207.522-.523,4.335-.737,4.346l.012.019c-.11.414-.2.825-.289,1.237a5.3,5.3,0,0,1,.352,2.091c0,.071.007.141,0,.213a6.425,6.425,0,0,1-.095.806c-.065.368-.168.725-.249,1.088-.44,1.02-.3.456-.627,1.083-.409.859.156-.143.014.211l-.551,1c.26-.61.072-.3,0-.2a18.853,18.853,0,0,0-1.181,2.583c-.644,1.167-.7,1.144-.958,1.649a3.991,3.991,0,0,1,.329-.477c-.295.449-.1.237.013.047-.293.763-2.144,3.646-2.082,3.87l-.027-.014c.023.225.269.011.068.548l-.226.31-.219.532c-.216.318-.157.136-.17.129-.385.851-1.054,1.966-1.6,2.956l.857-.9a19.862,19.862,0,0,0-1.473,2.455l-.376.447c-1.109,1.566-.559,1.213-.984,1.849l-.58.772.471-.828c-.521.8-.75,1.109-1.2,1.729v.008c.031-.042.053-.069.062-.07l-.063.115c0,.01-.009.032-.011.045l-.019.011.03-.056c0-.012.007-.039,0-.045-.022.031-.054.081-.086.132l-.171.1.092.027c-.009.016-.02.035-.03.051l-.033.012-.031.094c-.126.213-.281.48-.457.789l.045.075.319-.586-.134.4c-.023.04-.042.076-.067.118-.277.472-.507.912-.813,1.426-.072.047-.131.087-.171.118l.13-.05c-.1.175-.219.358-.351.556.058-.171.116-.349.176-.531.31-.536.613-1.066.866-1.525l-.027-.045c-.266.474-.544.985-.791,1.422.048-.15.1-.3.143-.459.411-1.252.778-2.558.877-3.064.3-.995.4-2.28.621-3.55a12.518,12.518,0,0,1,.422-2.028c.175-1.281-.114.253-.068-.264l.246-1.531c-.058.9.024.416.067.252a22.036,22.036,0,0,0,.215-3.856c.115-1.8.17-1.809.175-2.584a6.479,6.479,0,0,1-.082.779c.066-.723-.017-.346-.031-.05-.032-.551.039-1.982.051-3.311a13.213,13.213,0,0,0-.134-2.657l.03,0c-.142-.247-.233.173-.356-.589l.009-.516-.124-.766c-.007-.519.049-.269.065-.27-.188-1.247-.321-3-.531-4.51l-.115,1.644a25.778,25.778,0,0,0-.427-3.831l-.011-.778a12.375,12.375,0,0,0-.5-2.778l-.1-1.293.219,1.266c-.158-1.277-.209-1.789-.308-2.81l-.006-.011a.435.435,0,0,1,.005.126l-.034-.175a8.107,8.107,0,0,1-.4-1.685c-.2-1.266-.47-2.239-.669-4.278l-.2-.483-.122-1.525.1-.013c.152,1.479.669,4.266,1.013,6.172l.051.025c-.2-1.131-.465-2.409-.578-3.157-.04-.368-.09-1.315.088-.651l-.207-.682c-.245-1.878-.39-2.822-.482-3.792-.052-.975-.129-1.969-.181-3.947l-.041.346a8.545,8.545,0,0,1-.025-1.789c-.038-1.189-.034-2.4.031-3.51s.094-2.109.209-2.88l-.1-.342c.031-.505.245-1.25.09-1.5l0-1.077c.055-.689.021-1.115.146-1.894v0q.01-.069.024-.147l-.01.008c.166-1.554-.107.008.09-1.771.135-.566-.092-.646.015-1.514l.25-.858c.238-1.565.1-1.851.339-4.135.174-1.09.375-1.6.427-.864a9.259,9.259,0,0,1,.018-1.8c.086-.2.084-.055.109.244a10.612,10.612,0,0,0,.123-1.62,2.391,2.391,0,0,1-.226-.879l-.076.34a25.369,25.369,0,0,1,.3-3.068l.057.048.094-1.169.085-.066.142-1.671-.045.227c.028-.392.131-1.68.241-2.413l.042.032a60.632,60.632,0,0,0,.405-6.244l.069.325c.138-.827-.122-.235-.018-1.225l.111-.044a5.2,5.2,0,0,1,.149-1.733l-.151.277.065-1.136c.085-1.252.2-.765.271-.579l-.085-.857.129-.165a12.142,12.142,0,0,1-.064-1.723c.047-.091.076.187.094-.186l-.189-1.806.086,1.088-.184-.13a7.125,7.125,0,0,1-.061-.729c0-.25-.006-.451-.009-.669-.014-.56-.015-1.088-.074-1.734l.1.889c-.161-2.181-.093-2.373-.127-3.775-.008.487-.023,1.164-.091.323-.043-.629.037-.5.02-1.192-.027.041-.057-.017-.086-.146-.014-.085-.029-.166-.043-.244-.014-.021.005-.164-.037-.1l-.127.206c-.345.558-.746,1.158-1.134,1.684a.92.92,0,0,1,.089-.214,10.171,10.171,0,0,1-.668,1.038l.211-.561-.682,1.261a15.455,15.455,0,0,1-1.076,1.571l.241-.415s-.572.876-1.144,1.75c-.5.783-.99,1.565-.99,1.565l-.12-.013c-.063.39-1.087,1.7-.865,1.693-.443.551-1.312,2.422-1.288,1.963-1.2,2.124-1.648,3.377-3.032,6a38,38,0,0,0-2.475,5.321,72.151,72.151,0,0,0-2.841,9.553c-.8,2.179-1.091,5.629-1.457,8.075l.036.686a51.113,51.113,0,0,0-.339,6.464c.065.608.092.88.1.995,0-.106.011-.266.072-.318a11.423,11.423,0,0,1,0,1.9l-.026-.167c-.148-.085.229,2,.231,2.741l.086-.421.062.625c.042.31.085.62.085.62l-.078-.328c.549,2.67.98,4.6,1.484,6.456a39.186,39.186,0,0,0,2.091,5.973c-.376-.574.424.9.3,1.02a13.872,13.872,0,0,0,1.355,3.113c.007,0,.021.005.055.056l.672,1.685c-.6-.924.652,1.141.115.289,1.669,4.418,4.114,10.048,5.076,15.37l0-.242a33.777,33.777,0,0,1,.672,4.052c.055,1.039.405,2.239.436,2.644a4.987,4.987,0,0,1,.059,1.8,23.692,23.692,0,0,1,.219,3.94c-.134.572-.022,4.628-.263,4.663l.014.019a57.606,57.606,0,0,1-.994,6.47l0-.127s-.024.3-.059.748c-.05.446-.116,1.043-.182,1.639-.1.691-.2,1.373-.264,1.831a41.418,41.418,0,0,1-2.464,3.363l-.046.275c-.22.306-.688.667-.656.911l-.414.69a11.581,11.581,0,0,1-.813,1.157l0,0c-.023.025-.047.054-.075.083h.011c-.72.914.1.055-.743,1.09-.3.273-.2.454-.5.88l-.035.022c-.031.04-.058.083-.088.122l-.465.379c-.771.89-.744,1.161-1.792,2.5-.549.611-.905.832-.677.326a5.082,5.082,0,0,1-.671,1.154c-.144.082-.089-.009,0-.218-.6.644-.283.466-.7.98a1.507,1.507,0,0,1-.15.687l.193-.175a13.714,13.714,0,0,1-1.422,1.783l-.028-.062-.527.689-.094-.008-.384.486-.4.476.129-.115c-.137.167-.508.617-.851.994.343-.8.684-1.6,1-2.412.614-1.377,1.36-3.011,1.548-3.594.4-.945.7-2.183,1.111-3.393a9.448,9.448,0,0,1,.718-1.918c.389-1.22-.155.226-.022-.27l.256-.725c.137-.36.238-.73.238-.73-.195.87-.04.411.026.259a24.852,24.852,0,0,0,.86-3.727c.407-1.743.467-1.739.619-2.491a6.14,6.14,0,0,1-.227.744c.2-.692.048-.34-.022-.055.192-1.072,1.178-5.566,1.012-5.821l.029,0c-.1-.267-.257.123-.246-.643l.109-.5.027-.767c.094-.507.1-.253.116-.252.106-1.349.235-3,.353-4.49l-.44,1.578a20.9,20.9,0,0,0,.285-3.813l.13-.764c.239-2.558-.11-1.786-.049-2.8l.1-1.288.024,1.279c.035-1.281.079-1.795.083-2.819l0-.011a.469.469,0,0,1-.01.126l-.015-.178a8.281,8.281,0,0,1-.209-1.717c-.039-1.282-.293-2.262-.362-4.314l-.188-.49-.154-1.529.1-.014c.25,1.485.59,4.3.741,6.234l.049.03c-.049-1.15-.285-2.44-.34-3.2-.018-.37-.015-1.326.126-.65L1176.2,375c-.571-3.8-.563-3.822-1.259-7.767l.028.348a8.7,8.7,0,0,1-.381-1.765c-.495-2.205-1-4.443-1.412-6.293l-.208-.3c-.134-.489-.171-1.269-.4-1.459l-.36-1.02c-.194-.663-.383-1.048-.548-1.82v0c-.01-.046-.02-.094-.031-.146l-.006.011c-.411-1.51-.09.043-.569-1.68-.094-.572-.337-.559-.577-1.4l-.106-.885c-.4-1.529-.645-1.732-1.359-3.9-.287-1.059-.317-1.607.035-.959a9.2,9.2,0,0,1-.727-1.63c0-.214.054-.084.2.175a10.843,10.843,0,0,0-.555-1.511,2.326,2.326,0,0,1-.567-.7l.071.338a22.506,22.506,0,0,1-.974-2.889l.069.019-.379-1.093.052-.093-.523-1.569.047.223c-.123-.367-.516-1.579-.688-2.287l.049.013c-.455-2-1.1-3.58-1.7-5.9l.162.283c-.115-.813-.186-.183-.384-1.138l.094-.073a4.092,4.092,0,0,1-.319-1.669l-.078.3-.211-1.092c-.218-1.205.014-.77.125-.612l-.288-.788.087-.185c-.277-.562-.1-.6-.372-1.627.03-.1.1.164.06-.194l-.245-.846-.049-.177-.07-.291c-.043-.186-.086-.358-.121-.507-.03-.124-.053-.229-.071-.312.036.182.1.473.167.776.046.192.091.386.125.53.025.1.042.16.042.16l-.2-.094c-.021-.071-.041-.136-.059-.194-.026-.114-.051-.215-.073-.308-.047-.218-.083-.389-.117-.544-.061-.345-.1-.657-.135-.955-.07-.58-.122-1.121-.239-1.739l.177.828c-.357-2.116-.318-2.382-.488-3.81.043.516.1,1.236-.045.425-.1-.613-.018-.558-.1-1.264-.02.072-.051.04-.089-.065-.018-.054-.039-.125-.061-.213-.01-.2-.069.045-.121.2-.212.639-.459,1.315-.7,1.891a1.613,1.613,0,0,1,.049-.265,9.556,9.556,0,0,1-.412,1.176l.117-.7-.412,1.484a14.155,14.155,0,0,1-.673,1.744l.147-.481-1.623,4.383-.119.013c.022.391-.709,1.866-.493,1.813-.322.621-.8,2.6-.869,2.151-.752,2.293-.968,3.588-1.845,6.392a37.494,37.494,0,0,0-1.5,5.614,70.836,70.836,0,0,0-1.154,9.817c-.414,2.27-.06,5.7.021,8.142l.157.662a60.364,60.364,0,0,0,.771,6.349c.15.585.216.844.245.954a.493.493,0,0,1,.022-.321c.089.647.412,1.923.27,1.859l-.046-.16c-.154-.063.5,1.913.57,2.641l.031-.418.286,1.2-.108-.313c1.661,5.078,2.046,7.487,4,12.1-.365-.572.411.9.285,1.013a13.893,13.893,0,0,0,1.291,3.106c.008,0,.02.005.053.056l.634,1.683c-.578-.927.626,1.143.108.288,1.56,4.41,3.9,10.047,4.841,15.311l.009-.24a27.567,27.567,0,0,1,.574,4.01c.02,1.022.293,2.219.3,2.619a4.726,4.726,0,0,1-.071,1.774,18.494,18.494,0,0,1-.167,3.881c-.112.274-.232,1.4-.4,2.466a7.04,7.04,0,0,1-.489,2.049l.011.021a38.875,38.875,0,0,1-2.159,6.076l.024-.124s-.343,1.129-.768,2.238c-.205.558-.431,1.11-.614,1.518-.031.07-.057.13-.083.192a2.916,2.916,0,0,0-.363.337l.262-.317a7.6,7.6,0,0,1-1.2,1.012c.146-.09.371-.23.1.055-.2.2-.158.058-.371.229.036.133-.43.654-.93,1.04a.087.087,0,0,1,.017-.076,1.722,1.722,0,0,1-.369.373l.029-.213-.315.453c-.3.206-.627.622-.653.522l.137-.153-2.077,1.748-.1-.056c-.1.3-1.169.9-.985.986-.464.241-1.531,1.313-1.428.962a42.114,42.114,0,0,1-3.856,3.047c-.718.328-2.4,1.612-3.57,2.369-1.183.881-2.157,1.572-3.168,2.267q.516-.834.965-1.695c.53-.9,1.289-2.128,1.446-2.562a22.276,22.276,0,0,0,.878-2.182c.484-1.25.333-.593.623-1.2.324-.776-.139.131-.033-.189l.433-.913c-.185.554-.036.271.027.179a13.059,13.059,0,0,0,.828-2.356c.463-1.074.524-1.058.7-1.526a2.8,2.8,0,0,1-.25.445c.222-.418.06-.216-.019-.04.187-.687,1.514-3.415,1.393-3.621l.029.009c-.065-.2-.263.019-.173-.48l.157-.3.1-.5c.137-.312.12-.144.135-.14.19-.8.56-1.9.79-2.876l-.281.479-.293.472a9.41,9.41,0,0,0,.651-2.444l.19-.484c.446-1.661.04-1.192.184-1.856l.169-.847-.047.852c.1-.753.148-1.123.249-1.875l0-.008a.2.2,0,0,1-.02.084l0-.12a4.576,4.576,0,0,1-.124-1.149c-.021-.852-.155-1.507-.176-2.866l-.167-.32-.058-1.012.1-.016c.141.983.392,2.846.444,4.139l.047.021c-.031-.768-.15-1.63-.193-2.131,0-.245.029-.882.149-.436l-.153-.457c-.332-2.419-.326-2.375-.7-5.127l-.01.233a3.738,3.738,0,0,1-.184-1.168c-.26-1.551-.5-3.163-.564-4.19l-.159-.2c-.056-.328.028-.852-.167-.978l-.188-.686a8.82,8.82,0,0,1-.233-1.226v0c0-.029,0-.061-.005-.1l-.009.008c-.15-1.016-.1.031-.267-1.134.007-.387-.231-.379-.318-.945l.051-.6a27.108,27.108,0,0,0-.627-2.647c-.091-.718-.022-1.089.2-.648a4.157,4.157,0,0,1-.416-1.109c.034-.145.068-.057.164.119-.09-.773-.157-.455-.277-1.026-.154-.14-.383-.29-.431-.475l.011.229a10.784,10.784,0,0,1-.463-1.958l.065.015-.2-.742.066-.062-.26-1.061.012.151c-.067-.249-.276-1.064-.342-1.542l.046.009a36.03,36.03,0,0,0-.954-3.954l.132.183c-.035-.547-.165-.114-.267-.752l.1-.057a2.065,2.065,0,0,1-.17-1.115l-.1.209-.136-.724c-.137-.8.062-.525.161-.427l-.233-.513.1-.133c-.233-.36-.069-.4-.3-1.072.032-.066.1.1.065-.137l-.218-.549c-.043-.089-.131-.369-.194-.562s-.1-.31-.1-.31.092.3.182.609c.065.191.129.383.129.383l-.2-.042a3.764,3.764,0,0,1-.2-.623c-.056-.218-.1-.411-.131-.6a10.678,10.678,0,0,0-.248-1.134l.182.542a21.687,21.687,0,0,1-.507-2.5c.045.34.1.812-.045.283-.1-.4-.02-.368-.107-.832-.086.168-.334-.609-.528-1.69.007-.047.015-.084.032-.062a2.51,2.51,0,0,1-.184-.688l.082-.246c0-.014-.21-.337-.207-.323-.033-.153-.053-.25-.075-.358-.028.068-.056.14-.084.215-.031.117-.059.229-.081.313-.047.172-.075.25-.07.1l.082-.378-.552,1.846c-.287.934-.538,1.86-.538,1.86l-.067-.157c-.019.64-.61,2.056-.445,2.164a8.765,8.765,0,0,0-.409,1.68c-.03.156-.056.3-.08.428a1.46,1.46,0,0,1-.049.2c-.033.092-.066.12-.106.044-.293,1.589-.215,2.476-.489,4.408a17.89,17.89,0,0,0-.329,3.838c.042,2.447.16,4.018.387,6.49-.156,1.511.4,3.7.448,5.3l.151.423c-.031,1.075.372,2.659.431,4.153.095.355.137.541.152.625,0-.068,0-.171.057-.213.016.427.194,1.27.062,1.226l-.028-.1c-.134-.042.249,1.265.212,1.749l.094-.277.1.8-.058-.208c.816,3.4.642,5.012,1.336,8.2-.2-.409.155.626,0,.69a6.6,6.6,0,0,0,.353,2.165c.007,0,.017.006.033.042l.107,1.172c-.268-.678.246.825.013.2a91.076,91.076,0,0,1,.291,10.549l.061-.151a18.665,18.665,0,0,1-.212,2.668,11.471,11.471,0,0,0-.052,1.746c-.009.749-.275,1.391-.224,1.077a14.137,14.137,0,0,1-.358,2.614,6.964,6.964,0,0,0-.378,1.6c-.137.694-.3,1.333-.4,1.319l.012.018a17.088,17.088,0,0,1-1.7,3.778.446.446,0,0,1,.018-.081,10.446,10.446,0,0,1-.628,1.387,8.79,8.79,0,0,1-.612.977c-1.3.764-2.713,1.822-3.956,2.4l-.381.329c-1.127.447-2.608,1.549-4.177,2.191-.343.234-.528.348-.61.4.069-.033.18-.07.243-.033-.446.189-1.277.7-1.275.553l.1-.068c0-.148-1.255.747-1.787.888l.324-.014-.822.393.2-.133c-1.063.649-1.963,1.126-2.809,1.542a8.36,8.36,0,0,0-1.179.245s.315-.026.777-.046c-1.678.8-3.159,1.393-5.223,2.564.279-.244-.171.057-.486.2.136-.131.27-.266.407-.4.659-.538,1.523-1.18,1.763-1.44.457-.337.852-.921,1.371-1.391.768-.809.455-.339.88-.711.5-.489-.16.046.023-.166l.639-.554c-.318.369-.108.2-.026.156a7.346,7.346,0,0,0,1.365-1.59c.682-.709.736-.669,1.006-.992-.107.1-.31.291-.334.274.3-.26.108-.154-.006-.041.325-.5,2.136-2.285,2.064-2.5l.025.017c-.02-.186-.246-.075-.06-.457l.207-.195.2-.373c.2-.207.143-.075.156-.066.359-.584.947-1.339,1.4-2.033l-.758.551a9.229,9.229,0,0,0,1.243-1.692l.31-.3c.891-1.1.41-.894.747-1.345l.462-.55-.354.607.9-1.269v-.008c-.021.032-.039.053-.048.054l.043-.09a2.556,2.556,0,0,1,.347-.889c.351-.613.483-1.156,1.067-2.128v-.306l.408-.743.093.038c-.344.754-.918,2.21-1.413,3.153l.032.037c.3-.556.549-1.235.732-1.612.1-.177.412-.61.318-.237l.071-.4c.447-.959.6-1.475.814-1.973.2-.508.46-1,.836-2.046l-.107.166a2.688,2.688,0,0,1,.329-.944c.443-1.255.781-2.6,1.131-3.4l-.08-.213c.058-.275.313-.656.175-.823l.06-.6a7.631,7.631,0,0,1,.2-1.041v0c.007-.025.016-.05.025-.081l-.01,0c.169-.855-.107-.005.095-.983.129-.307-.1-.369-.026-.846l.217-.467a14.05,14.05,0,0,0,.1-2.294c.088-.6.245-.893.357-.484a3.027,3.027,0,0,1-.136-.994c.065-.112.078-.033.132.131.089-.651-.049-.4-.035-.9-.118-.145-.308-.312-.311-.471l-.043.188a8.224,8.224,0,0,1-.023-1.684l.062.022-.035-.639.077-.042-.035-.911-.02.125a13.047,13.047,0,0,1-.02-1.317l.043.013a24.633,24.633,0,0,0-.148-3.381l.094.17c.074-.451-.141-.119-.112-.656l.109-.029c-.155-.467.013-.61.057-.935l-.137.155.014-.612c.033-.673.17-.415.248-.318l-.122-.455.123-.092c-.151-.331.013-.335-.07-.917.047-.048.075.1.094-.1l-.094-.5-.092-.879.04.525c.012.135.022.27.03.371.008.063.013.107.013.107l-.183-.069a13.6,13.6,0,0,1-.013-2.177l.045.479a15.9,15.9,0,0,1,.122-2.207c-.042.3-.1.717-.116.249a6.7,6.7,0,0,1,.113-.761c-.126.145-.161-.576-.061-1.582.019-.045.038-.08.047-.059a1.919,1.919,0,0,1,.006-.636s.147-.248.147-.243a2.256,2.256,0,0,0-.117-.27,7.922,7.922,0,0,1,.087-1.227l.019.158.037-.686c-.08.114-.147.186-.243.343l-.324.571-.654,1.155.032-.28c-.234.722-.9,1.506-.872,1.856-.292.33-1.124,2.238-1.006,1.567-.526.975-.821,1.775-1.177,2.577-.09.2-.177.409-.264.608l-.187.459c-.119.293-.262.61-.443.973a14.582,14.582,0,0,0-1.289,2.921c-.628,1.928-.956,3.193-1.511,5.177-.6,1.115-.787,2.985-1.263,4.229v.377c-.384.812-.537,2.164-.993,3.321-.033.3-.059.461-.074.531.019-.053.058-.131.126-.142-.131.331-.253,1.035-.362.955l.01-.089c-.11-.081-.207,1.05-.409,1.4l.184-.175-.187.64.019-.179c-.425,2.879-1.155,4.037-1.609,6.719-.046-.387-.067.535-.232.525a4.409,4.409,0,0,0-.41,1.779c.007,0,.014.012.017.046l-.3.931c-.023-.618-.047.72-.054.158-.883,2.39-1.81,5.58-3.023,8.253l.1-.1a18.165,18.165,0,0,1-.93,2.027,5.615,5.615,0,0,0-.506,1.367c-.186.6-.624,1.006-.487.778a10.041,10.041,0,0,1-.942,1.988c-.282.2-1.157,2.225-1.342,2.138l.007.019c-.76.9-1.205,1.937-2.09,2.849a.264.264,0,0,1,.018-.069s-.265.607-.585,1.181l-.625,1.174.143-.02c-.024.028-.047.056-.072.084l.037.148c-3.172,1.284-7.051,3.11-10.633,4.5l.184-.02c-.956.386-2.117.935-2.876,1.145a10.729,10.729,0,0,0-1.817.884,3.269,3.269,0,0,1-1.286.439,22.467,22.467,0,0,1-2.711,1.209c-.467,0-3.17,1.433-3.278,1.263l-.007.021c-1.569.466-2.916,1.245-4.6,1.764a.582.582,0,0,1,.078-.059l-3.122,1.841,1.182.233,3.081-.632,7.787-3.173,6.312-2.31,2.358-.984c1.417-.585,3.3-1.386,5.175-2.2l.247-.106-1.933,1.3a9.739,9.739,0,0,1,5.512-1.5c.8.07,1.8.249,2.118.3.513.159,1.175.086,1.818.232,1.03.176.5.185,1.007.326.634.164-.116-.111.143-.07l.752.246c-.45-.073-.215.016-.139.06a8.917,8.917,0,0,0,1.9.395c.871.282.855.35,1.231.45-.119-.058-.364-.147-.359-.177.337.155.172.027.032-.024.566.049,2.707,1.038,2.863.923l-.009.028c.161-.079,0-.256.391-.206l.231.131.391.071c.237.121.1.113.1.126a18.663,18.663,0,0,1,2.171.779l-.662-.594a9.067,9.067,0,0,0,1.808.794l.329.243c1.149.673.89.242,1.356.493l.569.357-.61-.243c.588.3.817.435,1.273.7h.006c-.031-.019-.051-.033-.052-.043l.085.033a2.144,2.144,0,0,1,.859.239,14.876,14.876,0,0,1,2.036.9l.291-.018.7.371-.038.093c-.716-.284-2.078-.825-3-1.188l-.033.035c.546.221,1.183.434,1.538.592.168.091.578.372.225.3l.376.048c1.826.738,1.835.744,3.707,1.622l-.148-.113a2.45,2.45,0,0,1,.858.365c1.147.473,2.328.992,3.048,1.383l.208-.051c.245.1.556.4.733.285l.551.133a5.957,5.957,0,0,1,.935.327h0c.022.012.045.023.07.038v-.011c.762.3.025-.105.9.246.261.173.36-.04.789.113l.39.293a13.809,13.809,0,0,0,2.113.5c.546.191.788.4.383.434a2.724,2.724,0,0,1,.955.044c.091.088.016.083-.148.1.594.21.39.023.849.123.158-.091.349-.248.5-.227l-.169-.073a8.847,8.847,0,0,1,1.59.249l-.032.057.61.066.027.081.873.086-.117-.036c.206.022.879.07,1.263.135l-.019.042a13.288,13.288,0,0,0,3.276.065l-.167.09c.439.083.118-.136.639-.1l.029.107c.455-.158.6,0,.917.036l-.157-.134.6-.006c.662,0,.421.145.33.233l.441-.155.1.114c.314-.183.335-.011.906-.174.055.039-.089.09.113.077l.466-.169.461-.182-.562.191.038-.193a9.977,9.977,0,0,1,1.222-.3l-.279.126a6,6,0,0,1,1.139-.248c-.132,0-.33.016-.06-.1.2-.075.13.025.328-.025-.076-.1.657-.425,1.316-.715.009.016.011.033-.02.063a2.687,2.687,0,0,1,.49-.293l-.01.169.358-.374c.368-.195.66-.524.757-.477l-.137.127,1.228-.85a6.489,6.489,0,0,0-.829-.434l-.406-.194.114-.064c-.469-.052-1.4-.744-1.551-.575a5.072,5.072,0,0,0-.585-.266l-.623-.249c-.259-.1-.447-.188-.31-.244a29.479,29.479,0,0,1-3.144-1.268,17.884,17.884,0,0,0-2.632-1.358c-1.737-.73-2.866-1.2-4.635-1.982-.943-.727-2.658-1.174-3.738-1.831l-.355-.055c-.69-.5-1.931-.849-2.945-1.463-.283-.075-.426-.123-.489-.145.047.025.114.074.113.143-.291-.176-.935-.395-.841-.492l.083.023c.1-.1-.964-.34-1.269-.584l.139.2-.58-.265.168.041c-2.674-.752-3.708-1.584-6.289-2.107.374-.041-.515-.076-.5-.238a3.681,3.681,0,0,0-1.723-.375c0,.008-.011.016-.044.02l-.454-.132-.457-.117c.6-.071-.7.012-.157-.04a39.909,39.909,0,0,0-8.444-1.274l.123.06c-.726-.052-1.632.025-2.185-.071a5.18,5.18,0,0,0-1.415.2c-.6.1-1.159.006-.9-.02-.519.078-1.007.224-1.64.32,2.123-1.011,4.337-2.195,6.4-3.133a26.867,26.867,0,0,1,4.05.261c.22.044.449.1.678.156.942.227,1.87.561,2.233.654a16.9,16.9,0,0,0,2.6.544,6.064,6.064,0,0,1,1.482.37c.938.154-.181-.108.2-.071l1.115.226c-.655-.06-.3.023-.188.065a17.944,17.944,0,0,0,2.788.309c1.284.25,1.279.318,1.832.406a3.474,3.474,0,0,1-.545-.166c.508.143.25.021.039-.025.809.033,4.046.963,4.238.847l-.005.031c.206-.087-.063-.262.5-.222l.354.13.562.061c.361.117.173.111.169.127.91.133,2.144.479,3.22.755l-1.069-.6a19,19,0,0,0,2.713.785l.518.247c1.768.681,1.3.237,2.006.494l.881.365-.908-.246c.892.3,1.244.441,1.946.718h.009a.216.216,0,0,1-.084-.042l.127.032a4.381,4.381,0,0,1,1.247.244,29.946,29.946,0,0,1,3.044.931l.4-.017,1.064.388-.029.1c-1.063-.295-3.075-.857-4.44-1.237l-.036.037c.811.228,1.744.448,2.277.612.256.095.893.39.39.314l.528.051c2.706.776,2.724.781,5.518,1.712l-.231-.12a4.693,4.693,0,0,1,1.271.392c1.695.5,3.444,1.06,4.524,1.482l.274-.049c.36.1.857.422,1.076.309l.788.151a11.544,11.544,0,0,1,1.363.358h0l.1.041,0-.011c1.113.333.013-.1,1.289.275.4.181.494-.037,1.117.14l.6.312a27.428,27.428,0,0,0,3.027.571c.79.218,1.152.437.594.459a6.128,6.128,0,0,1,1.342.071c.138.089.032.084-.195.105.856.223.547.035,1.2.152a1.5,1.5,0,0,1,.673-.21L1186,469.3a16.082,16.082,0,0,1,2.262.307l-.039.055.864.086.045.084,1.236.119-.167-.041c.29.026,1.243.106,1.786.181l-.024.042a27.47,27.47,0,0,0,4.626.188l-.239.086c.616.093.171-.134.907-.084l.036.107a2.922,2.922,0,0,1,1.286.083l-.21-.136.841,0c.928.017.577.161.443.239l.628-.133.13.121c.455-.162.466.009,1.288-.135.073.041-.135.089.151.08l.678-.165.677-.19-.821.2.079-.2c.836-.253,1.167-.161,1.773-.356l-.411.151c.994-.281,1.065-.242,1.647-.4-.189.035-.469.087-.076-.087.318-.141.119.04.533-.133.052-.153,1.034-.676,1.756-1.265.013.013.02.03-.01.074a3.169,3.169,0,0,1,.513-.514l.009.182.376-.554c.108-.1.216-.206.316-.312.079-.1.285-.232.06-.25-.25-.085-.416-.144-.316-.15l.33.1-1.914-.733c-.492-.186-.924-.366-1.406-.508l-.415-.143,0-.114c-.3.059-1.359-.505-1.336-.3-.441-.264-1.891-.605-1.54-.7a46.739,46.739,0,0,1-4.53-1.708,38.591,38.591,0,0,0-3.82-1.829l-6.642-2.827c-1.411-.926-3.835-1.629-5.44-2.457l-.495-.1c-1.049-.605-2.819-1.113-4.359-1.815-.4-.1-.615-.16-.707-.188.072.029.175.087.189.158-.435-.214-1.384-.454-1.28-.551l.121.025c.107-.1-1.415-.387-1.9-.654l.242.218-.865-.3.241.048c-1.955-.387-3.328-.809-4.7-1.129a27.592,27.592,0,0,0-4.575-.831c.511-.067-.734-.045-.761-.2a8.061,8.061,0,0,0-2.5-.241c0,.007-.01.015-.056.021l-1.336-.147c.82-.126-.981.078-.23-.025a67.369,67.369,0,0,0-12.131-.236l.181.039c-1.026.075-2.3.2-3.083.23a10.654,10.654,0,0,0-1.981.371c-.837.191-1.626.161-1.264.105-.9.182-1.724.455-2.978.638-.464-.1-3.352.862-3.424.716l-.01.02a11.315,11.315,0,0,0-1.312.28c3.742-2.143,7.391-4.4,10.841-6.683a66.765,66.765,0,0,1,6.721-.929c1.216-.029,2.723.01,3.217.008.808.055,1.8-.106,2.813-.057a5.51,5.51,0,0,1,1.607.163c1,.066-.2-.093.2-.091l1.2.128c-.7,0-.321.049-.193.082a22.738,22.738,0,0,0,3,.1c1.4.131,1.4.205,2,.251a3.913,3.913,0,0,1-.6-.125c.557.105.268,0,.039-.029.865-.026,4.415.606,4.608.47l0,.031c.211-.106-.1-.254.506-.27l.393.1.606.011c.4.083.2.1.194.109.983.042,2.337.268,3.516.433l-1.211-.488a21.355,21.355,0,0,0,2.979.5l.583.192c1.965.482,1.406.1,2.192.275l.985.267-1-.146c.989.206,1.381.3,2.163.5l.009,0a.253.253,0,0,1-.094-.033l.139.018a5.093,5.093,0,0,1,1.357.1c.993.165,1.786.2,3.356.572l.417-.063,1.184.26-.016.1c-1.169-.171-3.381-.494-4.882-.715l-.033.043,2.5.347c.284.063,1,.281.459.266l.567-.013c2.98.451,3,.452,6.1,1.034l-.263-.091a5.34,5.34,0,0,1,1.405.23c1.87.288,3.806.619,5.012.9l.283-.083c.4.056.97.311,1.184.169l.857.045a12.985,12.985,0,0,1,1.5.179h0c.036.009.074.018.115.026l-.005-.009c1.229.181,0-.105,1.406.1.445.129.516-.1,1.2-.007l.678.231a32.294,32.294,0,0,0,3.287.162c.87.109,1.286.277.7.375a6.105,6.105,0,0,1,1.427-.1c.16.068.047.08-.19.128a6.473,6.473,0,0,0,1.292-.015,1.71,1.71,0,0,1,.682-.3l-.273-.045a22.255,22.255,0,0,1,2.438,0l-.033.061.928-.031.058.079.663-.017.662-.031-.182-.017c.311-.019,1.331-.076,1.917-.054l-.02.044a32.76,32.76,0,0,0,4.926-.438l-.243.113c.665.021.165-.152.95-.188l.051.1a3.07,3.07,0,0,1,1.372-.107l-.24-.109.893-.1c.987-.094.63.091.5.185l.325-.1.323-.117.152.1c.461-.234.49-.068,1.328-.3.08.035-.131.1.163.066l.685-.217.7-.25-.429.141-.422.126.066-.2c.864-.322,1.228-.262,1.856-.519l-.427.193c1.039-.382,1.118-.352,1.728-.586-.2.055-.5.137-.087-.079.3-.165.194-.029.493-.166,0-.075.181-.228.429-.429l.411-.342.23-.2c.087-.089.181-.182.287-.289.006.018,0,.046-.037.106.183-.214.227-.347.533-.738l-.035.286a4.879,4.879,0,0,0,.312-.845,7.8,7.8,0,0,0,.283-.876c.021-.069.039-.131.054-.184s.031-.1-.025-.1c-.07-.031-.095-.05-.05-.055a.669.669,0,0,1,.162.06c-.017.08-.035.158-.035.158a.721.721,0,0,0,.044-.182l-.486-.185c-.4-.155-.941-.362-1.482-.568l-1.57-.426-.014-.114c-.317.083-1.557-.406-1.5-.194-.524-.216-2.154-.332-1.8-.477-1.9-.335-2.953-.276-5.241-.658a37.466,37.466,0,0,0-4.509-.663c-2.87-.271-4.706-.444-7.579-.959-1.667-.592-4.3-.895-6.1-1.538l-.529-.041c-1.179-.488-3.093-.835-4.766-1.481-.432-.082-.656-.131-.756-.157.077.028.19.079.21.151-.478-.184-1.486-.417-1.382-.517l.129.024c.108-.1-1.509-.368-2.029-.629l.265.215-.93-.28.259.043c-4.142-.811-5.913-1.692-9.9-2.093.546-.068-.79-.044-.819-.2a7.81,7.81,0,0,0-2.688-.216c0,.008-.011.017-.06.024l-1.436-.14c.873-.14-1.046.1-.246-.027a55.572,55.572,0,0,0-12.994.585l.195.019c-1.087.194-2.432.467-3.262.592a9.731,9.731,0,0,0-2.068.628,3.776,3.776,0,0,1-1.42.307c-.91.268-1.711.74-2.993,1.052-.5-.015-3.418,1.443-3.512,1.313l-.008.022c-.106.032-.2.079-.306.115,1.908-1.658,3.62-3.145,5.333-4.636l-.064.08.9-.876c.046-.029.06-.022.038.014.686-.732,1.73-1.669,2.723-2.585,1.288-.593,2.608-1.11,3.952-1.573.132-.037.266-.072.4-.107,1.166-.314,2.375-.563,2.829-.675.931-.155,2.037-.545,3.2-.739a6.679,6.679,0,0,1,1.874-.183c1.162-.153-.249-.046.213-.132l1.4-.126c-.8.13-.36.11-.209.117a33.194,33.194,0,0,0,3.467-.467c1.635-.107,1.644-.038,2.344-.094a5.149,5.149,0,0,1-.71-.021c.658.009.31-.045.041-.035.99-.185,5.2-.117,5.4-.279l0,.03c.226-.135-.155-.236.543-.341l.469.03.7-.085c.474.019.244.062.245.078,1.143-.112,2.749-.1,4.14-.137l-1.486-.283a26.257,26.257,0,0,0,3.531,0l.71.087a10.8,10.8,0,0,0,2.585-.138l1.189.065-1.178.056,2.6.046.01,0a.4.4,0,0,1-.117-.011l.165-.013a7.548,7.548,0,0,1,1.583-.2c1.182-.067,2.095-.227,3.991-.292l.455-.176,1.42-.1.013.1c-1.384.18-3.99.476-5.773.6l-.028.048c1.057-.07,2.257-.224,2.956-.28.342-.016,1.225,0,.6.132l.643-.165c3.524-.439,3.547-.449,7.219-1.039l-.326.017a7.42,7.42,0,0,1,1.646-.322l5.846-1.366.267-.211c.449-.139,1.181-.189,1.346-.418l.47-.184.463-.2c.61-.213.956-.411,1.67-.6h0c.043-.01.088-.022.136-.035l-.012-.006c1.374-.493-.051-.092,1.522-.653.528-.129.5-.353,1.25-.653l.814-.177a30.966,30.966,0,0,0,3.46-1.717c.941-.412,1.442-.532.9-.092a8.141,8.141,0,0,1,1.389-.943c.2-.034.089.04-.127.22,1.013-.452.57-.378,1.294-.786a2.152,2.152,0,0,1,.522-.675l-.3.129c.732-.487,1.532-1.011,2.422-1.51v.071l.9-.6.1.027,1.27-.89-.188.1c.3-.212,1.2-.838,1.836-1.286l.006.051a35.661,35.661,0,0,0,4.5-3.621l-.168.26c.642-.433.072-.24.8-.8l.106.051a4.366,4.366,0,0,1,1.252-1l-.287.068.791-.682c.873-.745.638-.347.565-.179l.495-.613.2-.013c.316-.5.432-.372,1.1-1.109.093-.022-.073.169.188-.046l1.075-1.242-.669.727-.037-.216a15.462,15.462,0,0,1,1.538-1.457l-.335.378a9.9,9.9,0,0,1,1.483-1.224c-.179.11-.452.28-.1-.052.26-.237.187-.077.452-.277-.021-.146.586-.748,1.223-1.18,0,.019,0,.043-.031.083a3.173,3.173,0,0,1,.654-.543l-.184.315s.214-.2.429-.406l.415-.38a10.289,10.289,0,0,1,1.628-1.076l-.376.269Zm-45.274-123.41.113.018h0Zm-29.828,121.551.017.005-.025.01Z" fill="#c8b86e"/>
          <path id="Trazado_203741" data-name="Trazado 203741" d="M.39,429.339a94.71,94.71,0,0,0,22.886-8.611,97.671,97.671,0,0,0,10.433-6.408,95.222,95.222,0,0,0,9.49-7.735,74.9,74.9,0,0,0,8.305-9.006c1.313-1.577,2.4-3.32,3.549-5.011,1.04-1.762,2.114-3.505,3.011-5.344a91.024,91.024,0,0,0,4.821-11.233c1.387-3.827,2.6-7.709,3.726-11.605,2.286-7.783,4.295-15.632,7.026-23.231a199.623,199.623,0,0,1,9.395-22.333c3.712-7.145,8.079-14.05,13.852-19.685a56.742,56.742,0,0,1,4.506-4.007c.8-.6,1.64-1.161,2.459-1.744l1.235-.865,1.311-.744c.878-.491,1.745-1,2.63-1.476l2.759-1.219c.463-.2.915-.419,1.385-.6l1.434-.467,2.871-.932-.152-.572a47.288,47.288,0,0,0-20.952,12.1c-5.888,5.677-10.339,12.628-14.122,19.8A200.837,200.837,0,0,0,72.67,340.8c-2.8,7.643-4.858,15.5-7.185,23.248-1.149,3.878-2.374,7.728-3.77,11.511a89.805,89.805,0,0,1-4.822,11.054c-.893,1.8-1.956,3.5-2.985,5.224-1.138,1.647-2.207,3.347-3.5,4.878a73.408,73.408,0,0,1-8.207,8.79,93.332,93.332,0,0,1-9.378,7.552,95.972,95.972,0,0,1-10.3,6.241A93.075,93.075,0,0,1,0,427.627Z" fill="#9e8466"/>
          <path id="Trazado_203742" data-name="Trazado 203742" d="M39.385,407.709c4.078-4.692,3.611-14.812,3.624-20.465.022-9.431-4.737-16.14-9.718-23.7-3.834-5.818-7.3-11.832-10.648-17.951a39.582,39.582,0,0,1-5.012-16.135c-1.229,3.631-1.193,9.123-1.453,12.947-.339,4.971-1.028,9.843-.974,14.833a89.468,89.468,0,0,0,4.674,25.7c3.566,10.645,8.556,21.383,19.507,24.767" fill="#9e8466"/>
          <path id="Trazado_203743" data-name="Trazado 203743" d="M102.274,290.968c9.716.317,17.882-1.2,27.23,2.9,6.908,3.032,12.833,7.159,20.724,6.825-13.974,5.119-26.051,6.176-40.6,2.623-5.252-1.283-15.716-9.838-7.352-12.346" fill="#9e8466"/>
          <path id="Trazado_203744" data-name="Trazado 203744" d="M111.775,285.348c5.7-6.731,5.564-17.022,5.221-25.146-.278-6.547.594-13.4.294-19.806-.1,5.183-5.047,12.063-7.689,16.44A66.3,66.3,0,0,0,102.281,273c-3.164,10.828,3.328,19.052,9.494,12.344" fill="#9e8466"/>
          <path id="Trazado_203745" data-name="Trazado 203745" d="M83.8,316.676c2.633-5.608,3.072-10.15,2.162-16.322-1.244-8.425-6.889-15.176-11.612-22.081-1.721-2.515-4.064-4.492-5.808-7a80.34,80.34,0,0,1-5.379-8.9c-1.81-3.512-3.738-7.277-4.369-11.214,1.284,7.581,1.215,15.532,3.052,23,1.452,5.91,6.7,9.511,7.767,15.732.522,3.061.305,6.258.512,9.358.221,3.325.15,8.358,1.844,11.31,2.531,4.41,7.6,3.837,11.831,6.123" fill="#9e8466"/>
          <path id="Trazado_203746" data-name="Trazado 203746" d="M77.422,329.959a36.544,36.544,0,0,1,7.3-2.879,25.344,25.344,0,0,1,8.252-.262c4.441.6,8.656,2.058,13.176,2.555,5.533.61,11.048.559,16.2-1.685,2.4-1.043,4.954-1.7,7.272-2.919,1.515-.794,2.692-2,4.117-2.824-.9,6.013-8.3,12.459-14.075,13.872-7.112,1.738-14.675,1.17-21.779,3.272-4.932,1.46-10.837,4.866-15.935,1.465a10.934,10.934,0,0,1-4.527-10.595" fill="#9e8466"/>
          <path id="Trazado_203747" data-name="Trazado 203747" d="M65.12,365.081c3.452-3.631-.035-10.82-2.846-13.683C58.155,347.2,53,345,50.3,339.519a65.957,65.957,0,0,1-4.57-13.843c-.652-2.828-1.251-5.659-1.73-8.529-.469-2.822-1.874-5.5-2.116-8.347-1.311,4.821-1.2,10.663-2.12,15.759A50.929,50.929,0,0,0,41.1,349.172c1.944,6.23,4.773,12.617,11.785,14.417,2.725.7,9.729-.156,12.235,1.492" fill="#9e8466"/>
          <path id="Trazado_203748" data-name="Trazado 203748" d="M61.231,380.828c4.229-7.439,14.559-15.838,22.54-19,6.347-2.518,12.791-2.66,19.45-2.923,5.8-.228,11.683.75,17.5,1.023,7.505.353,13.677-2.838,20.864-4.762-16.6,15.329-41.065,18.914-59.536,31.3-5.8,3.888-16.766,10.547-23.021,4.766-4.454-4.118,1.6-8.7,2.206-10.4" fill="#9e8466"/>
          <path id="Trazado_203749" data-name="Trazado 203749" d="M115.638,284.744c5.64,7.178,15.063.056,18.5-5.483,1.247-2.012,2.052-4.13,3.722-5.846a63.676,63.676,0,0,1,5.785-5.705c-2.907,2.247-6.56,3.769-9.6,5.948-1.791,1.284-3.323,2.349-5.532,2.487a33.578,33.578,0,0,0-5.407.26c-3.012.678-7.628,4.493-7.469,8.339" fill="#9e8466"/>
          <path id="Trazado_203750" data-name="Trazado 203750" d="M26.513,418.122c.6,5.2,6.676,8.513,10.437,11.281,9.064,6.664,22.1,6.642,32.634,4.569,10.249-2.016,22.324-4.237,31.276-9.719a66.381,66.381,0,0,1,9.443-4.995c1.9-.808,4.548-3.433,6.023-4.584a63.671,63.671,0,0,0-6.058,2.382,63.761,63.761,0,0,1-11.879,3.507c-5.721,1.029-11.149,2.6-17,2.49-5.435-.1-10.295-.531-15.241-2.872-4-1.895-8.228-3.671-12.676-4.174a84.86,84.86,0,0,0-18.927.441c-3.2.408-6.147,1.788-8.031,1.674" fill="#9e8466"/>
          <path id="Trazado_203751" data-name="Trazado 203751" d="M286.471,502.262a94.711,94.711,0,0,1-22.886-8.611,97.672,97.672,0,0,1-10.433-6.408,95.227,95.227,0,0,1-9.49-7.735,74.98,74.98,0,0,1-8.305-9.006c-1.313-1.577-2.4-3.32-3.549-5.011-1.04-1.762-2.114-3.506-3.011-5.344a91.029,91.029,0,0,1-4.821-11.233c-1.387-3.827-2.6-7.71-3.726-11.605-2.286-7.783-4.295-15.632-7.026-23.232a199.685,199.685,0,0,0-9.4-22.332c-3.712-7.145-8.079-14.05-13.852-19.685a56.541,56.541,0,0,0-4.506-4.007c-.8-.6-1.64-1.161-2.459-1.744l-1.235-.865-1.311-.744c-.878-.491-1.745-1-2.63-1.476l-2.759-1.219c-.463-.2-.915-.419-1.385-.6l-1.434-.467-2.871-.932.152-.572a47.288,47.288,0,0,1,20.952,12.1c5.888,5.677,10.339,12.628,14.122,19.8a200.834,200.834,0,0,1,9.578,22.388c2.8,7.643,4.858,15.5,7.185,23.248,1.149,3.878,2.374,7.728,3.77,11.511a89.8,89.8,0,0,0,4.822,11.054c.893,1.8,1.956,3.5,2.985,5.224,1.138,1.647,2.207,3.347,3.5,4.878a73.409,73.409,0,0,0,8.207,8.79,93.326,93.326,0,0,0,9.378,7.552,95.968,95.968,0,0,0,10.3,6.241,93.03,93.03,0,0,0,22.525,8.323Z" fill="#9e8466"/>
          <path id="Trazado_203752" data-name="Trazado 203752" d="M247.476,480.632c-4.078-4.692-3.61-14.812-3.624-20.465-.022-9.431,4.737-16.14,9.718-23.7,3.834-5.818,7.3-11.832,10.648-17.951a39.583,39.583,0,0,0,5.012-16.135c1.229,3.631,1.193,9.122,1.453,12.947.339,4.971,1.028,9.843.974,14.833a89.468,89.468,0,0,1-4.674,25.7c-3.566,10.645-8.556,21.383-19.507,24.767" fill="#9e8466"/>
          <path id="Trazado_203753" data-name="Trazado 203753" d="M184.587,363.891c-9.716.317-17.882-1.2-27.23,2.9-6.908,3.032-12.833,7.159-20.724,6.825,13.974,5.119,26.051,6.176,40.6,2.623,5.252-1.283,15.716-9.838,7.352-12.346" fill="#9e8466"/>
          <path id="Trazado_203754" data-name="Trazado 203754" d="M175.086,358.271c-5.7-6.731-5.564-17.022-5.221-25.146.278-6.547-.594-13.4-.294-19.806.1,5.183,5.047,12.063,7.689,16.44a66.3,66.3,0,0,1,7.32,16.168c3.164,10.828-3.328,19.052-9.494,12.344" fill="#9e8466"/>
          <path id="Trazado_203755" data-name="Trazado 203755" d="M203.059,389.6c-2.633-5.608-3.072-10.15-2.162-16.322,1.244-8.425,6.889-15.176,11.612-22.081,1.721-2.515,4.064-4.492,5.808-7a80.337,80.337,0,0,0,5.379-8.9c1.81-3.513,3.738-7.277,4.369-11.214-1.284,7.581-1.215,15.532-3.052,23-1.452,5.91-6.7,9.511-7.767,15.732-.522,3.061-.305,6.258-.512,9.359-.221,3.324-.15,8.357-1.843,11.309-2.532,4.41-7.6,3.837-11.832,6.123" fill="#9e8466"/>
          <path id="Trazado_203756" data-name="Trazado 203756" d="M209.438,402.882a36.546,36.546,0,0,0-7.3-2.879,25.343,25.343,0,0,0-8.252-.262c-4.44.6-8.656,2.058-13.176,2.555-5.533.61-11.047.559-16.2-1.685-2.4-1.043-4.953-1.7-7.271-2.919-1.516-.794-2.693-2-4.118-2.824.9,6.013,8.3,12.459,14.075,13.872,7.112,1.738,14.675,1.17,21.779,3.272,4.932,1.46,10.837,4.866,15.935,1.465a10.934,10.934,0,0,0,4.527-10.6" fill="#9e8466"/>
          <path id="Trazado_203757" data-name="Trazado 203757" d="M221.74,438c-3.452-3.631.035-10.819,2.846-13.682,4.119-4.195,9.27-6.4,11.972-11.88a65.957,65.957,0,0,0,4.57-13.843c.652-2.828,1.251-5.658,1.73-8.529.469-2.822,1.874-5.5,2.116-8.347,1.311,4.821,1.2,10.663,2.12,15.759A50.929,50.929,0,0,1,245.76,422.1c-1.944,6.23-4.773,12.617-11.786,14.417-2.724.7-9.728-.155-12.234,1.492" fill="#9e8466"/>
          <path id="Trazado_203758" data-name="Trazado 203758" d="M225.63,453.751c-4.229-7.439-14.559-15.838-22.54-19.005-6.347-2.517-12.791-2.659-19.45-2.922-5.8-.229-11.683.75-17.5,1.023-7.505.353-13.677-2.838-20.864-4.762,16.6,15.329,41.065,18.914,59.536,31.3,5.8,3.888,16.766,10.547,23.021,4.766,4.454-4.118-1.6-8.7-2.206-10.4" fill="#9e8466"/>
          <path id="Trazado_203759" data-name="Trazado 203759" d="M171.223,357.667c-5.64,7.178-15.063.056-18.5-5.483-1.247-2.012-2.052-4.13-3.722-5.846a63.678,63.678,0,0,0-5.785-5.705c2.907,2.247,6.56,3.769,9.6,5.948,1.791,1.284,3.322,2.349,5.532,2.487a33.575,33.575,0,0,1,5.407.26c3.012.678,7.628,4.493,7.469,8.339" fill="#9e8466"/>
          <path id="Trazado_203760" data-name="Trazado 203760" d="M260.347,491.045c-.6,5.2-6.676,8.513-10.437,11.281-9.064,6.664-22.1,6.642-32.634,4.569-10.249-2.015-22.324-4.237-31.276-9.719a66.378,66.378,0,0,0-9.443-4.995c-1.9-.808-4.548-3.433-6.023-4.584a63.677,63.677,0,0,1,6.058,2.382,63.762,63.762,0,0,0,11.879,3.507c5.721,1.029,11.149,2.6,17,2.49,5.435-.1,10.295-.531,15.241-2.872,4-1.895,8.227-3.67,12.676-4.174a84.86,84.86,0,0,1,18.927.441c3.2.408,6.147,1.788,8.031,1.674" fill="#9e8466"/>
          <path id="Trazado_203761" data-name="Trazado 203761" d="M1220.848,143.408c-23.922,3.727-48.626-2.008-66.863-18.558-15.685-14.233-26.482-38.531-11.731-57.3,5.4-6.873,12.977-11.634,20.4-16.255l63.019-39.254C1235.236,6.082,1245.483-.079,1256.75,0c12.246.088,23.4,7.757,30.939,17.411,17.653,22.616,17.733,56.241,3.208,80.98s-41.706,40.6-70.049,45.016" fill="#c8b86e"/>
          <path id="Trazado_203762" data-name="Trazado 203762" d="M411.621,486.178c-19.536-10.022-36.027-24.512-53.448-37.605-12.22-9.184-14.889-23.258-12.238-36.886,5.256-27.034,14.167-52.589,38.732-69.313,9.714-6.612,18.672-9.194,29.749-2.821,9.781,5.626,19.241,11.495,26.228,20.319,24.806,31.33,52.908,60.135,73.15,94.968a81.573,81.573,0,0,1,5.724,12.31c8.764,23.346,2.3,33.982-22.467,35.133-29.612,1.377-58.485-2.381-85.43-16.1" fill="#c9b36d"/>
        </g>
      </g>
    </g>
  </g>
</svg>
