<svg xmlns="http://www.w3.org/2000/svg" xmlns:xlink="http://www.w3.org/1999/xlink" width="628" height="236" viewBox="0 0 628 236">
  <defs>
    <filter id="Rectángulo_42989" x="0" y="0" width="628" height="236" filterUnits="userSpaceOnUse">
      <feOffset dy="3" input="SourceAlpha"/>
      <feGaussianBlur stdDeviation="3" result="blur"/>
      <feFlood flood-opacity="0.161"/>
      <feComposite operator="in" in2="blur"/>
      <feComposite in="SourceGraphic"/>
    </filter>
    <clipPath id="clip-path">
      <rect id="Rectángulo_42991" data-name="Rectángulo 42991" width="140.751" height="128.908" fill="none"/>
    </clipPath>
  </defs>
  <g id="Grupo_137728" data-name="Grupo 137728" transform="translate(-801.285 -13830)">
    <g transform="matrix(1, 0, 0, 1, 801.29, 13830)" filter="url(#Rectángulo_42989)">
      <rect id="Rectángulo_42989-2" data-name="Rectángulo 42989" width="610" height="218" rx="10" transform="translate(9 6)" fill="#ca6432"/>
    </g>
    <g id="Grupo_132079" data-name="Grupo 132079" transform="translate(1045.285 13881)">
      <rect id="Rectángulo_42990" data-name="Rectángulo 42990" width="6.423" height="24.304" transform="translate(14.521 104.603)" fill="#fff"/>
      <g id="Grupo_132078" data-name="Grupo 132078" transform="translate(0 0)">
        <g id="Grupo_132077" data-name="Grupo 132077" clip-path="url(#clip-path)">
          <path id="Trazado_209043" data-name="Trazado 209043" d="M21.6,69.415v16.1h4.059a16.073,16.073,0,0,0,3.285-.235,5.224,5.224,0,0,0,2.2-1.007,5.033,5.033,0,0,0,1.424-2.346,14.352,14.352,0,0,0,.551-4.45,13.187,13.187,0,0,0-.551-4.331,5.488,5.488,0,0,0-1.542-2.353A5.411,5.411,0,0,0,28.5,69.649a27.09,27.09,0,0,0-4.459-.234Zm-5.433-4.108H26.1a21.577,21.577,0,0,1,5.121.463,9.174,9.174,0,0,1,4.059,2.239,10.421,10.421,0,0,1,2.572,3.934,16.316,16.316,0,0,1,.881,5.749,14.574,14.574,0,0,1-.826,5.17,10.588,10.588,0,0,1-2.883,4.294A9.831,9.831,0,0,1,31.2,89.1a18.1,18.1,0,0,1-4.808.514H16.164Z" transform="translate(9.726 39.296)" fill="#fff"/>
          <path id="Trazado_209044" data-name="Trazado 209044" d="M33.207,89.611v-24.3H50.973v4.11H38.046v5.39H50.072V78.9H38.046v6.615H51.43v4.1Z" transform="translate(19.981 39.296)" fill="#fff"/>
          <path id="Trazado_209045" data-name="Trazado 209045" d="M62.622,79.995l-3.708-9.016-3.639,9.016Zm10.007,9.617h-5.91l-2.354-5.523H53.607l-2.223,5.523H45.618L56.1,65.307h5.749Z" transform="translate(27.448 39.296)" fill="#fff"/>
          <path id="Trazado_209046" data-name="Trazado 209046" d="M63.906,89.611v-24.3h8.736l5.247,16.578,5.186-16.578h8.757v24.3H86.41V70.48L80.668,89.611H75.046L69.328,70.48V89.611Z" transform="translate(38.452 39.296)" fill="#fff"/>
          <path id="Trazado_209047" data-name="Trazado 209047" d="M57.7,68.293l-2.246.229L55.428,67.1a2.16,2.16,0,0,0-.524-1.411c.261-.735.274.224.261-.735l-.008-1.429a1.311,1.311,0,0,0-.509-.711l.485-1.916.224-3.817.708-1.919c.754.255.783.484,1.022.474a2.017,2.017,0,0,0,1.257-.237c-.01-.951-.006-1.184,1.006-1.211-.271-.687-.282-.468-.253-.9-.011-.272.7-1.959,1.989-1.959,1.2-4.288,1.978-2.614,3.721-4.541,1.007-.959.516-.955,2.258-1.908a5.066,5.066,0,0,1,3.266-1.209c1.76-.94,2.773-1.19,4.257-2.159l7.781,0,.266-.013c3.022-.035,3.786-.5,6.3.456.783.242,6.083,2.367,6.083,2.367.477,0,.485-.245,1-.479l.029.714c.975,0,1.249,0,1.249.961h1.009l-.011.714.255.216.751-1.43-.25-.24,3.532,1.414.253-.468c1.269.484,2.025.24,2.523,1.687l2.049-.034c.489,0,.485-.237,1-.469.754.7,12.881,6.405,13.637,6.381a1.825,1.825,0,0,0,1.28-.234l-.053-1.187c1.81.223,3.8,1.445,3.812,3.1l9.38,4.278c.006.689.259,1.152,1,1.185l1.254-.027c.5,0,2.028-.722,2.028-1.429l-.042-2.856c-.029-.974-1.286-1.208-1.768-1.917-.751-.719-1.051-1.443-2.266-1.417l-.045-.948-.738-.006c-.253-2.371-5.848-5.468-6.1-6.9h-1.023c-.772.01-.772-.464-.751-1.2H127l-.006-.921c-.018-.959-1.31-1.68-2.025-2.157-2.534-.706-.78-1.19-2.8-1.658-.271-2.174-3.3-4.288-4.821-5.473-1.288-1.164-4.088-4.525-5.1-5.231a64.712,64.712,0,0,0-4.571-4.994c-1.041-1.688-4.07-3.333-4.084-5.489-1.015.024-1.019-.208-1.022-1.185l-1.254-.46V15.2l-2.558-1.421-.256.234v-.956c-.008-.729-2.545-2.851-3.058-3.545-.762-.727-1.015-.25-1.771-1.434C92.9,7.381,92.655,7.1,91.89,6.4c-1.007-1.169-2.513-1.872-3.3-3.327A23.425,23.425,0,0,0,84.775,0H83.78L81,.245,70.257,8.867l.247.223c-.991.014-5.236,3.605-5.225,4.557H64.255l.022.956c-2.045.485-3.5,3.567-5.527,3.613-.479,1.661-1.744,1.156-2.742,2.62a23.183,23.183,0,0,0-4.262,3.1c-1.245.953-4.273,1.432-4.5,3.122-1.515,0-6.024,3.572-5.981,4.767-1.53.258-7.028,5.06-8.753,6.261A42.383,42.383,0,0,0,28.252,41.4c-1,.971-3.782,2.177-4,3.609-2.523.487-1.237,1.44-3,2.632a30.321,30.321,0,0,0-3.25,2.4,26.215,26.215,0,0,0-3.022,2.628c-.98.969-2.741,1.92-3.232,2.393-1.972,2.4-4.02,3.351-5.989,5.281-2.007,1.9-3.78,2.872-5.757,5.241L0,66.531c2.3,1.446,5.1,5.729,8.63,5.716l.235-.021c1.278.011,2.745-2.608,4.265-3.346,1.017-.465,2.752-3.8,2.72-4.775l.529,1.192c1,.01,1.757-.237,1.749-1.2L18.1,63.4l.751-.018c2.017.019,2.281-2.366,3.529-3.1,1.486-.966,3.011-1.682,2.976-3.817.991-.24.987-.959,1.518-.947a1.714,1.714,0,0,1,1.246.215l.77-.94c-.062-2.648-.292-1.912,1.477-1.44l.239-2.153c1.246-.237,3.745-1.917,3.745-3.109l1.023-.255-.014-1.408.727-.019c1-.019,0-.464,1.539-.476l.208-.956.527-1.2-.018.947,1.763-1.414-.256-.264c1.486-.227,10.725-11.214,13.224-11.476l-.011-.714,1.04-.722,2-.706.738.45,2-2.6,1.5-1.45L59.825,24.4l2.255.7c0-1.419.232-2.135,1.76-2.125a1.882,1.882,0,0,0,.247-1.211l.011-.714.972-.264,1.012-.448-.011-1.454.5.006c.014,1.914,1.528,2.369,1.515,1.219l-.008-1.448c-1.248-.5,1.241-1.424,1.739-1.9l.008.926.016.716c2-.237,2.737-2.385,3.5-3.575l-1-.235-.029-.7.759-.006a2.282,2.282,0,0,1,1.273.205l.006-.927c-.042-.95.727-.727,1.459-.939.54-.285.772-.99,1.269-1.456,1.014-1.672,2.262-1.7,2.262-2.862h.714l.287.71H85.1l2.036,1.152c.027,1.211,2.025,2.395,3.064,2.627-.006.95,14.228,15.239,15.762,16.155a84.407,84.407,0,0,0,7.1,6.907c1.028,1.2,6.349,6.2,6.876,7.134-1.792-.219-6.328-2.6-8.085-2.587-.492-.011-.253,0-1.036.237l-2.263-1.666-.226.227-.013.485c-1.241.01-2.01-.7-2.811-.948-1.485-.232-1.994.243-3.75-.223a49.309,49.309,0,0,0-5.314-2.372,55.889,55.889,0,0,0-13.11-1.863l-6.785.014-6.333.98.042.466-1.538-.239L64.709,36.77l-1.251.487.011.239-1.248-.242-.264.479-.754.245v.232l-.995-.224.006.461-1.011.029c-.77-.01-.506.466-1.262.466l-1.754,0-1.754,1.666.256.258h-.766c-.759,0-1.752,1.2-1.988,1.925-1,1.188-1.747.46-2.025,2.135l-1.493,0,.284,1.193-.524-.243.25.231-2.761,2.651,1.272-.016-.742,1.7.777-.032-.745.748.727.21c-.482.255-.738.006-.735.724l.011.959c.014.7-.011.466.527.714l-.527.7.271,2.643c-.735-.253-1.237-.481-1.248.5l.018.943c.021,1.421,1.248-.247,1.549,1.895l-1.033-.016.008.506-.253,1.176H44.8l.024.455,2-.448L46.6,63.809l-.277-1-1.237,1.206,1.493,1.451.774-.272.786,1.68.018,1.666.742.469-.245.263,0,1.418-1.245.49,1.022.46-.006.945-1.006-.221s2.556,2.872,2.795,3.082l.006,1.208-.492-.937-1.015.943c.006-.972.28-.476.245-1.437-.01-.719-.527-.242-.769-.239v-.913c-1.49.205-.748.205-1.265,1.18-.01-1.45-.259-1.462,1.277-1.45l.01-.487-1.3.014.25-.983-1.5-.469c-.018,1.208,0,1.453-1.272,1.453l-.011-1.672-1.015.248a1.589,1.589,0,0,0,.245-1.227c0-.924-.253-.453-.256-1.424l.738-.221.032,1.44,1.514-.239-.006-.49h-.513l-.535-3.6-1,.029-.021-.956L44.579,65l-.264-.971-.5.006.018.711-.762.013c0,.689.264.942.279,1.648l.01,1.688h.511l-1.009.719-.309-4.534-.756-.251c-.018-.955.264-.463.215-1.44.01-.943-.235-1.176-.7-1.4l1.458-.979c-.248-.714-.525-.956-1.51-.692l-.011-.979.253.49.764-.008.734-1.89-.5-.247-.5.237-.259-.235-2,.474.476-1.195-.759-.215,1.007-.993a.991.991,0,0,0-1.019-.431c-.256-.019-1,.951-1.257,1.195l.3,1.647-1.525.245,1.27,1.434-1.27-.232.288,3.319-.221,3.6.762-.013-.253.477.261.237c0,1.429.013,2.38,1.264,2.388l-.492,1.19L39.841,70l-.485.735-.266.934,1.019-.01V72.4h-.263l-.229.706,1.743-.956.024.234-.99.722-.014.49.492-.018c-.471,1.922.5.232,2.039,2.374l-.742.484,1.522.261-.253.918,1.249.98.761-.495.509.724-.759,0,1.046,2.145.253-.248-.292-.963.788.953H47.5v1.92l1-.255,1.8,2.4,1.251-.021c.777,2.648,3.785,1.914,4.309,3.57l1.011-.479-.754,1.172a12.7,12.7,0,0,1,2.3.495c.489,0,.242,0,.972-.25l.785.482.74-.247,1.256.466.537,1.442,2.031.01c.724-.022.714.215.967.689h1.528l.256-.742,1.763.018c.75.013.232.5,1.5.716l1.256-.951.01-.25.759,1.2.521,0-.021-.489.5.008V92.1c1.009-.022.5-.248,1.53-.263a2.051,2.051,0,0,0,.753.224l-.011-.716,1.24.732-.013-.961.772-.226,1.51.916v-.943l-.5.018V89.445l1,0-.006-.721,1.257-.251,1.006.493-.011-.742.774.248c.724-.464,2.5-1.177,2.47-2.4,3.317,0,3-3.085,4.768-3.338l2.5-3.34c.232,0,.253.242.73.223.524.019,1.286-.7,1.251-.956l1.265.259.267.942c-1.5.489-.991,1.408-2,1.408l-.767.018.029.474.513.016-1.012,1.163.247,1.2-.221.027v-.732c-1.775.484-.995,1.911-3.282,1.932.048,1.909-.49.95-1.238.963-.762-.019-.263.687-.239,1.161l-.753.013c-.778.022-1.028.251-1.77.251l.006.718-.263-.013.284.966-1.289-.489.271,1.451c-1.248.021-2.749.956-3.762.964l-.746-.019c-.242,1.209-1.466.95-2.526.969l-1.993,1.213.011,2.14,2.769-1.214-.234,1.442.25.251,1.233-1.225.77.493h-.748l-.011.493.285.226,2.473-1.93-.724,1.23,4-1.952.006-.726.756.495-.295-.955c2.031-.5,5.039-2.162,5.031-4.3,2.492-.5.735-2.633,3.508-2.633l-.043-1.442c.008-.711.258-.7,1.019-.719L95.875,82l-1.277.013,1.512-.473-.229-.251,1.488-1.19-.279-.956,1.251-.738.774-.229V77.7H98.109c1-1.434,1.477-3.093,3.211-4.08l0-1.671a1.756,1.756,0,0,0-.513-1.385l-.33-6.215-1.262-.476L100.218,61l.245-1.421,1.219-.722-.993-.229,1-.256,1.3,2.87-1.762.255,1.265,3.308h.279l.734-.237-.482-1.176,1.209-.487,1.574,4.522.288,2.164.506-.011c-.038-2.856,1.736-2.614,1.707-3.62a1.274,1.274,0,0,0-.519-.927l.508-1.451h-.519v.509l-1.257-1.211.743-.219.759.477v-.716l-.516-.026.253-.929-1.486.461.232-1.414,1.015-.006-.026-.469-1.011-.255c-.035-3.817-10.212-15.221-13.754-15.219l-2.018-.711.014.248c-1.293-1.663-3.282-1.9-6.311-1.642-2,.016-5.053,0-6.546.016l-2.031-.016.024.469-1.522.024-1.522.242.521.974-.762-.03s-3.243.983-3.5.983c-1.264.955-1.985.939-1.977,2.146-1.515.016-1.771,1.2-2.769,2.162-1.5,1.18-.995,2.129-2.01,2.854-1.227.953-1.744.951-1.978,2.869-.237,1.206-.45,3.107-1.7,3.107-.293-.959-.029-.947-1.3-.95l.766.966,0,1.422-1.233-.473-.269.243,1.534,1.179.259-.237-.006.481-1.278-.013.016-.452H56.62l.032,1.187c.013.706-.008.463.484.729l.019-.729,1,.713-.762.008c.5,1.671-1.48,1.911-1.474,2.854l0,.732.745-.026,0,.724.259-.232,1.022.955Zm31.52,2.052c-.762.474-3.75,3.589-3.753,4.281.011.493.014.258.266.967-1,.237-2.979,4.792-6.517,4.805l.011.668-3.522.059v-.489l-3.275.245c-.234.237-.5.49-.748.481-3.509.026-2.049-2.611-5.795-2.617-1.3-.942-4.856-4.991-6.367-4.975h-.748l.513,1.2-.524,0,.026.46-3.043-1.9-.229.255-.021-.724,1.767.943-.037-1.671c-.767-.245-1.283-2.377-1.265-3.346L57.48,69l-.013.724-.474-.026-.018.482,1.514.234-.777-.945,1.259.46.983-1.422.014-1.2-.762.018,1.015-.975a2,2,0,0,1,.256,1.209l.006.471a1.254,1.254,0,0,1-.253.959l.524,1.672,3.54,1.659.013.711c0,.485.247.722.756.722l1.027.006.013.929,6.29,1.9-.016-.24-.5-1.179-2.537-.489.495-1.2c-1.249-.213-1.763-.934-1.788-2.363a.543.543,0,0,1,.513-.476c.492,0,2.779,1.893,4.565,2.374,3.04,1.166,2.508.448,5.784.448l.753-.474c4.275-.019,6.008-4.786,3.456-6.471l-.492.253-.5.714-.006-2.612-1.033.237.011-.237-2.266-.948-1.259.729a1.854,1.854,0,0,1,.274,1.185v1.2c-.783.223-.748.453-1.767.476l-1.491.022c-.778-.045-1.057-1.466-1.025-2.191-.038-3.34,2.178-7.153,5.7-7.139l2.3-.01c6.283-.016,5.827,4.746,7.6,5.212,0,.711-.271.95-.232,1.664l-.014.256Z" transform="translate(0 0.001)" fill="#fff"/>
        </g>
      </g>
    </g>
  </g>
</svg>
