<svg xmlns="http://www.w3.org/2000/svg" xmlns:xlink="http://www.w3.org/1999/xlink" width="360.285" height="41.5" viewBox="0 0 360.285 41.5">
  <defs>
    <clipPath id="clip-path">
      <rect id="Rectángulo_42687" data-name="Rectángulo 42687" width="36" height="41.333" fill="none"/>
    </clipPath>
  </defs>
  <g id="Grupo_137739" data-name="Grupo 137739" transform="translate(-180.285 -7796.5)">
    <path id="Trazado_205862" data-name="Trazado 205862" d="M0,480H322.939v1.5H0Zm0,0" transform="translate(180.281 7356.5)"/>
    <path id="Trazado_215050" data-name="Trazado 215050" d="M4.727,21H1.309V6.781H4.727Zm5.342-10.566.107,1.24a3.633,3.633,0,0,1,3.018-1.436A2.675,2.675,0,0,1,15.9,11.83,3.517,3.517,0,0,1,19,10.238q3.213,0,3.3,3.887V21H19V14.33a2.014,2.014,0,0,0-.273-1.182,1.164,1.164,0,0,0-1-.371,1.559,1.559,0,0,0-1.455.869l.01.137V21h-3.3V14.35a2.117,2.117,0,0,0-.264-1.2,1.161,1.161,0,0,0-1.006-.371,1.578,1.578,0,0,0-1.445.869V21H6.982V10.434Zm23.926,5.361a6.372,6.372,0,0,1-1.108,3.931,3.554,3.554,0,0,1-2.993,1.47A3.046,3.046,0,0,1,27.5,20.131v4.932H24.209V10.434h3.076l.1.977a3.046,3.046,0,0,1,2.49-1.172,3.582,3.582,0,0,1,3.037,1.44,6.45,6.45,0,0,1,1.084,3.96ZM30.7,15.59q0-2.812-1.641-2.812a1.549,1.549,0,0,0-1.562.84v4.16a1.6,1.6,0,0,0,1.582.879q1.572,0,1.621-2.715Zm4.326.029a6.236,6.236,0,0,1,.615-2.817,4.4,4.4,0,0,1,1.768-1.9,5.323,5.323,0,0,1,2.705-.664,4.858,4.858,0,0,1,3.74,1.47,5.64,5.64,0,0,1,1.367,4v.117a5.472,5.472,0,0,1-1.372,3.921,4.871,4.871,0,0,1-3.716,1.45,4.927,4.927,0,0,1-3.623-1.353,5.29,5.29,0,0,1-1.475-3.667Zm3.291.205a3.932,3.932,0,0,0,.459,2.148,1.529,1.529,0,0,0,1.357.684q1.758,0,1.8-2.705v-.332q0-2.842-1.816-2.842-1.65,0-1.787,2.451Zm14.746-2.412-1.084-.078a1.947,1.947,0,0,0-1.992.977V21H46.7V10.434h3.086l.107,1.357a2.548,2.548,0,0,1,2.314-1.553,3.209,3.209,0,0,1,.918.117Zm5.508-5.605v2.627h1.738v2.285H58.574v4.834a1.234,1.234,0,0,0,.215.83,1.152,1.152,0,0,0,.85.234,4.828,4.828,0,0,0,.82-.059v2.354A6.074,6.074,0,0,1,58.6,21.2a3.448,3.448,0,0,1-2.51-.8,3.282,3.282,0,0,1-.811-2.432V12.719H53.936V10.434h1.348V7.807ZM67.559,21a3.716,3.716,0,0,1-.312-.947A3.06,3.06,0,0,1,64.707,21.2a3.749,3.749,0,0,1-2.539-.9,2.875,2.875,0,0,1-1.045-2.271,2.955,2.955,0,0,1,1.27-2.6,6.468,6.468,0,0,1,3.691-.879H67.1v-.559q0-1.462-1.26-1.462a1.03,1.03,0,0,0-1.172,1.158H61.377a2.95,2.95,0,0,1,1.3-2.487,5.479,5.479,0,0,1,3.325-.956,4.8,4.8,0,0,1,3.193.986,3.429,3.429,0,0,1,1.2,2.705v4.678a4.79,4.79,0,0,0,.449,2.227V21ZM65.5,18.852a1.836,1.836,0,0,0,1.021-.264,1.653,1.653,0,0,0,.581-.6V16.3h-.957q-1.719,0-1.719,1.543a.942.942,0,0,0,.3.728A1.1,1.1,0,0,0,65.5,18.852Zm9.746-8.418.107,1.24a3.583,3.583,0,0,1,3.018-1.436,3.015,3.015,0,0,1,2.466.986,4.7,4.7,0,0,1,.845,2.969V21h-3.3V14.33a1.783,1.783,0,0,0-.322-1.177,1.491,1.491,0,0,0-1.172-.376,1.569,1.569,0,0,0-1.436.762V21H72.158V10.434Zm12.725,8.223a1.464,1.464,0,0,0,1.074-.376,1.379,1.379,0,0,0,.371-1.05H92.5a3.653,3.653,0,0,1-1.245,2.852A4.631,4.631,0,0,1,88.047,21.2a4.689,4.689,0,0,1-3.633-1.445,5.7,5.7,0,0,1-1.328-4v-.137a6.436,6.436,0,0,1,.591-2.827,4.3,4.3,0,0,1,1.7-1.885,5.081,5.081,0,0,1,2.637-.659,4.573,4.573,0,0,1,3.271,1.143,4.053,4.053,0,0,1,1.211,3.1H89.414a1.806,1.806,0,0,0-.4-1.26,1.382,1.382,0,0,0-1.074-.439q-1.279,0-1.494,1.631a11.508,11.508,0,0,0-.068,1.426,4.52,4.52,0,0,0,.381,2.207A1.319,1.319,0,0,0,87.969,18.656ZM97.363,21h-3.3V10.434h3.3Zm-3.5-13.291a1.469,1.469,0,0,1,.508-1.152,2.159,2.159,0,0,1,2.637,0,1.469,1.469,0,0,1,.508,1.152,1.469,1.469,0,0,1-.508,1.152,2.159,2.159,0,0,1-2.637,0A1.469,1.469,0,0,1,93.867,7.709ZM105.342,21a3.716,3.716,0,0,1-.312-.947A3.06,3.06,0,0,1,102.49,21.2a3.749,3.749,0,0,1-2.539-.9,2.875,2.875,0,0,1-1.045-2.271,2.955,2.955,0,0,1,1.27-2.6,6.468,6.468,0,0,1,3.691-.879h1.016v-.559q0-1.462-1.26-1.462a1.03,1.03,0,0,0-1.172,1.158H99.16a2.95,2.95,0,0,1,1.3-2.487,5.479,5.479,0,0,1,3.325-.956,4.8,4.8,0,0,1,3.193.986,3.429,3.429,0,0,1,1.2,2.705v4.678a4.79,4.79,0,0,0,.449,2.227V21Zm-2.061-2.148a1.836,1.836,0,0,0,1.021-.264,1.653,1.653,0,0,0,.581-.6V16.3h-.957q-1.719,0-1.719,1.543a.942.942,0,0,0,.3.728A1.1,1.1,0,0,0,103.281,18.852Zm11.289-3.213a6.455,6.455,0,0,1,1.084-3.955,3.568,3.568,0,0,1,3.027-1.445,3.035,3.035,0,0,1,2.383,1.113V6h3.3V21h-2.959l-.166-1.133a3.116,3.116,0,0,1-2.578,1.328,3.562,3.562,0,0,1-2.988-1.445A6.659,6.659,0,0,1,114.57,15.639Zm3.291.205q0,2.813,1.641,2.813a1.62,1.62,0,0,0,1.563-.918V13.715a1.576,1.576,0,0,0-1.543-.937q-1.523,0-1.65,2.461ZM131.348,21.2a5.432,5.432,0,0,1-3.936-1.45,5.008,5.008,0,0,1-1.5-3.774V15.7a6.489,6.489,0,0,1,.6-2.861,4.395,4.395,0,0,1,1.753-1.919A5.292,5.292,0,0,1,131,10.238a4.574,4.574,0,0,1,3.516,1.382,5.43,5.43,0,0,1,1.289,3.853v1.279h-6.543a2.372,2.372,0,0,0,.771,1.4,2.3,2.3,0,0,0,1.543.508,2.958,2.958,0,0,0,2.441-1.094l1.5,1.777a4.2,4.2,0,0,1-1.743,1.353A5.891,5.891,0,0,1,131.348,21.2Zm-.371-8.418q-1.445,0-1.719,1.914h3.32v-.254a1.63,1.63,0,0,0-.4-1.226A1.593,1.593,0,0,0,130.977,12.777ZM145.576,21h-3.3V6h3.3Zm7.979,0a3.716,3.716,0,0,1-.312-.947A3.06,3.06,0,0,1,150.7,21.2a3.749,3.749,0,0,1-2.539-.9,2.875,2.875,0,0,1-1.045-2.271,2.955,2.955,0,0,1,1.27-2.6,6.468,6.468,0,0,1,3.691-.879H153.1v-.559q0-1.462-1.26-1.462a1.03,1.03,0,0,0-1.172,1.158h-3.291a2.95,2.95,0,0,1,1.3-2.487A5.479,5.479,0,0,1,152,10.238a4.8,4.8,0,0,1,3.193.986,3.429,3.429,0,0,1,1.2,2.705v4.678a4.79,4.79,0,0,0,.449,2.227V21Zm-2.061-2.148a1.836,1.836,0,0,0,1.021-.264,1.653,1.653,0,0,0,.581-.6V16.3h-.957q-1.719,0-1.719,1.543a.942.942,0,0,0,.3.728A1.1,1.1,0,0,0,151.494,18.852Zm12.256-.82a.76.76,0,0,0-.439-.674,6.684,6.684,0,0,0-1.67-.527,7.615,7.615,0,0,1-2.031-.718,3.4,3.4,0,0,1-1.221-1.079,2.577,2.577,0,0,1-.42-1.455,2.92,2.92,0,0,1,1.2-2.4,4.948,4.948,0,0,1,3.145-.942,5.482,5.482,0,0,1,3.359.947,2.962,2.962,0,0,1,1.27,2.49h-3.3q0-1.27-1.338-1.27a1.326,1.326,0,0,0-.869.288.892.892,0,0,0-.352.718.819.819,0,0,0,.43.713,4.06,4.06,0,0,0,1.372.449,11.857,11.857,0,0,1,1.655.42,3.007,3.007,0,0,1,2.383,2.939,2.767,2.767,0,0,1-1.284,2.354,5.632,5.632,0,0,1-3.325.908,5.747,5.747,0,0,1-2.422-.488,4.05,4.05,0,0,1-1.66-1.328,3.007,3.007,0,0,1-.6-1.768h3.076a1.272,1.272,0,0,0,.488,1.069,2.009,2.009,0,0,0,1.2.337,1.58,1.58,0,0,0,1.011-.273A.875.875,0,0,0,163.75,18.031Zm12.8-7.6.107,1.24a3.633,3.633,0,0,1,3.018-1.436,2.675,2.675,0,0,1,2.705,1.592,3.516,3.516,0,0,1,3.105-1.592q3.213,0,3.3,3.887V21h-3.3V14.33a2.014,2.014,0,0,0-.273-1.182,1.164,1.164,0,0,0-1-.371,1.559,1.559,0,0,0-1.455.869l.01.137V21h-3.3V14.35a2.117,2.117,0,0,0-.264-1.2,1.161,1.161,0,0,0-1.006-.371,1.578,1.578,0,0,0-1.445.869V21h-3.291V10.434ZM194.141,21h-3.3V10.434h3.3Zm-3.5-13.291a1.469,1.469,0,0,1,.508-1.152,2.159,2.159,0,0,1,2.637,0,1.469,1.469,0,0,1,.508,1.152,1.469,1.469,0,0,1-.508,1.152,2.159,2.159,0,0,1-2.637,0A1.469,1.469,0,0,1,190.645,7.709Zm9.99,10.947a1.464,1.464,0,0,0,1.074-.376,1.379,1.379,0,0,0,.371-1.05h3.086a3.653,3.653,0,0,1-1.245,2.852,4.631,4.631,0,0,1-3.208,1.113,4.689,4.689,0,0,1-3.633-1.445,5.7,5.7,0,0,1-1.328-4v-.137a6.436,6.436,0,0,1,.591-2.827,4.3,4.3,0,0,1,1.7-1.885,5.081,5.081,0,0,1,2.637-.659,4.573,4.573,0,0,1,3.271,1.143,4.053,4.053,0,0,1,1.211,3.1H202.08a1.807,1.807,0,0,0-.4-1.26,1.382,1.382,0,0,0-1.074-.439q-1.279,0-1.494,1.631a11.507,11.507,0,0,0-.068,1.426,4.52,4.52,0,0,0,.381,2.207A1.319,1.319,0,0,0,200.635,18.656Zm12.314-5.244-1.084-.078a1.947,1.947,0,0,0-1.992.977V21h-3.291V10.434h3.086l.107,1.357a2.548,2.548,0,0,1,2.314-1.553,3.209,3.209,0,0,1,.918.117Zm.42,2.207a6.236,6.236,0,0,1,.615-2.817,4.4,4.4,0,0,1,1.768-1.9,5.323,5.323,0,0,1,2.705-.664,4.858,4.858,0,0,1,3.74,1.47,5.64,5.64,0,0,1,1.367,4v.117a5.472,5.472,0,0,1-1.372,3.921,4.871,4.871,0,0,1-3.716,1.45,4.927,4.927,0,0,1-3.623-1.353,5.29,5.29,0,0,1-1.475-3.667Zm3.291.205a3.932,3.932,0,0,0,.459,2.148,1.529,1.529,0,0,0,1.357.684q1.758,0,1.8-2.705v-.332q0-2.842-1.816-2.842-1.65,0-1.787,2.451Zm12.822,2.832a1.464,1.464,0,0,0,1.074-.376,1.379,1.379,0,0,0,.371-1.05h3.086a3.653,3.653,0,0,1-1.245,2.852,4.631,4.631,0,0,1-3.208,1.113,4.689,4.689,0,0,1-3.633-1.445,5.7,5.7,0,0,1-1.328-4v-.137a6.436,6.436,0,0,1,.591-2.827,4.3,4.3,0,0,1,1.7-1.885,5.081,5.081,0,0,1,2.637-.659,4.573,4.573,0,0,1,3.271,1.143,4.053,4.053,0,0,1,1.211,3.1h-3.086a1.807,1.807,0,0,0-.4-1.26,1.382,1.382,0,0,0-1.074-.439q-1.279,0-1.494,1.631a11.507,11.507,0,0,0-.068,1.426,4.52,4.52,0,0,0,.381,2.207A1.319,1.319,0,0,0,229.482,18.656Zm12.217,1.2a3.393,3.393,0,0,1-2.822,1.338,3.328,3.328,0,0,1-2.632-1.011,4.251,4.251,0,0,1-.894-2.905V10.434h3.291V17.3a1.183,1.183,0,0,0,1.318,1.357,1.72,1.72,0,0,0,1.611-.811V10.434h3.311V21H241.8ZM251.8,21.2a5.432,5.432,0,0,1-3.936-1.45,5.008,5.008,0,0,1-1.5-3.774V15.7a6.489,6.489,0,0,1,.6-2.861,4.395,4.395,0,0,1,1.753-1.919,5.292,5.292,0,0,1,2.734-.679,4.574,4.574,0,0,1,3.516,1.382,5.43,5.43,0,0,1,1.289,3.853v1.279h-6.543a2.372,2.372,0,0,0,.771,1.4,2.3,2.3,0,0,0,1.543.508,2.958,2.958,0,0,0,2.441-1.094l1.5,1.777a4.2,4.2,0,0,1-1.743,1.353A5.891,5.891,0,0,1,251.8,21.2Zm-.371-8.418q-1.445,0-1.719,1.914h3.32v-.254a1.63,1.63,0,0,0-.4-1.226A1.593,1.593,0,0,0,251.426,12.777Zm9.17-2.344.107,1.24a3.583,3.583,0,0,1,3.018-1.436,3.015,3.015,0,0,1,2.466.986,4.7,4.7,0,0,1,.845,2.969V21h-3.3V14.33a1.783,1.783,0,0,0-.322-1.177,1.491,1.491,0,0,0-1.172-.376,1.569,1.569,0,0,0-1.436.762V21H257.51V10.434Zm12.725,8.223a1.464,1.464,0,0,0,1.074-.376,1.379,1.379,0,0,0,.371-1.05h3.086a3.653,3.653,0,0,1-1.245,2.852A4.631,4.631,0,0,1,273.4,21.2a4.689,4.689,0,0,1-3.633-1.445,5.7,5.7,0,0,1-1.328-4v-.137a6.436,6.436,0,0,1,.591-2.827,4.3,4.3,0,0,1,1.7-1.885,5.081,5.081,0,0,1,2.637-.659,4.573,4.573,0,0,1,3.271,1.143,4.053,4.053,0,0,1,1.211,3.1h-3.086a1.806,1.806,0,0,0-.4-1.26,1.382,1.382,0,0,0-1.074-.439q-1.279,0-1.494,1.631a11.51,11.51,0,0,0-.068,1.426,4.52,4.52,0,0,0,.381,2.207A1.319,1.319,0,0,0,273.32,18.656ZM285.2,21a3.716,3.716,0,0,1-.312-.947,3.06,3.06,0,0,1-2.539,1.143,3.749,3.749,0,0,1-2.539-.9,2.875,2.875,0,0,1-1.045-2.271,2.955,2.955,0,0,1,1.27-2.6,6.468,6.468,0,0,1,3.691-.879h1.016v-.559q0-1.462-1.26-1.462a1.03,1.03,0,0,0-1.172,1.158h-3.291a2.95,2.95,0,0,1,1.3-2.487,5.479,5.479,0,0,1,3.325-.956,4.8,4.8,0,0,1,3.193.986,3.429,3.429,0,0,1,1.2,2.705v4.678a4.79,4.79,0,0,0,.449,2.227V21Zm-2.061-2.148a1.836,1.836,0,0,0,1.021-.264,1.653,1.653,0,0,0,.581-.6V16.3h-.957q-1.719,0-1.719,1.543a.942.942,0,0,0,.3.728A1.1,1.1,0,0,0,283.135,18.852Zm12.256-.82a.76.76,0,0,0-.439-.674,6.684,6.684,0,0,0-1.67-.527,7.615,7.615,0,0,1-2.031-.718,3.4,3.4,0,0,1-1.221-1.079,2.577,2.577,0,0,1-.42-1.455,2.92,2.92,0,0,1,1.2-2.4,4.948,4.948,0,0,1,3.145-.942,5.482,5.482,0,0,1,3.359.947,2.962,2.962,0,0,1,1.27,2.49h-3.3q0-1.27-1.338-1.27a1.326,1.326,0,0,0-.869.288.892.892,0,0,0-.352.718.819.819,0,0,0,.43.713,4.06,4.06,0,0,0,1.372.449,11.856,11.856,0,0,1,1.655.42,3.007,3.007,0,0,1,2.383,2.939,2.767,2.767,0,0,1-1.284,2.354,5.631,5.631,0,0,1-3.325.908,5.747,5.747,0,0,1-2.422-.488,4.05,4.05,0,0,1-1.66-1.328,3.007,3.007,0,0,1-.6-1.768h3.076a1.272,1.272,0,0,0,.488,1.069,2.009,2.009,0,0,0,1.2.337,1.58,1.58,0,0,0,1.011-.273A.875.875,0,0,0,295.391,18.031Z" transform="translate(188.416 7809.5)" fill="#623e2a"/>
    <g id="Grupo_131379" data-name="Grupo 131379" transform="translate(504.57 7796.5)">
      <g id="Grupo_131377" data-name="Grupo 131377" transform="translate(0 0)" clip-path="url(#clip-path)">
        <path id="Trazado_205847" data-name="Trazado 205847" d="M16.7,45.388c2.487,0,4.519-2.5,4.653-5.653h.007a10.583,10.583,0,0,1,4.52-1.013h.306a10.61,10.61,0,0,1,9.846,6.666Z" transform="translate(-2.037 -4.722)" fill="#b27946"/>
        <path id="Trazado_205848" data-name="Trazado 205848" d="M32.667,32.648H38a5.327,5.327,0,0,1-5.333,5.333H27.334a5.327,5.327,0,0,1,5.333-5.333" transform="translate(-3.333 -3.981)" fill="#a0d468"/>
        <path id="Trazado_205849" data-name="Trazado 205849" d="M20.7,4.76a4,4,0,0,1-3.173,3.913c-.267-.213-.54-.427-.826-.647V4.76a4,4,0,0,1,4-4Z" transform="translate(-2.037 -0.093)" fill="#a0d468"/>
        <path id="Trazado_205850" data-name="Trazado 205850" d="M25.693,29.629H20.519A5.327,5.327,0,0,1,15.186,24.3h5.333a5.349,5.349,0,0,1,5.06,3.626v.007c.047.547.08,1.113.113,1.7" transform="translate(-1.852 -2.963)" fill="#b4dd7f"/>
        <path id="Trazado_205851" data-name="Trazado 205851" d="M31.184,18.222h5.333a5.327,5.327,0,0,1-5.333,5.333H26.451q-.14-.86-.34-1.66a5.341,5.341,0,0,1,5.073-3.673" transform="translate(-3.184 -2.222)" fill="#b4dd7f"/>
        <path id="Trazado_205852" data-name="Trazado 205852" d="M13.112,6.833v4a4,4,0,0,1-4,4v-4a4,4,0,0,1,4-4" transform="translate(-1.111 -0.833)" fill="#b4dd7f"/>
        <path id="Trazado_205853" data-name="Trazado 205853" d="M12.556,6.092H9.889A5.332,5.332,0,0,1,4.556.759H7.223a5.332,5.332,0,0,1,5.333,5.333" transform="translate(-0.556 -0.092)" fill="#b4dd7f"/>
        <path id="Trazado_205854" data-name="Trazado 205854" d="M24.019,10.629a2,2,0,1,1,0,4,2.079,2.079,0,0,1-.407-.04,2,2,0,0,1-1.594-1.96.662.662,0,0,1,.013-.161,1.984,1.984,0,0,1,1.987-1.84" transform="translate(-2.685 -1.296)" fill="#ff826e"/>
        <path id="Trazado_205855" data-name="Trazado 205855" d="M24.613,18.652a1.954,1.954,0,0,1-1.353.533,2,2,0,0,1-2-2,2.079,2.079,0,0,1,.192-.86,2,2,0,0,1,1.808-1.14,1.643,1.643,0,0,1,.253.019,1.993,1.993,0,0,1,1.747,1.981,1.967,1.967,0,0,1-.647,1.466" transform="translate(-2.593 -1.852)" fill="#ff826e"/>
        <path id="Trazado_205856" data-name="Trazado 205856" d="M20.222,12.148a2,2,0,0,1,1.333.507h.014a.616.616,0,0,0-.014.16,2,2,0,0,0,1.594,1.96l-.007.061a1.527,1.527,0,0,0-.253-.02,2,2,0,0,0-1.807,1.14,1.962,1.962,0,0,1-.86.193,2,2,0,1,1,0-4" transform="translate(-2.222 -1.481)" fill="#ff826e"/>
        <path id="Trazado_205857" data-name="Trazado 205857" d="M10.3,35.292a3.068,3.068,0,0,1,.42.514c-1.366,1.293-2.293.42-3.68,1.806-1.42,1.414-.473,2.36-1.887,3.774-1.393,1.386-2.326.506-3.693,1.806C.16,41.319.7,38.345,2.82,36.226c2.327-2.327,5.673-2.747,7.48-.933" transform="translate(-0.093 -4.166)" fill="#cf9e76"/>
        <path id="Trazado_205858" data-name="Trazado 205858" d="M10.817,36.034l.007.007a7.5,7.5,0,0,0-.213,5.493A7.378,7.378,0,0,1,9.464,43a6.657,6.657,0,0,1-4.587,2.06,4,4,0,0,1-2.893-1.127,3.93,3.93,0,0,1-.427-.514c1.367-1.3,2.3-.42,3.693-1.806,1.414-1.414.467-2.36,1.887-3.773,1.386-1.387,2.314-.514,3.68-1.807" transform="translate(-0.19 -4.394)" fill="#cf9e76"/>
        <path id="Trazado_205859" data-name="Trazado 205859" d="M21.278,38.656a2.992,2.992,0,0,1-.013.347c-.133,3.153-2.167,5.653-4.654,5.653a3.667,3.667,0,0,1-.666-.06c.026-1.94,1.334-1.96,1.334-3.94,0-2-1.334-2-1.334-4,0-1.98,1.307-2,1.334-3.94,2.259.414,4,2.913,4,5.94" transform="translate(-1.945 -3.99)" fill="#d3a06c"/>
        <path id="Trazado_205860" data-name="Trazado 205860" d="M12.036,35.6a4.591,4.591,0,0,1,4.02-2.954,3.661,3.661,0,0,1,.666.061c-.026,1.94-1.333,1.96-1.333,3.94,0,2,1.333,2,1.333,4,0,1.98-1.307,2-1.333,3.941a4.985,4.985,0,0,1-3.58-3.467,7.5,7.5,0,0,1,.213-5.493.047.047,0,0,1,.013-.026" transform="translate(-1.389 -3.981)" fill="#d3a06c"/>
        <path id="Trazado_205861" data-name="Trazado 205861" d="M29.466,34.659a6,6,0,0,0,5.868-5.994V28h-6a5.983,5.983,0,0,0-4.7,2.28A64.508,64.508,0,0,0,24.059,22H28a6.007,6.007,0,0,0,6-6v-.666H28a5.986,5.986,0,0,0-4.891,2.523c-.1-.313-.21-.619-.324-.921a2.612,2.612,0,0,0-.095-3.319,2.659,2.659,0,1,0-3.747-3.443,2.673,2.673,0,0,0-.829-.162q-.615-.6-1.323-1.208a4.678,4.678,0,0,0,2.542-4.136V0h-.666A4.672,4.672,0,0,0,14,4.667V6.6q-.632-.462-1.333-.947v-.32h-.04A6.008,6.008,0,0,0,6.667,0H3.334V.666A6.007,6.007,0,0,0,8.773,6.638,4.652,4.652,0,0,0,7.334,10v4.666H8A4.672,4.672,0,0,0,12.668,10V7.282A41.584,41.584,0,0,1,16.6,10.41,2.66,2.66,0,0,0,18,15.333,2.67,2.67,0,0,0,20.668,18a2.634,2.634,0,0,0,1.017-.2,23.857,23.857,0,0,1,1.067,4.478,5.987,5.987,0,0,0-4.084-1.607h-6v.666a6.007,6.007,0,0,0,6,6H23.21c.084,1.8.117,3.8.121,6.028a11.117,11.117,0,0,0-3.357.668C19.717,30.651,17.435,28,14.667,28a5.018,5.018,0,0,0-4.157,2.5,4.85,4.85,0,0,0-3.931-1.12,7.52,7.52,0,0,0-4.324,2.207A7.534,7.534,0,0,0,.047,35.911,4.81,4.81,0,0,0,1.307,40H0v1.333H36V40H34.433a11.209,11.209,0,0,0-4.967-5.34m-.132-5.326h4.619a4.674,4.674,0,0,1-4.619,4H24.714a4.674,4.674,0,0,1,4.619-4M28,16.666H32.62a4.674,4.674,0,0,1-4.619,4H23.829q-.095-.479-.2-.94A4.648,4.648,0,0,1,28,16.666M21.334,10A1.333,1.333,0,1,1,20,11.333,1.334,1.334,0,0,1,21.334,10m-6-5.333A3.338,3.338,0,0,1,18,1.4V4.667a3.339,3.339,0,0,1-2.365,3.177c-.1-.078-.2-.157-.3-.235ZM4.714,1.333H6.667a4.673,4.673,0,0,1,4.619,4H9.334a4.674,4.674,0,0,1-4.619-4M11.334,10a3.338,3.338,0,0,1-2.667,3.265V10a3.339,3.339,0,0,1,2.667-3.266ZM18,14a1.333,1.333,0,1,1,.686-2.476,2.647,2.647,0,0,0,.623,1.527,2.668,2.668,0,0,0-.9.877A1.324,1.324,0,0,1,18,14m1.333,1.334a1.333,1.333,0,1,1,1.334,1.333,1.335,1.335,0,0,1-1.334-1.333M18.667,26a4.674,4.674,0,0,1-4.619-4h4.619a4.661,4.661,0,0,1,4.406,3.136c.023.282.042.572.061.864Zm0,8.667c0,2.905-1.753,5.273-3.923,5.328a2.941,2.941,0,0,1,.478-.959,4,4,0,0,0,0-4.741,2.672,2.672,0,0,1,0-3.26,4.135,4.135,0,0,0,.675-1.441,5.415,5.415,0,0,1,2.77,5.072M14.59,29.338a2.957,2.957,0,0,1-.477.957,3.995,3.995,0,0,0,0,4.74,2.676,2.676,0,0,1,0,3.261,4.122,4.122,0,0,0-.676,1.443,5.416,5.416,0,0,1-2.769-5.072c0-2.906,1.753-5.273,3.922-5.328m-4.9,7.691A6.8,6.8,0,0,1,8.8,38.135a6.2,6.2,0,0,1-3.546,1.827,3.533,3.533,0,0,1-2.927-.833,3.043,3.043,0,0,1,.974-.315A3.826,3.826,0,0,0,5.53,37.689a3.833,3.833,0,0,0,1.126-2.227,2.673,2.673,0,0,1,2.3-2.306c.169-.033.351-.072.543-.124a8.259,8.259,0,0,0-.169,1.633,8.108,8.108,0,0,0,.353,2.363m-8.316-.953A6.191,6.191,0,0,1,3.2,32.53,6.2,6.2,0,0,1,6.745,30.7a3.522,3.522,0,0,1,2.927.834,3.027,3.027,0,0,1-.973.313A4,4,0,0,0,5.348,35.2a2.522,2.522,0,0,1-.76,1.545,2.524,2.524,0,0,1-1.545.761,4.164,4.164,0,0,0-1.457.515,3.936,3.936,0,0,1-.215-1.947M8.644,40a8.311,8.311,0,0,0,1.1-.922c.194-.194.37-.4.544-.616A6.272,6.272,0,0,0,11.48,40H8.644Zm11.313-4.526a9.839,9.839,0,0,1,3.891-.807h.306A9.881,9.881,0,0,1,32.956,40h-15.1a7.136,7.136,0,0,0,2.1-4.526" transform="translate(0 0)"/>
        <rect id="Rectángulo_42685" data-name="Rectángulo 42685" width="1.333" height="1.333" transform="translate(26.667 37.333)"/>
        <rect id="Rectángulo_42686" data-name="Rectángulo 42686" width="1.333" height="1.333" transform="translate(20.667 37.333)"/>
      </g>
    </g>
  </g>
</svg>
