<svg id="habitat" xmlns="http://www.w3.org/2000/svg" width="108" height="108" viewBox="0 0 108 108">
  <g id="Grupo_130652" data-name="Grupo 130652" transform="translate(1.954 1.466)">
    <g id="Grupo_130642" data-name="Grupo 130642" transform="translate(0 0)">
      <circle id="Elipse_5546" data-name="Elipse 5546" cx="52.29" cy="52.29" r="52.29" fill="#fcdda2"/>
    </g>
    <g id="Grupo_130643" data-name="Grupo 130643" transform="translate(32.885 76.921)">
      <path id="Trazado_203765" data-name="Trazado 203765" d="M32.3,58.935h-.1c-5.226,0-5.226,3.484-10.452,3.484A8.74,8.74,0,0,1,20,62.263v-.348A18.822,18.822,0,0,1,26.114,48a18.494,18.494,0,0,1,4.337-3A53.81,53.81,0,0,0,32.3,58.935Z" transform="translate(-20 -45)" fill="#969faa"/>
    </g>
    <g id="Grupo_130644" data-name="Grupo 130644" transform="translate(13.724 59.502)">
      <path id="Trazado_203766" data-name="Trazado 203766" d="M21.3,48.935h-.1c-5.226,0-5.226,3.484-10.452,3.484A8.74,8.74,0,0,1,9,52.263v-.348A18.889,18.889,0,0,1,19.452,35,53.809,53.809,0,0,0,21.3,48.935Z" transform="translate(-9 -35)" fill="#969faa"/>
    </g>
    <g id="Grupo_130645" data-name="Grupo 130645" transform="translate(76.433 59.502)">
      <path id="Trazado_203767" data-name="Trazado 203767" d="M45,50.677V35H65.9V54.074c.017.017.017.017,0,.017A51.142,51.142,0,0,1,55.452,66.965V59.387H48.484V52.419H45Z" transform="translate(-45 -35)" fill="#aab2bd"/>
    </g>
    <g id="Grupo_130646" data-name="Grupo 130646" transform="translate(59.014 76.921)">
      <path id="Trazado_203768" data-name="Trazado 203768" d="M55.9,45v6.968H45.452V69.892A50.842,50.842,0,0,1,35,72.4V45H55.9Z" transform="translate(-35 -45)" fill="#fcd770"/>
    </g>
    <g id="Grupo_130647" data-name="Grupo 130647" transform="translate(69.466 83.889)">
      <path id="Trazado_203769" data-name="Trazado 203769" d="M41,66.907V49H58.419v7.577A51.645,51.645,0,0,1,41,66.907Z" transform="translate(-41 -49)" fill="#ffeaa7"/>
    </g>
    <g id="Grupo_130648" data-name="Grupo 130648" transform="translate(3.275 0.276)">
      <path id="Trazado_203770" data-name="Trazado 203770" d="M22.16,42.806a8.713,8.713,0,0,1-8.71-8.71c0-.07.017-.122.017-.174A8.811,8.811,0,0,1,9.9,33.905a8.628,8.628,0,0,1-5.208-3.345,8.37,8.37,0,0,1-1.515-3.432,8.69,8.69,0,0,1,5.47-9.877,7.278,7.278,0,0,1-.418-2.317,6.958,6.958,0,0,1,3.763-6.184,9.574,9.574,0,0,0,3.989-3.989,6.963,6.963,0,0,1,12.368,0A8.418,8.418,0,0,0,29.215,6.1a9.339,9.339,0,0,0,3.118,2.648A6.958,6.958,0,0,1,36.1,14.935a7.278,7.278,0,0,1-.418,2.317,8.7,8.7,0,0,1-1.254,16.653,8.811,8.811,0,0,1-3.571.017c0,.052.017.1.017.174A8.713,8.713,0,0,1,22.16,42.806Z" transform="translate(-3.002 -1)" fill="#b4dd7f"/>
    </g>
    <g id="Grupo_130649" data-name="Grupo 130649" transform="translate(57.15 19.437)">
      <path id="Trazado_203771" data-name="Trazado 203771" d="M55.007,26.04,46.89,38.686A19.153,19.153,0,0,0,33.93,26.632v-.017l5.557-11.462A5.6,5.6,0,0,1,49.538,15.1Z" transform="translate(-33.93 -12)" fill="#b4dd7f"/>
    </g>
    <g id="Grupo_130650" data-name="Grupo 130650" transform="translate(70.11 28.147)">
      <path id="Trazado_203772" data-name="Trazado 203772" d="M61.35,20.4l8.988,20.99H42.467a19.058,19.058,0,0,0-1.1-6.41L49.487,22.33l1.777-2.752A5.607,5.607,0,0,1,55.985,17h.209a5.62,5.62,0,0,1,5.156,3.4Z" transform="translate(-41.37 -17)" fill="#a0d468"/>
    </g>
    <g id="Grupo_130651" data-name="Grupo 130651" transform="translate(32.885 33.373)">
      <path id="Trazado_203773" data-name="Trazado 203773" d="M57.225,32.751A19.2,19.2,0,1,1,44.265,20.7,19.058,19.058,0,0,1,57.225,32.751Z" transform="translate(-20 -20)" fill="#69d6f4"/>
    </g>
  </g>
  <g id="Grupo_130653" data-name="Grupo 130653">
    <path id="Trazado_203774" data-name="Trazado 203774" d="M44,52h6.968v3.484H44Z" transform="translate(32.645 38.581)" fill="#3c2c26"/>
    <path id="Trazado_203775" data-name="Trazado 203775" d="M48,38H58.452v3.484H48Z" transform="translate(35.613 28.194)" fill="#3c2c26"/>
    <path id="Trazado_203776" data-name="Trazado 203776" d="M50,42h6.968v3.484H50Z" transform="translate(37.097 31.161)" fill="#3c2c26"/>
    <path id="Trazado_203777" data-name="Trazado 203777" d="M54,0A53.481,53.481,0,0,0,32.093,4.654a8.71,8.71,0,0,0-15.435.037A7.732,7.732,0,0,1,13.4,7.948,8.687,8.687,0,0,0,8.71,15.677a7.972,7.972,0,0,0,.117,1.36A10.477,10.477,0,0,0,3.684,28.2v0A10.1,10.1,0,0,0,4.945,31.44,53.492,53.492,0,0,0,0,54,54,54,0,1,0,54,0ZM87.1,92.115a50.611,50.611,0,0,1-13.935,8.616V87.1H87.1Zm-6.968-8.5H69.677v18.4a49.923,49.923,0,0,1-6.968,1.735V80.129H80.129Zm-3.484-6.968H59.226v27.6c-1.15.118-2.313.186-3.484.226V74.814A20.915,20.915,0,0,0,74.814,55.742h29.656A50.159,50.159,0,0,1,101.032,72.4V59.226H76.645ZM26.129,52.258V45.132a10.469,10.469,0,0,0,8.565-8.553,10.164,10.164,0,0,0,2.3-.218,10.435,10.435,0,0,0,2.956-19.325,7.768,7.768,0,0,0,.118-1.359,8.692,8.692,0,0,0-4.691-7.731,7.671,7.671,0,0,1-.881-.549A49.94,49.94,0,0,1,52.258,3.531V33.184A20.916,20.916,0,0,0,33.186,52.258Zm-14.345-15.9a11.093,11.093,0,0,0,2.3.218,10.473,10.473,0,0,0,8.565,8.553v7.125H3.531A49.915,49.915,0,0,1,7.464,34.33,10.267,10.267,0,0,0,11.784,36.363Zm63.03,15.9a20.762,20.762,0,0,0-.843-4.428l9.452-14.7a3.846,3.846,0,0,1,3.247-1.773h.218a3.855,3.855,0,0,1,3.547,2.338l7.957,18.566ZM48.551,64.452h10.9C58.074,68.735,55.97,71.419,54,71.419S49.927,68.735,48.551,64.452ZM54,36.581c1.97,0,4.073,2.684,5.449,6.968h-10.9C49.927,39.265,52.03,36.581,54,36.581Zm-9.131,6.968H40.1a17.5,17.5,0,0,1,7.041-5.555A23.268,23.268,0,0,0,44.869,43.548ZM60.86,37.993A17.491,17.491,0,0,1,67.9,43.548H63.129A23.125,23.125,0,0,0,60.86,37.993Zm-.526,9.039a36.553,36.553,0,0,1,.594,5.226H47.072a36.8,36.8,0,0,1,.594-5.226Zm.594,8.71a36.8,36.8,0,0,1-.594,5.226H47.668a36.552,36.552,0,0,1-.594-5.226Zm2.2,8.71H67.9a17.5,17.5,0,0,1-7.041,5.555A23.268,23.268,0,0,0,63.131,64.452Zm6.823-3.484H63.889a41.6,41.6,0,0,0,.521-5.226h6.921A17.233,17.233,0,0,1,69.954,60.968Zm-5.545-8.71a41.6,41.6,0,0,0-.521-5.226h6.065a17.233,17.233,0,0,1,1.376,5.226Zm7.912-8.3a21.011,21.011,0,0,0-10.8-9.436l4.708-9.7A3.885,3.885,0,0,1,69.7,22.645a3.833,3.833,0,0,1,3.451,2.134L78.182,34.84ZM38.046,47.032h6.065a41.6,41.6,0,0,0-.521,5.226H36.669a17.232,17.232,0,0,1,1.376-5.226Zm5.545,8.71a41.6,41.6,0,0,0,.521,5.226H38.046a17.233,17.233,0,0,1-1.376-5.226Zm1.279,8.71a23.2,23.2,0,0,0,2.271,5.555A17.491,17.491,0,0,1,40.1,64.452Zm59.6-12.194h-2.291L93.638,32.32a7.339,7.339,0,0,0-6.75-4.449H86.67a7.313,7.313,0,0,0-6.175,3.372l-.122.19-4.106-8.211a7.3,7.3,0,0,0-6.567-4.06A7.378,7.378,0,0,0,63.1,23.3L58.139,33.513a20.468,20.468,0,0,0-2.4-.326V3.527a50.564,50.564,0,0,1,48.729,48.731ZM11.493,19.632l1.6-.6-.575-1.611a5.128,5.128,0,0,1,2.491-6.377A11.251,11.251,0,0,0,19.748,6.3a5.228,5.228,0,0,1,9.278,0,11.241,11.241,0,0,0,4.738,4.738,5.128,5.128,0,0,1,2.491,6.377l-.575,1.611,1.6.6A6.952,6.952,0,0,1,36.3,32.95a7.159,7.159,0,0,1-2.867.005l-2.151-.442.059,2.2c0,.073.009.145.019.219a6.966,6.966,0,0,1-5.226,6.632V27.117L34,22.4,32.2,19.41l-6.074,3.642V18.44L20.393,12.7,17.93,15.167l4.715,4.715v8.4l-6.071-3.642-1.792,2.987,7.863,4.717v9.218a6.963,6.963,0,0,1-5.226-6.635l.078-2.413-2.151.442a7.159,7.159,0,0,1-2.867-.005,6.952,6.952,0,0,1-.986-13.317ZM9.008,76.922a8.327,8.327,0,0,1,2.221,1.172,9.99,9.99,0,0,0,6.189,2.035,10.006,10.006,0,0,0,6.193-2.035,6.988,6.988,0,0,1,8.522,0,10.006,10.006,0,0,0,6.193,2.035V76.645A6.584,6.584,0,0,1,34.065,75.2a10.262,10.262,0,0,0-4.686-1.928,51.909,51.909,0,0,1-1.505-12.3V58.149L25.354,59.41a20.509,20.509,0,0,0-11.3,16.36c-.3-.176-.589-.369-.9-.575a10.038,10.038,0,0,0-5.884-2.021,50.15,50.15,0,0,1-3.75-17.433H33.184A20.913,20.913,0,0,0,52.256,74.814V92a9.349,9.349,0,0,0-3.723-1.312,52.082,52.082,0,0,1-1.5-12.3V75.569L44.512,76.83a20.509,20.509,0,0,0-11.3,16.36c-.3-.176-.589-.369-.9-.575a10.011,10.011,0,0,0-6.191-2.035v3.484a6.583,6.583,0,0,1,4.257,1.449,10.439,10.439,0,0,0,12.383,0,6.984,6.984,0,0,1,8.522,0c.308.206.627.415.967.618v8.339A50.564,50.564,0,0,1,9.008,76.922Zm8.487-.28A17.016,17.016,0,0,1,24.472,64a55.274,55.274,0,0,0,1.334,9.342,10.5,10.5,0,0,0-4.128,1.85A6.6,6.6,0,0,1,17.494,76.642Zm27.47,14.124a10.521,10.521,0,0,0-4.128,1.85,6.589,6.589,0,0,1-4.182,1.446,17.016,17.016,0,0,1,6.978-12.638A55.449,55.449,0,0,0,44.965,90.765Zm45.616-1.982v-5.17H83.613V76.645H80.129V62.71H97.548V79.556A50.738,50.738,0,0,1,90.581,88.783Z" fill="#3c2c26"/>
  </g>
</svg>
