<svg xmlns="http://www.w3.org/2000/svg" width="121.42" height="121.414" viewBox="0 0 121.42 121.414">
  <g id="Grupo_131382" data-name="Grupo 131382" transform="translate(-340.586 -10239.293)">
    <path id="Trazado_205865" data-name="Trazado 205865" d="M145.993,52.293a26.085,26.085,0,1,0,46.314-16.422h0l-20.138-25.86L151.944,35.735h.015A25.863,25.863,0,0,0,145.993,52.293Z" transform="translate(229.215 10231.653)" fill="#97dff2"/>
    <path id="Trazado_205866" data-name="Trazado 205866" d="M121.008,288.772h0a5.759,5.759,0,0,0-4.323,1.954l-.434.493,0-.007a5.759,5.759,0,0,0-4.245-9.65h0a5.759,5.759,0,0,0-4.323,1.954L94.074,298.975a33.024,33.024,0,0,1-12.676,8.9H48.715a5.88,5.88,0,0,1,4.645-2.269H69.047a6.166,6.166,0,0,0,6.166-6.166h0a6.166,6.166,0,0,0-6.166-6.166H36.19a26.269,26.269,0,0,0-19.555,8.728L10,309.4v24.432H73a44.992,44.992,0,0,0,33.167-14.591l19.085-20.822A5.759,5.759,0,0,0,121.008,288.772Z" transform="translate(332.957 10024.5)" fill="#fed7ba"/>
    <path id="Trazado_205867" data-name="Trazado 205867" d="M120.715,283.628a8.03,8.03,0,0,0-7.442-4.856,8.124,8.124,0,0,0-.911.052,8.288,8.288,0,0,0-.651-2.407,8.03,8.03,0,0,0-7.442-4.856,8.132,8.132,0,0,0-6.1,2.758L84.559,289.779a30.8,30.8,0,0,1-11.766,8.264,2.371,2.371,0,1,0,1.74,4.412,35.566,35.566,0,0,0,13.586-9.543l13.608-15.459a3.389,3.389,0,0,1,2.543-1.149,3.387,3.387,0,0,1,2.5,5.676c-.043.047-13.2,15.009-13.2,15.009a30.67,30.67,0,0,1-23.015,10.4H45.625a3.52,3.52,0,1,1,0-7.041H61.313a8.537,8.537,0,0,0,0-17.074H28.372A28.493,28.493,0,0,0,7.191,292.73L.606,300.069a2.371,2.371,0,1,0,3.53,3.167l6.585-7.339a23.744,23.744,0,0,1,17.651-7.877h32.94a3.794,3.794,0,0,1,0,7.588H45.625a8.263,8.263,0,1,0,0,16.526H70.548a35.414,35.414,0,0,0,26.575-12.012l13.608-15.459a3.388,3.388,0,0,1,2.543-1.149,3.387,3.387,0,0,1,2.5,5.676L96.686,310.012a42.723,42.723,0,0,1-31.419,13.822H2.371a2.371,2.371,0,0,0,0,4.743H65.266a47.477,47.477,0,0,0,34.916-15.36l19.085-20.822A8.028,8.028,0,0,0,120.715,283.628Z" transform="translate(340.586 10032.13)" fill="#3c2c26"/>
    <path id="Trazado_205868" data-name="Trazado 205868" d="M164.45,73.051a28.37,28.37,0,0,0,22.117-46.244l-.015-.02L166.413.927a2.371,2.371,0,0,0-1.865-.914h-.005a2.371,2.371,0,0,0-1.864.906L142.451,26.643c-.039.05-.076.1-.11.152A28.371,28.371,0,0,0,164.45,73.051ZM146.156,29.622a2.316,2.316,0,0,0,.176-.242l18.2-23.148,18.227,23.406c.026.036.054.072.082.106a23.713,23.713,0,1,1-36.686-.123Z" transform="translate(236.844 10239.28)" fill="#3c2c26"/>
    <path id="Trazado_205869" data-name="Trazado 205869" d="M405.409,169.748a2.372,2.372,0,0,0,2.371,2.371h7.959a2.371,2.371,0,1,0,0-4.743H407.78A2.372,2.372,0,0,0,405.409,169.748Z" transform="translate(31.318 10111.606)" fill="#3c2c26"/>
    <path id="Trazado_205870" data-name="Trazado 205870" d="M389.6,204.76a2.371,2.371,0,1,0-3.356,3.352l2.869,2.872a2.371,2.371,0,1,0,3.356-3.352Z" transform="translate(46.467 10083.619)" fill="#3c2c26"/>
    <path id="Trazado_205871" data-name="Trazado 205871" d="M387.775,126.062a2.363,2.363,0,0,0,1.678-.7l2.874-2.876a2.371,2.371,0,0,0-3.355-3.352l-2.873,2.876a2.371,2.371,0,0,0,1.678,4.047Z" transform="translate(46.58 10148.937)" fill="#3c2c26"/>
    <path id="Trazado_205872" data-name="Trazado 205872" d="M55.375,171.96h7.959a2.371,2.371,0,1,0,0-4.743H55.375a2.371,2.371,0,1,0,0,4.743Z" transform="translate(300.152 10111.729)" fill="#3c2c26"/>
    <path id="Trazado_205873" data-name="Trazado 205873" d="M99.13,126.582a2.371,2.371,0,0,0,3.356-3.352L100,120.744a2.371,2.371,0,0,0-3.356,3.352Z" transform="translate(267.389 10147.711)" fill="#3c2c26"/>
    <path id="Trazado_205874" data-name="Trazado 205874" d="M97.652,204.719l-2.989,2.992a2.371,2.371,0,1,0,3.355,3.352l2.989-2.992a2.371,2.371,0,0,0-3.355-3.352Z" transform="translate(268.9 10083.651)" fill="#3c2c26"/>
    <path id="Trazado_205875" data-name="Trazado 205875" d="M318.342,183.173h.014a2.371,2.371,0,0,0,2.371-2.358v-.139a2.371,2.371,0,1,0-4.743,0v.113A2.371,2.371,0,0,0,318.342,183.173Z" transform="translate(99.537 10103.271)" fill="#fff"/>
    <path id="Trazado_205876" data-name="Trazado 205876" d="M248.359,228.716a18.939,18.939,0,0,0,15.884-8.574,2.371,2.371,0,1,0-3.966-2.6,14.211,14.211,0,0,1-11.918,6.433,2.371,2.371,0,1,0,0,4.742Z" transform="translate(152.934 10074.155)" fill="#fff"/>
  </g>
</svg>
