<svg xmlns="http://www.w3.org/2000/svg" xmlns:xlink="http://www.w3.org/1999/xlink" width="145" height="145" viewBox="0 0 145 145">
  <defs>
    <filter id="Elipse_4259" x="0" y="0" width="145" height="145" filterUnits="userSpaceOnUse">
      <feOffset dx="-6" dy="6" input="SourceAlpha"/>
      <feGaussianBlur stdDeviation="3" result="blur"/>
      <feFlood flood-opacity="0.161"/>
      <feComposite operator="in" in2="blur"/>
      <feComposite in="SourceGraphic"/>
    </filter>
    <clipPath id="clip-path">
      <rect id="Rectángulo_42651" data-name="Rectángulo 42651" width="83.472" height="77.386" fill="none"/>
    </clipPath>
  </defs>
  <g id="Grupo_137734" data-name="Grupo 137734" transform="translate(-232.285 -6606)">
    <g id="Grupo_126001" data-name="Grupo 126001" transform="translate(247.285 6609.5)">
      <g transform="matrix(1, 0, 0, 1, -15, -3.5)" filter="url(#Elipse_4259)">
        <g id="Elipse_4259-2" data-name="Elipse 4259" transform="translate(15 3)" fill="#fff" stroke="#ca6432" stroke-width="4">
          <circle cx="63.5" cy="63.5" r="63.5" stroke="none"/>
          <circle cx="63.5" cy="63.5" r="61.5" fill="none"/>
        </g>
      </g>
    </g>
    <g id="Grupo_131308" data-name="Grupo 131308" transform="translate(269.039 6633.672)">
      <g id="Grupo_131303" data-name="Grupo 131303" transform="translate(0 0)">
        <g id="Grupo_131302" data-name="Grupo 131302" clip-path="url(#clip-path)">
          <path id="Trazado_205573" data-name="Trazado 205573" d="M68.118,81.626l1.748-4.419,11.292-7.882a15.553,15.553,0,0,0,6.4-9.948l4.289-23.4a3.939,3.939,0,0,0-7.658-1.8l-5.029,17.4L71.075,64.034l8.138-5.52A3.72,3.72,0,0,0,75.687,52L63.88,56.953A14.8,14.8,0,0,0,55.2,67.2L51.8,81.626Z" transform="translate(-10.063 -6.087)" fill="#fcf2dc"/>
          <path id="Trazado_205574" data-name="Trazado 205574" d="M25.81,81.626l-1.748-4.419L12.771,69.326a15.553,15.553,0,0,1-6.4-9.948l-4.289-23.4a3.939,3.939,0,0,1,7.658-1.8l5.029,17.4,8.079,12.456-8.138-5.52A3.72,3.72,0,0,1,18.241,52l11.806,4.949A14.8,14.8,0,0,1,38.726,67.2l3.4,14.427Z" transform="translate(-0.393 -6.087)" fill="#fcf2dc"/>
          <path id="Trazado_205575" data-name="Trazado 205575" d="M47.914,2.291S64.026,13.21,64.026,26.838a16.111,16.111,0,1,1-32.223,0C31.8,13.21,47.914,2.291,47.914,2.291" transform="translate(-6.178 -0.445)" fill="#97dff2"/>
        </g>
      </g>
      <g id="Grupo_131305" data-name="Grupo 131305" transform="translate(0 0)">
        <g id="Grupo_131304" data-name="Grupo 131304" clip-path="url(#clip-path)">
          <path id="Trazado_205576" data-name="Trazado 205576" d="M54.793,38.131a13.764,13.764,0,0,1-13.021-9.3,1.059,1.059,0,0,0-2.051.2,11.941,11.941,0,0,0-.112,1.615,10.727,10.727,0,0,0,15.732,9.483,1.061,1.061,0,0,0-.512-1.995Z" transform="translate(-7.695 -5.462)" fill="#fff"/>
          <path id="Trazado_205577" data-name="Trazado 205577" d="M79,29.421a5.6,5.6,0,0,0-6.448,3.913L67.81,49.746a5.335,5.335,0,0,0-2.818.362l-11.806,4.95a16.471,16.471,0,0,0-9.636,11.375l-1.816,7.7-1.816-7.7a16.468,16.468,0,0,0-9.635-11.375l-11.806-4.95a5.337,5.337,0,0,0-2.818-.362L10.918,33.334A5.569,5.569,0,0,0,.09,35.885l4.288,23.4a17.087,17.087,0,0,0,7.066,10.991l10.889,7.6L23.9,81.833a1.631,1.631,0,1,0,3.033-1.2l-1.748-4.419a1.637,1.637,0,0,0-.583-.738L13.311,67.6a13.837,13.837,0,0,1-5.726-8.906L3.3,35.3A2.308,2.308,0,0,1,7.785,34.24l4.9,16.96a5.319,5.319,0,0,0-.935,1.212,5.381,5.381,0,0,0,1.655,7.059l8.138,5.52a1.631,1.631,0,0,0,1.831-2.7l-8.138-5.519a2.09,2.09,0,0,1,1.981-3.656l11.806,4.949a13.2,13.2,0,0,1,7.722,9.117l3.4,14.427h0a1.63,1.63,0,0,0,1.211,1.213,1.683,1.683,0,0,0,.376.044,1.631,1.631,0,0,0,1.585-1.257l3.4-14.427a13.2,13.2,0,0,1,7.723-9.117l11.806-4.949a2.09,2.09,0,0,1,1.981,3.656L60.1,62.292a1.63,1.63,0,0,0,1.83,2.7l8.138-5.52a5.352,5.352,0,0,0,.72-8.271l4.9-16.96A2.308,2.308,0,0,1,80.174,35.3L75.885,58.691A13.834,13.834,0,0,1,70.16,67.6L58.869,75.477a1.637,1.637,0,0,0-.583.738l-1.748,4.419a1.631,1.631,0,1,0,3.033,1.2l1.567-3.963,10.889-7.6A17.09,17.09,0,0,0,79.093,59.28l4.288-23.4A5.6,5.6,0,0,0,79,29.421" transform="translate(0 -5.694)" fill="#623e2a"/>
        </g>
      </g>
      <g id="Grupo_131307" data-name="Grupo 131307" transform="translate(0 0)">
        <g id="Grupo_131306" data-name="Grupo 131306" clip-path="url(#clip-path)">
          <path id="Trazado_205578" data-name="Trazado 205578" d="M47.521,44.187A17.762,17.762,0,0,0,65.263,26.445c0-5.985-2.932-12.375-8.48-18.48A51.748,51.748,0,0,0,48.436.549a1.629,1.629,0,0,0-1.829,0A51.787,51.787,0,0,0,38.26,7.965c-5.547,6.105-8.48,12.5-8.48,18.48A17.762,17.762,0,0,0,47.521,44.187m0-40.271C50.835,6.421,62,15.667,62,26.445a14.481,14.481,0,0,1-28.961,0c0-10.778,11.167-20.024,14.481-22.53" transform="translate(-5.785 -0.052)" fill="#623e2a"/>
        </g>
      </g>
    </g>
  </g>
</svg>
