<svg xmlns="http://www.w3.org/2000/svg" width="102.999" height="112.312" viewBox="0 0 102.999 112.312">
  <g id="_27._Climate_Change" data-name="27. Climate Change" transform="translate(-1.968 -0.024)">
    <path id="Trazado_209048" data-name="Trazado 209048" d="M97.366,34.315c12.424-4.68,8.61-23.4-4.68-22.626C87.281-6.4,60.538-2.373,60.538,16.345A42.116,42.116,0,0,0,30.12,32.022V16.345a11.7,11.7,0,0,0-23.4,0V51.7C-5.935,64.591,8.875,85.883,25.441,77.834a41.414,41.414,0,0,0,7.791,10.529,16.168,16.168,0,0,0-.772,5.5C21.838,96.6,23.9,112.276,34.8,112.276c33.295,0,32.757.538,36.29-1.591a11.7,11.7,0,0,0,5.569-12.448A42.116,42.116,0,0,0,97.366,34.315ZM88.615,74.02a6.13,6.13,0,0,1-4.68,2.621c-2.527-2.948,3.3-8.564.421-14.741-1.872-4.048-5.943-4.96-10.365-5.124-3.252,0-4.469-.14-5.335-4.422-1.24-6.13,11.7-7.206,8.844-17.291H92.054a37.155,37.155,0,0,1,6.9,13.36C83.28,55.513,93.294,67.071,88.615,74.02ZM76.916,4.646A11.7,11.7,0,0,1,88.474,14.684a2.34,2.34,0,0,0,1.053,1.638c1.848,1.193,3.884-1.287,7.6,1.193a7.019,7.019,0,0,1-3.837,12.869H62.877a4.681,4.681,0,0,1,.211-9.359,2.34,2.34,0,0,0,2.34-2.738A11.7,11.7,0,0,1,76.916,4.646ZM54.29,22.031a8.774,8.774,0,0,0-.421,6.013,5.686,5.686,0,0,0-2.34.632c-7.323,3.65,3.159,12.19.4,15.676-1.053,1.334-6.013.117-9.055,1.614-7.019,3.439-.632,14.717-8.7,12.471A16.378,16.378,0,0,0,30.12,51.7V40.375A37.436,37.436,0,0,1,54.29,22.031Zm-38.4,52.551A11.7,11.7,0,0,1,10.63,54.437c1.1-.983.772,1.334.772-38.091,0-9.359,14.039-9.359,14.039,0,0,39.449-.328,37.109.772,38.091A11.7,11.7,0,0,1,15.895,74.582Zm55.9,28.335a7.019,7.019,0,0,1-6.575,4.68H34.8a4.68,4.68,0,1,1,0-9.359,2.34,2.34,0,0,0,1.848-.562c1.287-1.123.585-2.223.585-4.118,0-14.483,21.292-15.91,23.257-1.661a2.34,2.34,0,0,0,2.972,1.919,7.019,7.019,0,0,1,8.33,9.1ZM46.826,76.8A7.324,7.324,0,0,1,44.206,74.7a4.68,4.68,0,0,1,.468-4.516c2.34-2.808,8.072.959,9.2,3.159,2.34,4.539,8.1,2.34,8.61,3.393,1.24,2.667-1.9,2.176-4.446,3.322C52.4,76.22,48.254,77.694,46.826,76.8ZM74.9,93.908a11.7,11.7,0,0,0-10.365-5.031,16.636,16.636,0,0,0-2.644-5.171c5.288-1.544,6.622-5.077,4.843-8.961-2.176-4.68-8.072-2.34-8.7-3.533a15.349,15.349,0,0,0-8.423-6.388,8.283,8.283,0,0,0-7.955,14.039,16.378,16.378,0,0,0-6.083,5.124,36.407,36.407,0,0,1-6.107-8.774A16.378,16.378,0,0,0,34.8,63.257c11.371.7,7.394-11.7,10.108-13.079,1.989-1.006,17.712,2.2,9.64-14.764-1.5-3.182-1.661-3.065,2.995-2.036,3.042,2.129,4.68,1.685,15.092,1.685.7,2.808,1.334,3.346-1.053,5.732s-8.938,5.545-7.534,12.494c2.082,10.412,9.359,7.253,13.641,8.681,3.252,1.076,3.3,4.118,2.036,7.277-2.176,5.475-1.029,12.073,4.469,12.073a10.9,10.9,0,0,0,8.306-4.68c6.294-9.476-3.931-17.291,7.394-23.4A37.436,37.436,0,0,1,74.834,93.908Z" transform="translate(0 0)" fill="#fff"/>
    <path id="Trazado_209049" data-name="Trazado 209049" d="M15.359,32.46V20.34a2.34,2.34,0,0,0-4.68,0V32.46a7.019,7.019,0,1,0,4.68,0ZM13.02,41.4a2.34,2.34,0,1,1,2.34-2.34A2.34,2.34,0,0,1,13.02,41.4Z" transform="translate(5.402 24.083)" fill="#fff"/>
  </g>
</svg>
