<svg xmlns="http://www.w3.org/2000/svg" xmlns:xlink="http://www.w3.org/1999/xlink" width="145" height="145" viewBox="0 0 145 145">
  <defs>
    <filter id="Elipse_4259" x="0" y="0" width="145" height="145" filterUnits="userSpaceOnUse">
      <feOffset dx="-6" dy="6" input="SourceAlpha"/>
      <feGaussianBlur stdDeviation="3" result="blur"/>
      <feFlood flood-opacity="0.161"/>
      <feComposite operator="in" in2="blur"/>
      <feComposite in="SourceGraphic"/>
    </filter>
    <clipPath id="clip-path">
      <rect id="Rectángulo_42659" data-name="Rectángulo 42659" width="69.518" height="64.449" fill="none"/>
    </clipPath>
  </defs>
  <g id="Grupo_137737" data-name="Grupo 137737" transform="translate(-1196.285 -6606)">
    <g id="Grupo_131327" data-name="Grupo 131327" transform="translate(201)">
      <g id="Grupo_131301" data-name="Grupo 131301" transform="translate(1010.314 6609.5)">
        <g transform="matrix(1, 0, 0, 1, -15.03, -3.5)" filter="url(#Elipse_4259)">
          <g id="Elipse_4259-2" data-name="Elipse 4259" transform="translate(15 3)" fill="#fff" stroke="#ffc200" stroke-width="4">
            <circle cx="63.5" cy="63.5" r="63.5" stroke="none"/>
            <circle cx="63.5" cy="63.5" r="61.5" fill="none"/>
          </g>
        </g>
      </g>
      <g id="Grupo_131326" data-name="Grupo 131326" transform="translate(1038.514 6640.924)">
        <g id="Grupo_131321" data-name="Grupo 131321" transform="translate(0 0)">
          <g id="Grupo_131320" data-name="Grupo 131320" clip-path="url(#clip-path)">
            <path id="Trazado_205594" data-name="Trazado 205594" d="M11.4,72.573a5.2,5.2,0,0,1-9.007-5.2c2.2-3.81,8.465-4.262,8.465-4.262s2.742,5.652.542,9.462" transform="translate(-0.33 -12.261)" fill="#97dff2"/>
            <path id="Trazado_205595" data-name="Trazado 205595" d="M39.632,72.573a5.2,5.2,0,0,1-9.007-5.2c2.2-3.81,8.466-4.262,8.466-4.262s2.741,5.652.541,9.462" transform="translate(-5.814 -12.261)" fill="#97dff2"/>
            <path id="Trazado_205596" data-name="Trazado 205596" d="M67.862,72.573a5.2,5.2,0,0,1-9.007-5.2c2.2-3.81,8.465-4.262,8.465-4.262s2.742,5.652.542,9.462" transform="translate(-11.298 -12.261)" fill="#97dff2"/>
            <path id="Trazado_205597" data-name="Trazado 205597" d="M55.308,42.421a13.181,13.181,0,0,0,2.743-26.073,15.66,15.66,0,0,0-30.793-2.629,9.752,9.752,0,0,0-16.064,4.874,12.049,12.049,0,0,0,2.54,23.828Z" transform="translate(-0.327 -0.37)" fill="#97dff2"/>
          </g>
        </g>
        <g id="Grupo_131323" data-name="Grupo 131323" transform="translate(0 0)">
          <g id="Grupo_131322" data-name="Grupo 131322" clip-path="url(#clip-path)">
            <path id="Trazado_205598" data-name="Trazado 205598" d="M66.228,19.7a14.605,14.605,0,0,0-7.255-4.77,17.02,17.02,0,0,0-32.757-3.784A11.115,11.115,0,0,0,9.775,17.138a13.407,13.407,0,0,0,3.631,26.313H54.981A14.537,14.537,0,0,0,66.228,19.7M54.981,40.736H13.407a10.692,10.692,0,0,1-2.255-21.142l.009,0a10.849,10.849,0,0,1,2.246-.236A10.641,10.641,0,0,1,20.771,22.3a1.358,1.358,0,0,0,1.872-1.968,13.348,13.348,0,0,0-9.236-3.689c-.163,0-.325,0-.487.01a8.4,8.4,0,0,1,13.092-2.255,1.358,1.358,0,0,0,2.234-.669,14.3,14.3,0,0,1,27.888.7c-.383-.031-.769-.047-1.154-.047a1.358,1.358,0,0,0,0,2.716,11.894,11.894,0,0,1,2.447.254l.014,0a11.823,11.823,0,0,1-2.462,23.386" transform="translate(0 -0.043)" fill="#623e2a"/>
            <path id="Trazado_205599" data-name="Trazado 205599" d="M10.435,61.428c-.285.021-7.013.554-9.544,4.938a6.558,6.558,0,1,0,11.359,6.558c2.531-4.383-.371-10.476-.5-10.733a1.358,1.358,0,0,0-1.319-.762M9.9,71.566a3.842,3.842,0,1,1-6.655-3.843c1.348-2.335,4.762-3.179,6.434-3.46.595,1.59,1.57,4.968.222,7.3" transform="translate(-0.003 -11.933)" fill="#623e2a"/>
          </g>
        </g>
        <g id="Grupo_131325" data-name="Grupo 131325" transform="translate(0 0)">
          <g id="Grupo_131324" data-name="Grupo 131324" clip-path="url(#clip-path)">
            <path id="Trazado_205600" data-name="Trazado 205600" d="M38.665,61.428c-.285.021-7.013.554-9.544,4.938a6.558,6.558,0,1,0,11.359,6.558c2.53-4.383-.371-10.476-.5-10.733a1.359,1.359,0,0,0-1.319-.762M38.13,71.566a3.843,3.843,0,0,1-6.656-3.843c1.348-2.335,4.762-3.179,6.435-3.46.594,1.59,1.569,4.968.222,7.3" transform="translate(-5.487 -11.933)" fill="#623e2a"/>
            <path id="Trazado_205601" data-name="Trazado 205601" d="M66.9,61.429c-.285.021-7.013.554-9.544,4.937a6.558,6.558,0,0,0,11.359,6.559c2.531-4.383-.371-10.476-.5-10.734a1.358,1.358,0,0,0-1.319-.761m-2.87,11.927A3.842,3.842,0,0,1,59.7,67.724c1.347-2.334,4.762-3.179,6.435-3.459.594,1.59,1.569,4.967.221,7.3a3.816,3.816,0,0,1-2.333,1.79" transform="translate(-10.971 -11.933)" fill="#623e2a"/>
          </g>
        </g>
      </g>
    </g>
  </g>
</svg>
