<svg xmlns="http://www.w3.org/2000/svg" xmlns:xlink="http://www.w3.org/1999/xlink" width="144" height="145" viewBox="0 0 144 145">
  <defs>
    <filter id="Elipse_4259" x="0" y="0" width="144" height="145" filterUnits="userSpaceOnUse">
      <feOffset dx="-6" dy="6" input="SourceAlpha"/>
      <feGaussianBlur stdDeviation="3" result="blur"/>
      <feFlood flood-opacity="0.161"/>
      <feComposite operator="in" in2="blur"/>
      <feComposite in="SourceGraphic"/>
    </filter>
    <clipPath id="clip-path">
      <rect id="Rectángulo_42658" data-name="Rectángulo 42658" width="72.29" height="72.29" fill="none"/>
    </clipPath>
  </defs>
  <g id="Grupo_137736" data-name="Grupo 137736" transform="translate(-895.285 -6613)">
    <g id="Grupo_131328" data-name="Grupo 131328" transform="translate(155 7)">
      <g id="Grupo_131300" data-name="Grupo 131300" transform="translate(754.896 6609.5)">
        <g transform="matrix(1, 0, 0, 1, -14.61, -3.5)" filter="url(#Elipse_4259)">
          <g id="Elipse_4259-2" data-name="Elipse 4259" transform="translate(15 3)" fill="#fff" stroke="#cdb47a" stroke-width="4">
            <ellipse cx="63" cy="63.5" rx="63" ry="63.5" stroke="none"/>
            <ellipse cx="63" cy="63.5" rx="61" ry="61.5" fill="none"/>
          </g>
        </g>
      </g>
      <g id="Grupo_131319" data-name="Grupo 131319" transform="translate(782.291 6636.895)">
        <g id="Grupo_131318" data-name="Grupo 131318" transform="translate(-0.001 0)" clip-path="url(#clip-path)">
          <path id="Trazado_205588" data-name="Trazado 205588" d="M61.532,1.752A17.835,17.835,0,0,0,47.9,31.088a8.386,8.386,0,0,1-4.1,4.543,8.341,8.341,0,0,0,9.314-.317A17.837,17.837,0,1,0,61.532,1.752" transform="translate(-8.489 -0.341)" fill="#f7eeda"/>
          <path id="Trazado_205589" data-name="Trazado 205589" d="M71.272,22.161A7.168,7.168,0,1,1,64.1,14.992a7.168,7.168,0,0,1,7.169,7.169" transform="translate(-11.061 -2.913)" fill="#fff"/>
          <path id="Trazado_205590" data-name="Trazado 205590" d="M21.41,26.4S41.069,39.72,41.069,56.349a19.658,19.658,0,1,1-39.317,0C1.752,39.72,21.41,26.4,21.41,26.4" transform="translate(-0.34 -5.129)" fill="#97dff2"/>
          <path id="Trazado_205591" data-name="Trazado 205591" d="M28.931,71.861A19.175,19.175,0,0,1,10.793,58.9a1.476,1.476,0,0,0-2.857.276,16.552,16.552,0,0,0-.156,2.251A14.942,14.942,0,0,0,29.7,74.638a1.477,1.477,0,0,0-.711-2.778h-.053" transform="translate(-1.511 -11.25)" fill="#fff"/>
          <path id="Trazado_205592" data-name="Trazado 205592" d="M53.044,0A19.246,19.246,0,0,0,37.775,30.965,6.921,6.921,0,0,1,35.57,33.5a52.95,52.95,0,0,0-3.626-4.437A62.543,62.543,0,0,0,21.862,20.1a1.41,1.41,0,0,0-1.584,0A62.62,62.62,0,0,0,10.2,29.059,46.161,46.161,0,0,0,3.228,38.88,27,27,0,0,0,0,51.22a21.07,21.07,0,0,0,42.141,0A27,27,0,0,0,38.913,38.88c-.172-.334-.352-.669-.537-1a9.831,9.831,0,0,0,1.354.094A9.683,9.683,0,0,0,44.713,36.6,19.249,19.249,0,1,0,53.044,0M39.317,51.22a18.246,18.246,0,0,1-36.492,0c0-4.482,1.635-11.628,9.421-20.217a62.844,62.844,0,0,1,8.825-8A62.791,62.791,0,0,1,29.9,31c7.787,8.589,9.421,15.734,9.421,20.217m13.727-15.55a16.446,16.446,0,0,1-7.754-1.942,1.415,1.415,0,0,0-1.5.1,6.889,6.889,0,0,1-4.064,1.316,6.986,6.986,0,0,1-1.508-.164,9.747,9.747,0,0,0,2.512-3.737,1.413,1.413,0,0,0-.244-1.408,16.423,16.423,0,1,1,12.554,5.834" transform="translate(0 0)" fill="#623e2a"/>
          <path id="Trazado_205593" data-name="Trazado 205593" d="M73.232,19.676H71.494a8.534,8.534,0,0,0-1.483-3.569l1.231-1.232a1.412,1.412,0,0,0-2-2l-1.231,1.231a8.536,8.536,0,0,0-3.571-1.483V10.89a1.412,1.412,0,1,0-2.823,0v1.737a8.54,8.54,0,0,0-3.569,1.483L56.82,12.878a1.412,1.412,0,0,0-2,2l1.231,1.232a8.534,8.534,0,0,0-1.483,3.57H52.834a1.412,1.412,0,0,0,0,2.824h1.737a8.527,8.527,0,0,0,1.483,3.569L54.823,27.3a1.412,1.412,0,1,0,2,2l1.231-1.231a8.545,8.545,0,0,0,3.57,1.483v1.737a1.412,1.412,0,1,0,2.823,0V29.551a8.548,8.548,0,0,0,3.571-1.483l1.23,1.231a1.412,1.412,0,0,0,2-2L70.011,26.07A8.531,8.531,0,0,0,71.494,22.5h1.737a1.412,1.412,0,0,0,0-2.825m-10.2,7.169a5.756,5.756,0,1,1,5.756-5.756,5.762,5.762,0,0,1-5.756,5.756" transform="translate(-9.99 -1.842)" fill="#623e2a"/>
        </g>
      </g>
    </g>
  </g>
</svg>
