<svg id="Grupo_132323" data-name="Grupo 132323" xmlns="http://www.w3.org/2000/svg" xmlns:xlink="http://www.w3.org/1999/xlink" width="85" height="72.999" viewBox="0 0 85 72.999">
  <defs>
    <clipPath id="clip-path">
      <rect id="Rectángulo_43084" data-name="Rectángulo 43084" width="85" height="72.999" fill="none"/>
    </clipPath>
  </defs>
  <g id="Grupo_132322" data-name="Grupo 132322" clip-path="url(#clip-path)">
    <path id="Trazado_212400" data-name="Trazado 212400" d="M18.529,77.518a11.306,11.306,0,0,1-9.588-17.3l30-47.993a11.306,11.306,0,0,1,19.175,0l30,47.993a11.306,11.306,0,0,1-9.587,17.3Z" transform="translate(-6.025 -5.765)" fill="#ffe17d"/>
    <path id="Trazado_212401" data-name="Trazado 212401" d="M11.965,71.692a11.31,11.31,0,0,1,.3-11.473l30-47.993a11.231,11.231,0,0,1,7.925-5.193,11.478,11.478,0,0,0-1.662-.121,11.241,11.241,0,0,0-9.587,5.314l-30,47.993a11.306,11.306,0,0,0,9.588,17.3h3.324A11.311,11.311,0,0,1,11.965,71.692Z" transform="translate(-6.025 -5.765)" fill="#ffd164"/>
    <path id="Trazado_212402" data-name="Trazado 212402" d="M44.661,98.448a6.1,6.1,0,0,1-5.176-9.339l30-47.992a6.1,6.1,0,0,1,10.352,0l30,47.993a6.1,6.1,0,0,1-5.176,9.339Z" transform="translate(-32.156 -31.898)" fill="#ffc200"/>
    <path id="Trazado_212403" data-name="Trazado 212403" d="M231.569,152.059a2.477,2.477,0,0,1-2.461-2.2L226.722,129a2.477,2.477,0,0,1,2.461-2.759h4.772A2.477,2.477,0,0,1,236.416,129l-2.386,20.859a2.477,2.477,0,0,1-2.461,2.2" transform="translate(-189.069 -105.287)" fill="#ca6432"/>
    <path id="Trazado_212404" data-name="Trazado 212404" d="M236.549,312.568a3.872,3.872,0,1,1-3.872,3.872,3.872,3.872,0,0,1,3.872-3.872" transform="translate(-194.049 -260.677)" fill="#ca6432"/>
    <path id="Trazado_212405" data-name="Trazado 212405" d="M232.432,149.863,230.046,129a2.477,2.477,0,0,1,2.461-2.759h-3.324A2.477,2.477,0,0,0,226.722,129l2.386,20.859a2.477,2.477,0,0,0,4.123,1.555,2.471,2.471,0,0,1-.8-1.555" transform="translate(-189.069 -105.287)" fill="#a75532"/>
    <path id="Trazado_212406" data-name="Trazado 212406" d="M236,316.441a3.872,3.872,0,0,1,2.21-3.5,3.872,3.872,0,1,0,0,7A3.873,3.873,0,0,1,236,316.441Z" transform="translate(-194.049 -260.678)" fill="#a75532"/>
    <path id="Trazado_212407" data-name="Trazado 212407" d="M39.784,73H12.5C2.829,73-3.267,62,1.861,53.794L31.855,5.8a12.669,12.669,0,0,1,21.29,0L64.106,23.34a1.246,1.246,0,0,1-2.114,1.321L51.031,7.122a10.2,10.2,0,0,0-17.062,0L3.975,55.115A10.151,10.151,0,0,0,12.5,70.506h27.28a1.246,1.246,0,1,1,0,2.493Z" transform="translate(0 0)"/>
    <path id="Trazado_212408" data-name="Trazado 212408" d="M293.376,210.487H266.1a1.246,1.246,0,1,1,0-2.493h27.28a10.151,10.151,0,0,0,8.529-15.391l-16.148-25.839a1.246,1.246,0,0,1,2.114-1.321l16.148,25.839C309.147,199.485,303.052,210.487,293.376,210.487Z" transform="translate(-220.881 -137.488)"/>
    <path id="Trazado_212409" data-name="Trazado 212409" d="M98.6,93.855H38.609a7.448,7.448,0,0,1-6.233-11.246L51.085,52.675A1.246,1.246,0,1,1,53.2,54L34.49,83.93a4.9,4.9,0,0,0,4.119,7.432H98.6a4.9,4.9,0,0,0,4.119-7.432l-30-47.994a4.9,4.9,0,0,0-8.237,0L56.08,49.387a1.246,1.246,0,1,1-2.114-1.321l8.406-13.45a7.448,7.448,0,0,1,12.465,0l30,47.993A7.448,7.448,0,0,1,98.6,93.855Z" transform="translate(-26.105 -26.058)"/>
    <path id="Trazado_212410" data-name="Trazado 212410" d="M225.429,147.044a3.722,3.722,0,0,1-3.7-3.3l-2.386-20.859a3.724,3.724,0,0,1,3.7-4.147h4.772a3.724,3.724,0,0,1,3.7,4.147l-2.386,20.859a3.722,3.722,0,0,1-3.7,3.3m-2.386-25.813a1.23,1.23,0,0,0-1.223,1.37l2.386,20.859a1.231,1.231,0,0,0,2.445,0l2.386-20.859a1.23,1.23,0,0,0-1.223-1.37Z" transform="translate(-182.929 -99.026)"/>
    <path id="Trazado_212411" data-name="Trazado 212411" d="M230.287,315.3a5.118,5.118,0,1,1,5.118-5.118,5.124,5.124,0,0,1-5.118,5.118m0-7.744a2.625,2.625,0,1,0,2.625,2.625,2.628,2.628,0,0,0-2.625-2.625" transform="translate(-187.787 -254.415)"/>
  </g>
</svg>
